<?xml version="1.0" encoding="UTF-8" standalone="no"?>
<!DOCTYPE svg PUBLIC "-//W3C//DTD SVG 1.1//EN"
 "http://www.w3.org/Graphics/SVG/1.1/DTD/svg11.dtd">
<!-- Generated by graphviz version 2.40.1 (20161225.0304)
 -->
<!-- Title: G Pages: 1 -->
<svg width="812pt" height="476pt"
 viewBox="0.00 0.00 812.00 476.00" xmlns="http://www.w3.org/2000/svg" xmlns:xlink="http://www.w3.org/1999/xlink">
<g id="graph0" class="graph" transform="scale(1 1) rotate(0) translate(4 472)">
<title>G</title>
<polygon fill="#ffffff" stroke="transparent" points="-4,4 -4,-472 808,-472 808,4 -4,4"/>
<!-- jback&#45;main -->
<g id="node1" class="node">
<title>jback&#45;main</title>
<polygon fill="none" stroke="#000000" points="487.5,-468 400.5,-468 400.5,-432 487.5,-432 487.5,-468"/>
<text text-anchor="middle" x="444" y="-446.3" font-family="Helvetica,sans-Serif" font-size="14.00" fill="#000000">jback&#45;main</text>
</g>
<!-- jback&#45;api -->
<g id="node2" class="node">
<title>jback&#45;api</title>
<polygon fill="none" stroke="#000000" points="344.5,-396 269.5,-396 269.5,-360 344.5,-360 344.5,-396"/>
<text text-anchor="middle" x="307" y="-374.3" font-family="Helvetica,sans-Serif" font-size="14.00" fill="#000000">jback&#45;api</text>
</g>
<!-- jback&#45;main&#45;&gt;jback&#45;api -->
<g id="edge1" class="edge">
<title>jback&#45;main&#45;&gt;jback&#45;api</title>
<path fill="none" stroke="#000000" d="M409.4291,-431.8314C391.5815,-422.4516 369.6226,-410.9112 350.62,-400.9244"/>
<polygon fill="#000000" stroke="#000000" points="352.0401,-397.7168 341.5598,-396.1628 348.7836,-403.9132 352.0401,-397.7168"/>
</g>
<!-- jback&#45;core&#45;spring -->
<g id="node3" class="node">
<title>jback&#45;core&#45;spring</title>
<polygon fill="none" stroke="#000000" points="128,-324 0,-324 0,-288 128,-288 128,-324"/>
<text text-anchor="middle" x="64" y="-302.3" font-family="Helvetica,sans-Serif" font-size="14.00" fill="#000000">jback&#45;core&#45;spring</text>
</g>
<!-- jback&#45;main&#45;&gt;jback&#45;core&#45;spring -->
<g id="edge2" class="edge">
<title>jback&#45;main&#45;&gt;jback&#45;core&#45;spring</title>
<path fill="none" stroke="#000000" d="M400.1698,-438.9399C362.7363,-429.0512 307.6972,-413.4565 261,-396 207.5246,-376.0097 148.1862,-348.0742 108.7488,-328.6492"/>
<polygon fill="#000000" stroke="#000000" points="110.1756,-325.4502 99.6609,-324.15 107.0698,-331.7235 110.1756,-325.4502"/>
</g>
<!-- jback&#45;jpa&#45;entities&#45;spring -->
<g id="node4" class="node">
<title>jback&#45;jpa&#45;entities&#45;spring</title>
<polygon fill="none" stroke="#000000" points="700,-396 530,-396 530,-360 700,-360 700,-396"/>
<text text-anchor="middle" x="615" y="-374.3" font-family="Helvetica,sans-Serif" font-size="14.00" fill="#000000">jback&#45;jpa&#45;entities&#45;spring</text>
</g>
<!-- jback&#45;main&#45;&gt;jback&#45;jpa&#45;entities&#45;spring -->
<g id="edge3" class="edge">
<title>jback&#45;main&#45;&gt;jback&#45;jpa&#45;entities&#45;spring</title>
<path fill="none" stroke="#000000" d="M487.1505,-431.8314C510.1224,-422.159 538.5509,-410.1891 562.7632,-399.9944"/>
<polygon fill="#000000" stroke="#000000" points="564.3016,-403.1443 572.1598,-396.038 561.5852,-396.6929 564.3016,-403.1443"/>
</g>
<!-- jback&#45;jpa&#45;wrapper -->
<g id="node5" class="node">
<title>jback&#45;jpa&#45;wrapper</title>
<polygon fill="none" stroke="#000000" points="804,-324 672,-324 672,-288 804,-288 804,-324"/>
<text text-anchor="middle" x="738" y="-302.3" font-family="Helvetica,sans-Serif" font-size="14.00" fill="#000000">jback&#45;jpa&#45;wrapper</text>
</g>
<!-- jback&#45;main&#45;&gt;jback&#45;jpa&#45;wrapper -->
<g id="edge4" class="edge">
<title>jback&#45;main&#45;&gt;jback&#45;jpa&#45;wrapper</title>
<path fill="none" stroke="#000000" d="M487.728,-446.3987C554.3288,-440.0593 676.8565,-424.7687 709,-396 726.4196,-380.4093 733.4328,-354.3143 736.227,-334.226"/>
<polygon fill="#000000" stroke="#000000" points="739.7293,-334.3995 737.3605,-324.0728 732.7725,-333.6227 739.7293,-334.3995"/>
</g>
<!-- jback&#45;presentation -->
<g id="node6" class="node">
<title>jback&#45;presentation</title>
<polygon fill="none" stroke="#000000" points="372,-324 236,-324 236,-288 372,-288 372,-324"/>
<text text-anchor="middle" x="304" y="-302.3" font-family="Helvetica,sans-Serif" font-size="14.00" fill="#000000">jback&#45;presentation</text>
</g>
<!-- jback&#45;main&#45;&gt;jback&#45;presentation -->
<g id="edge5" class="edge">
<title>jback&#45;main&#45;&gt;jback&#45;presentation</title>
<path fill="none" stroke="#000000" d="M426.2689,-431.7623C401.5484,-406.3354 356.6218,-360.1253 328.6525,-331.3569"/>
<polygon fill="#000000" stroke="#000000" points="331.0674,-328.8198 321.5871,-324.0896 326.0484,-333.6994 331.0674,-328.8198"/>
</g>
<!-- jback&#45;security&#45;spring -->
<g id="node7" class="node">
<title>jback&#45;security&#45;spring</title>
<polygon fill="none" stroke="#000000" points="616,-324 466,-324 466,-288 616,-288 616,-324"/>
<text text-anchor="middle" x="541" y="-302.3" font-family="Helvetica,sans-Serif" font-size="14.00" fill="#000000">jback&#45;security&#45;spring</text>
</g>
<!-- jback&#45;main&#45;&gt;jback&#45;security&#45;spring -->
<g id="edge6" class="edge">
<title>jback&#45;main&#45;&gt;jback&#45;security&#45;spring</title>
<path fill="none" stroke="#000000" d="M456.2851,-431.7623C473.1943,-406.66 503.7482,-361.3017 523.1715,-332.4671"/>
<polygon fill="#000000" stroke="#000000" points="526.1306,-334.3389 528.8146,-324.0896 520.3249,-330.4281 526.1306,-334.3389"/>
</g>
<!-- jback&#45;api&#45;&gt;jback&#45;presentation -->
<g id="edge15" class="edge">
<title>jback&#45;api&#45;&gt;jback&#45;presentation</title>
<path fill="none" stroke="#000000" d="M306.243,-359.8314C305.9221,-352.131 305.5406,-342.9743 305.184,-334.4166"/>
<polygon fill="#000000" stroke="#000000" points="308.6806,-334.2589 304.7672,-324.4133 301.6867,-334.5503 308.6806,-334.2589"/>
</g>
<!-- jback&#45;core&#45;entities -->
<g id="node8" class="node">
<title>jback&#45;core&#45;entities</title>
<polygon fill="none" stroke="#000000" points="449,-108 315,-108 315,-72 449,-72 449,-108"/>
<text text-anchor="middle" x="382" y="-86.3" font-family="Helvetica,sans-Serif" font-size="14.00" fill="#000000">jback&#45;core&#45;entities</text>
</g>
<!-- jback&#45;api&#45;&gt;jback&#45;core&#45;entities -->
<g id="edge14" class="edge">
<title>jback&#45;api&#45;&gt;jback&#45;core&#45;entities</title>
<path fill="none" stroke="#000000" d="M269.4298,-362.415C250.3818,-353.2186 227.7919,-340.1954 211,-324 173.6936,-288.0188 146.8378,-263.7483 167,-216 190.7655,-159.7184 253.7303,-127.1894 305.4183,-109.3337"/>
<polygon fill="#000000" stroke="#000000" points="306.5441,-112.6478 314.9264,-106.1679 304.3328,-106.0063 306.5441,-112.6478"/>
</g>
<!-- jback&#45;security&#45;entities -->
<g id="node10" class="node">
<title>jback&#45;security&#45;entities</title>
<polygon fill="none" stroke="#000000" points="566,-180 410,-180 410,-144 566,-144 566,-180"/>
<text text-anchor="middle" x="488" y="-158.3" font-family="Helvetica,sans-Serif" font-size="14.00" fill="#000000">jback&#45;security&#45;entities</text>
</g>
<!-- jback&#45;api&#45;&gt;jback&#45;security&#45;entities -->
<g id="edge17" class="edge">
<title>jback&#45;api&#45;&gt;jback&#45;security&#45;entities</title>
<path fill="none" stroke="#000000" d="M344.7315,-360.8282C383.6664,-340.8339 442.3573,-303.8064 469,-252 478.8905,-232.7681 483.6338,-208.6984 485.9079,-190.2908"/>
<polygon fill="#000000" stroke="#000000" points="489.4053,-190.5003 486.9818,-180.1864 482.4445,-189.7605 489.4053,-190.5003"/>
</g>
<!-- jback&#45;core -->
<g id="node11" class="node">
<title>jback&#45;core</title>
<polygon fill="none" stroke="#000000" points="260,-252 176,-252 176,-216 260,-216 260,-252"/>
<text text-anchor="middle" x="218" y="-230.3" font-family="Helvetica,sans-Serif" font-size="14.00" fill="#000000">jback&#45;core</text>
</g>
<!-- jback&#45;api&#45;&gt;jback&#45;core -->
<g id="edge13" class="edge">
<title>jback&#45;api&#45;&gt;jback&#45;core</title>
<path fill="none" stroke="#000000" d="M269.089,-361.4934C253.4335,-352.6833 236.7086,-340.2569 227,-324 215.9782,-305.5442 214.1705,-281.091 214.8743,-262.3321"/>
<polygon fill="#000000" stroke="#000000" points="218.3704,-262.5023 215.5044,-252.3025 211.3842,-262.0633 218.3704,-262.5023"/>
</g>
<!-- jback&#45;security -->
<g id="node12" class="node">
<title>jback&#45;security</title>
<polygon fill="none" stroke="#000000" points="460,-252 354,-252 354,-216 460,-216 460,-252"/>
<text text-anchor="middle" x="407" y="-230.3" font-family="Helvetica,sans-Serif" font-size="14.00" fill="#000000">jback&#45;security</text>
</g>
<!-- jback&#45;api&#45;&gt;jback&#45;security -->
<g id="edge16" class="edge">
<title>jback&#45;api&#45;&gt;jback&#45;security</title>
<path fill="none" stroke="#000000" d="M341.204,-359.8147C355.3428,-350.7517 370.7838,-338.5918 381,-324 393.8478,-305.6495 400.3969,-280.9927 403.7061,-262.1274"/>
<polygon fill="#000000" stroke="#000000" points="407.1949,-262.4683 405.2669,-252.0504 400.2774,-261.3968 407.1949,-262.4683"/>
</g>
<!-- jback&#45;core&#45;spring&#45;&gt;jback&#45;core&#45;entities -->
<g id="edge31" class="edge">
<title>jback&#45;core&#45;spring&#45;&gt;jback&#45;core&#45;entities</title>
<path fill="none" stroke="#000000" d="M66.3787,-287.9609C71.8289,-254.1944 88.4627,-181.4813 134,-144 159.742,-122.812 241.7067,-107.8046 304.4311,-99.0743"/>
<polygon fill="#000000" stroke="#000000" points="305.2782,-102.4914 314.7148,-97.6746 304.3341,-95.5553 305.2782,-102.4914"/>
</g>
<!-- jback&#45;core&#45;spring&#45;&gt;jback&#45;core -->
<g id="edge30" class="edge">
<title>jback&#45;core&#45;spring&#45;&gt;jback&#45;core</title>
<path fill="none" stroke="#000000" d="M102.8607,-287.8314C123.2742,-278.2874 148.4723,-266.5065 170.086,-256.4013"/>
<polygon fill="#000000" stroke="#000000" points="171.8423,-259.4439 179.4187,-252.038 168.8775,-253.1027 171.8423,-259.4439"/>
</g>
<!-- jback&#45;jpa&#45;entities -->
<g id="node9" class="node">
<title>jback&#45;jpa&#45;entities</title>
<polygon fill="none" stroke="#000000" points="679.5,-252 554.5,-252 554.5,-216 679.5,-216 679.5,-252"/>
<text text-anchor="middle" x="617" y="-230.3" font-family="Helvetica,sans-Serif" font-size="14.00" fill="#000000">jback&#45;jpa&#45;entities</text>
</g>
<!-- jback&#45;jpa&#45;entities&#45;spring&#45;&gt;jback&#45;jpa&#45;entities -->
<g id="edge10" class="edge">
<title>jback&#45;jpa&#45;entities&#45;spring&#45;&gt;jback&#45;jpa&#45;entities</title>
<path fill="none" stroke="#000000" d="M619.2675,-359.6221C621.462,-349.2314 623.9016,-335.963 625,-324 626.4628,-308.067 626.1756,-303.9568 625,-288 624.3831,-279.6264 623.2351,-270.5812 621.9974,-262.3322"/>
<polygon fill="#000000" stroke="#000000" points="625.4477,-261.7428 620.415,-252.4196 618.5352,-262.8463 625.4477,-261.7428"/>
</g>
<!-- jback&#45;jpa&#45;wrapper&#45;&gt;jback&#45;core&#45;entities -->
<g id="edge7" class="edge">
<title>jback&#45;jpa&#45;wrapper&#45;&gt;jback&#45;core&#45;entities</title>
<path fill="none" stroke="#000000" d="M737.5032,-287.769C736.1313,-268.3057 731.447,-237.3838 716,-216 680.6891,-167.1177 656.5286,-167.5142 601,-144 555.7655,-124.8449 502.2772,-111.4962 459.4856,-102.8629"/>
<polygon fill="#000000" stroke="#000000" points="459.898,-99.3769 449.4099,-100.8769 458.5442,-106.2448 459.898,-99.3769"/>
</g>
<!-- jback&#45;jpa&#45;wrapper&#45;&gt;jback&#45;jpa&#45;entities -->
<g id="edge8" class="edge">
<title>jback&#45;jpa&#45;wrapper&#45;&gt;jback&#45;jpa&#45;entities</title>
<path fill="none" stroke="#000000" d="M707.4666,-287.8314C691.9899,-278.6221 673.0131,-267.3301 656.4437,-257.4706"/>
<polygon fill="#000000" stroke="#000000" points="657.9071,-254.2687 647.5236,-252.1628 654.3276,-260.2843 657.9071,-254.2687"/>
</g>
<!-- jback&#45;jpa&#45;wrapper&#45;&gt;jback&#45;security&#45;entities -->
<g id="edge9" class="edge">
<title>jback&#45;jpa&#45;wrapper&#45;&gt;jback&#45;security&#45;entities</title>
<path fill="none" stroke="#000000" d="M732.9327,-287.9645C726.2425,-267.4771 712.4764,-234.498 689,-216 670.9868,-201.8067 621.419,-188.4122 576.0176,-178.514"/>
<polygon fill="#000000" stroke="#000000" points="576.6161,-175.0628 566.105,-176.3926 575.1512,-181.9079 576.6161,-175.0628"/>
</g>
<!-- jback&#45;presentation&#45;&gt;jback&#45;core&#45;entities -->
<g id="edge19" class="edge">
<title>jback&#45;presentation&#45;&gt;jback&#45;core&#45;entities</title>
<path fill="none" stroke="#000000" d="M304.576,-287.6644C305.5865,-269.1847 308.3653,-240.0379 316,-216 327.5176,-179.7366 349.0792,-141.4819 364.4223,-116.7691"/>
<polygon fill="#000000" stroke="#000000" points="367.3862,-118.6306 369.7635,-108.3059 361.4666,-114.8946 367.3862,-118.6306"/>
</g>
<!-- jback&#45;presentation&#45;&gt;jback&#45;security&#45;entities -->
<g id="edge21" class="edge">
<title>jback&#45;presentation&#45;&gt;jback&#45;security&#45;entities</title>
<path fill="none" stroke="#000000" d="M307.9225,-287.6711C313.1273,-267.5351 324.1881,-235.474 345,-216 360.5572,-201.443 380.421,-190.7054 400.3602,-182.8234"/>
<polygon fill="#000000" stroke="#000000" points="401.6789,-186.0671 409.8224,-179.2896 399.2298,-179.5094 401.6789,-186.0671"/>
</g>
<!-- jback&#45;presentation&#45;&gt;jback&#45;core -->
<g id="edge18" class="edge">
<title>jback&#45;presentation&#45;&gt;jback&#45;core</title>
<path fill="none" stroke="#000000" d="M282.2986,-287.8314C271.8079,-279.0485 259.0545,-268.3712 247.6806,-258.8489"/>
<polygon fill="#000000" stroke="#000000" points="249.6089,-255.8986 239.6945,-252.1628 245.1153,-261.2659 249.6089,-255.8986"/>
</g>
<!-- jback&#45;presentation&#45;&gt;jback&#45;security -->
<g id="edge20" class="edge">
<title>jback&#45;presentation&#45;&gt;jback&#45;security</title>
<path fill="none" stroke="#000000" d="M329.9912,-287.8314C342.9216,-278.7927 358.7222,-267.7476 372.6383,-258.0198"/>
<polygon fill="#000000" stroke="#000000" points="374.8263,-260.7608 381.0171,-252.1628 370.8157,-255.0235 374.8263,-260.7608"/>
</g>
<!-- jback&#45;security&#45;spring&#45;&gt;jback&#45;security&#45;entities -->
<g id="edge27" class="edge">
<title>jback&#45;security&#45;spring&#45;&gt;jback&#45;security&#45;entities</title>
<path fill="none" stroke="#000000" d="M534.2875,-287.7623C525.168,-262.9846 508.7846,-218.4714 498.1561,-189.5939"/>
<polygon fill="#000000" stroke="#000000" points="501.3967,-188.2652 494.658,-180.0896 494.8275,-190.6831 501.3967,-188.2652"/>
</g>
<!-- jback&#45;security&#45;spring&#45;&gt;jback&#45;security -->
<g id="edge26" class="edge">
<title>jback&#45;security&#45;spring&#45;&gt;jback&#45;security</title>
<path fill="none" stroke="#000000" d="M507.1861,-287.8314C489.7293,-278.4516 468.2513,-266.9112 449.6648,-256.9244"/>
<polygon fill="#000000" stroke="#000000" points="451.2686,-253.8129 440.803,-252.1628 447.9554,-259.9792 451.2686,-253.8129"/>
</g>
<!-- jback&#45;sec&#45;model -->
<g id="node13" class="node">
<title>jback&#45;sec&#45;model</title>
<polygon fill="none" stroke="#000000" points="490.5,-36 367.5,-36 367.5,0 490.5,0 490.5,-36"/>
<text text-anchor="middle" x="429" y="-14.3" font-family="Helvetica,sans-Serif" font-size="14.00" fill="#000000">jback&#45;sec&#45;model</text>
</g>
<!-- jback&#45;core&#45;entities&#45;&gt;jback&#45;sec&#45;model -->
<g id="edge29" class="edge">
<title>jback&#45;core&#45;entities&#45;&gt;jback&#45;sec&#45;model</title>
<path fill="none" stroke="#000000" d="M393.8601,-71.8314C399.1629,-63.7079 405.5237,-53.9637 411.3673,-45.0118"/>
<polygon fill="#000000" stroke="#000000" points="414.4448,-46.7003 416.9802,-36.4133 408.5831,-42.8739 414.4448,-46.7003"/>
</g>
<!-- jback&#45;jpa&#45;entities&#45;&gt;jback&#45;core&#45;entities -->
<g id="edge11" class="edge">
<title>jback&#45;jpa&#45;entities&#45;&gt;jback&#45;core&#45;entities</title>
<path fill="none" stroke="#000000" d="M613.2628,-215.6841C608.1415,-195.2514 596.9589,-162.6272 575,-144 557.1402,-128.8499 504.6926,-114.7007 458.9733,-104.6893"/>
<polygon fill="#000000" stroke="#000000" points="459.5465,-101.2327 449.0343,-102.5536 458.0758,-108.0764 459.5465,-101.2327"/>
</g>
<!-- jback&#45;jpa&#45;entities&#45;&gt;jback&#45;security&#45;entities -->
<g id="edge12" class="edge">
<title>jback&#45;jpa&#45;entities&#45;&gt;jback&#45;security&#45;entities</title>
<path fill="none" stroke="#000000" d="M584.4479,-215.8314C567.7952,-206.5368 547.3415,-195.1208 529.5615,-185.1971"/>
<polygon fill="#000000" stroke="#000000" points="530.9795,-181.9803 520.5417,-180.1628 527.5679,-188.0927 530.9795,-181.9803"/>
</g>
<!-- jback&#45;security&#45;entities&#45;&gt;jback&#45;core&#45;entities -->
<g id="edge24" class="edge">
<title>jback&#45;security&#45;entities&#45;&gt;jback&#45;core&#45;entities</title>
<path fill="none" stroke="#000000" d="M461.2517,-143.8314C447.9447,-134.7927 431.684,-123.7476 417.3625,-114.0198"/>
<polygon fill="#000000" stroke="#000000" points="418.9785,-110.8864 408.7397,-108.1628 415.0453,-116.677 418.9785,-110.8864"/>
</g>
<!-- jback&#45;security&#45;entities&#45;&gt;jback&#45;sec&#45;model -->
<g id="edge25" class="edge">
<title>jback&#45;security&#45;entities&#45;&gt;jback&#45;sec&#45;model</title>
<path fill="none" stroke="#000000" d="M482.9117,-143.7314C477.5479,-125.3037 468.4388,-96.1966 458,-72 454.0995,-62.9589 449.2299,-53.3987 444.6014,-44.8759"/>
<polygon fill="#000000" stroke="#000000" points="447.6468,-43.1504 439.7309,-36.1085 441.5276,-46.5499 447.6468,-43.1504"/>
</g>
<!-- jback&#45;core&#45;&gt;jback&#45;core&#45;entities -->
<g id="edge28" class="edge">
<title>jback&#45;core&#45;&gt;jback&#45;core&#45;entities</title>
<path fill="none" stroke="#000000" d="M225.6891,-215.7204C234.7792,-195.9267 251.5547,-164.4503 274,-144 288.0552,-131.1941 305.7084,-120.6838 322.6456,-112.45"/>
<polygon fill="#000000" stroke="#000000" points="324.3699,-115.5078 331.9541,-108.1097 321.4118,-109.1635 324.3699,-115.5078"/>
</g>
<!-- jback&#45;security&#45;&gt;jback&#45;core&#45;entities -->
<g id="edge22" class="edge">
<title>jback&#45;security&#45;&gt;jback&#45;core&#45;entities</title>
<path fill="none" stroke="#000000" d="M403.8337,-215.7623C399.5508,-191.0928 391.8715,-146.8598 386.8564,-117.9731"/>
<polygon fill="#000000" stroke="#000000" points="390.2996,-117.3435 385.1406,-108.0896 383.4027,-118.541 390.2996,-117.3435"/>
</g>
<!-- jback&#45;security&#45;&gt;jback&#45;security&#45;entities -->
<g id="edge23" class="edge">
<title>jback&#45;security&#45;&gt;jback&#45;security&#45;entities</title>
<path fill="none" stroke="#000000" d="M427.4397,-215.8314C437.3205,-207.0485 449.3324,-196.3712 460.045,-186.8489"/>
<polygon fill="#000000" stroke="#000000" points="462.418,-189.4224 467.5668,-180.1628 457.7674,-184.1906 462.418,-189.4224"/>
</g>
</g>
</svg>
