<?xml version="1.0" encoding="UTF-8" standalone="no"?>
<!DOCTYPE svg PUBLIC "-//W3C//DTD SVG 1.1//EN"
 "http://www.w3.org/Graphics/SVG/1.1/DTD/svg11.dtd">
<!-- Generated by graphviz version 2.40.1 (20161225.0304)
 -->
<!-- Title: G Pages: 1 -->
<svg width="848pt" height="548pt"
 viewBox="0.00 0.00 848.00 548.00" xmlns="http://www.w3.org/2000/svg" xmlns:xlink="http://www.w3.org/1999/xlink">
<g id="graph0" class="graph" transform="scale(1 1) rotate(0) translate(4 544)">
<title>G</title>
<polygon fill="#ffffff" stroke="transparent" points="-4,4 -4,-544 844,-544 844,4 -4,4"/>
<!-- jback&#45;main -->
<g id="node1" class="node">
<title>jback&#45;main</title>
<polygon fill="none" stroke="#000000" points="476.5,-540 389.5,-540 389.5,-504 476.5,-504 476.5,-540"/>
<text text-anchor="middle" x="433" y="-518.3" font-family="Helvetica,sans-Serif" font-size="14.00" fill="#000000">jback&#45;main</text>
</g>
<!-- jback&#45;api -->
<g id="node2" class="node">
<title>jback&#45;api</title>
<polygon fill="none" stroke="#000000" points="505.5,-468 430.5,-468 430.5,-432 505.5,-432 505.5,-468"/>
<text text-anchor="middle" x="468" y="-446.3" font-family="Helvetica,sans-Serif" font-size="14.00" fill="#000000">jback&#45;api</text>
</g>
<!-- jback&#45;main&#45;&gt;jback&#45;api -->
<g id="edge1" class="edge">
<title>jback&#45;main&#45;&gt;jback&#45;api</title>
<path fill="none" stroke="#000000" d="M441.832,-503.8314C445.6986,-495.8771 450.3206,-486.369 454.5968,-477.5723"/>
<polygon fill="#000000" stroke="#000000" points="457.8249,-478.9371 459.0491,-468.4133 451.5293,-475.8768 457.8249,-478.9371"/>
</g>
<!-- jback&#45;core&#45;spring -->
<g id="node3" class="node">
<title>jback&#45;core&#45;spring</title>
<polygon fill="none" stroke="#000000" points="128,-324 0,-324 0,-288 128,-288 128,-324"/>
<text text-anchor="middle" x="64" y="-302.3" font-family="Helvetica,sans-Serif" font-size="14.00" fill="#000000">jback&#45;core&#45;spring</text>
</g>
<!-- jback&#45;main&#45;&gt;jback&#45;core&#45;spring -->
<g id="edge2" class="edge">
<title>jback&#45;main&#45;&gt;jback&#45;core&#45;spring</title>
<path fill="none" stroke="#000000" d="M389.4623,-516.0071C328.6072,-507.0228 221.8727,-488.8718 189,-468 136.0052,-434.3522 96.6128,-369.968 77.2947,-333.3125"/>
<polygon fill="#000000" stroke="#000000" points="80.289,-331.4821 72.6013,-324.1917 74.0648,-334.685 80.289,-331.4821"/>
</g>
<!-- jback&#45;jpa&#45;entities&#45;spring -->
<g id="node4" class="node">
<title>jback&#45;jpa&#45;entities&#45;spring</title>
<polygon fill="none" stroke="#000000" points="368,-468 198,-468 198,-432 368,-432 368,-468"/>
<text text-anchor="middle" x="283" y="-446.3" font-family="Helvetica,sans-Serif" font-size="14.00" fill="#000000">jback&#45;jpa&#45;entities&#45;spring</text>
</g>
<!-- jback&#45;main&#45;&gt;jback&#45;jpa&#45;entities&#45;spring -->
<g id="edge3" class="edge">
<title>jback&#45;main&#45;&gt;jback&#45;jpa&#45;entities&#45;spring</title>
<path fill="none" stroke="#000000" d="M395.1487,-503.8314C375.2654,-494.2874 350.7218,-482.5065 329.6695,-472.4013"/>
<polygon fill="#000000" stroke="#000000" points="331.109,-469.21 320.5791,-468.038 328.0798,-475.5207 331.109,-469.21"/>
</g>
<!-- jback&#45;jpa&#45;wrapper -->
<g id="node5" class="node">
<title>jback&#45;jpa&#45;wrapper</title>
<polygon fill="none" stroke="#000000" points="442,-396 310,-396 310,-360 442,-360 442,-396"/>
<text text-anchor="middle" x="376" y="-374.3" font-family="Helvetica,sans-Serif" font-size="14.00" fill="#000000">jback&#45;jpa&#45;wrapper</text>
</g>
<!-- jback&#45;main&#45;&gt;jback&#45;jpa&#45;wrapper -->
<g id="edge4" class="edge">
<title>jback&#45;main&#45;&gt;jback&#45;jpa&#45;wrapper</title>
<path fill="none" stroke="#000000" d="M425.7809,-503.7623C415.9731,-478.9846 398.3533,-434.4714 386.9226,-405.5939"/>
<polygon fill="#000000" stroke="#000000" points="390.0953,-404.0995 383.1605,-396.0896 383.5867,-406.6759 390.0953,-404.0995"/>
</g>
<!-- jback&#45;presentation -->
<g id="node6" class="node">
<title>jback&#45;presentation</title>
<polygon fill="none" stroke="#000000" points="634,-396 498,-396 498,-360 634,-360 634,-396"/>
<text text-anchor="middle" x="566" y="-374.3" font-family="Helvetica,sans-Serif" font-size="14.00" fill="#000000">jback&#45;presentation</text>
</g>
<!-- jback&#45;main&#45;&gt;jback&#45;presentation -->
<g id="edge5" class="edge">
<title>jback&#45;main&#45;&gt;jback&#45;presentation</title>
<path fill="none" stroke="#000000" d="M468.0382,-503.9298C483.7021,-494.6674 501.6095,-482.3163 515,-468 532.133,-449.6825 545.7507,-424.566 554.5896,-405.5202"/>
<polygon fill="#000000" stroke="#000000" points="557.8785,-406.7392 558.7695,-396.1819 551.4893,-403.8793 557.8785,-406.7392"/>
</g>
<!-- jback&#45;security&#45;spring -->
<g id="node7" class="node">
<title>jback&#45;security&#45;spring</title>
<polygon fill="none" stroke="#000000" points="840,-396 690,-396 690,-360 840,-360 840,-396"/>
<text text-anchor="middle" x="765" y="-374.3" font-family="Helvetica,sans-Serif" font-size="14.00" fill="#000000">jback&#45;security&#45;spring</text>
</g>
<!-- jback&#45;main&#45;&gt;jback&#45;security&#45;spring -->
<g id="edge6" class="edge">
<title>jback&#45;main&#45;&gt;jback&#45;security&#45;spring</title>
<path fill="none" stroke="#000000" d="M474.7119,-503.9081C535.5484,-477.5212 648.4969,-428.5315 714.1303,-400.064"/>
<polygon fill="#000000" stroke="#000000" points="715.6773,-403.2081 723.4588,-396.0179 712.8918,-396.7861 715.6773,-403.2081"/>
</g>
<!-- jback&#45;api&#45;&gt;jback&#45;presentation -->
<g id="edge15" class="edge">
<title>jback&#45;api&#45;&gt;jback&#45;presentation</title>
<path fill="none" stroke="#000000" d="M492.7295,-431.8314C504.9162,-422.8779 519.7823,-411.9558 532.9312,-402.2955"/>
<polygon fill="#000000" stroke="#000000" points="535.2918,-404.9042 541.2784,-396.1628 531.1473,-399.263 535.2918,-404.9042"/>
</g>
<!-- jback&#45;core&#45;entities -->
<g id="node8" class="node">
<title>jback&#45;core&#45;entities</title>
<polygon fill="none" stroke="#000000" points="428,-180 294,-180 294,-144 428,-144 428,-180"/>
<text text-anchor="middle" x="361" y="-158.3" font-family="Helvetica,sans-Serif" font-size="14.00" fill="#000000">jback&#45;core&#45;entities</text>
</g>
<!-- jback&#45;api&#45;&gt;jback&#45;core&#45;entities -->
<g id="edge14" class="edge">
<title>jback&#45;api&#45;&gt;jback&#45;core&#45;entities</title>
<path fill="none" stroke="#000000" d="M430.3511,-441.9847C387.0038,-432.0623 319.3967,-414.2317 301,-396 244.0292,-339.5402 246.5727,-284.6816 288,-216 295.1371,-204.1675 305.9454,-194.107 317.0739,-185.9922"/>
<polygon fill="#000000" stroke="#000000" points="319.3114,-188.7023 325.5909,-180.1689 315.3605,-182.9238 319.3114,-188.7023"/>
</g>
<!-- jback&#45;security&#45;entities -->
<g id="node10" class="node">
<title>jback&#45;security&#45;entities</title>
<polygon fill="none" stroke="#000000" points="619,-252 463,-252 463,-216 619,-216 619,-252"/>
<text text-anchor="middle" x="541" y="-230.3" font-family="Helvetica,sans-Serif" font-size="14.00" fill="#000000">jback&#45;security&#45;entities</text>
</g>
<!-- jback&#45;api&#45;&gt;jback&#45;security&#45;entities -->
<g id="edge17" class="edge">
<title>jback&#45;api&#45;&gt;jback&#45;security&#45;entities</title>
<path fill="none" stroke="#000000" d="M471.3374,-431.8363C474.9175,-413.4903 481.1609,-384.4454 489,-360 500.1641,-325.1862 516.7915,-286.5031 528.2224,-261.2999"/>
<polygon fill="#000000" stroke="#000000" points="531.4923,-262.5655 532.4748,-252.0163 525.1282,-259.6503 531.4923,-262.5655"/>
</g>
<!-- jback&#45;core -->
<g id="node11" class="node">
<title>jback&#45;core</title>
<polygon fill="none" stroke="#000000" points="201,-252 117,-252 117,-216 201,-216 201,-252"/>
<text text-anchor="middle" x="159" y="-230.3" font-family="Helvetica,sans-Serif" font-size="14.00" fill="#000000">jback&#45;core</text>
</g>
<!-- jback&#45;api&#45;&gt;jback&#45;core -->
<g id="edge13" class="edge">
<title>jback&#45;api&#45;&gt;jback&#45;core</title>
<path fill="none" stroke="#000000" d="M430.3906,-442.4333C414.0019,-439.169 394.5612,-435.3412 377,-432 333.2815,-423.6821 210.6421,-428.2731 180,-396 146.1109,-360.3071 148.5188,-298.5572 153.5855,-262.4827"/>
<polygon fill="#000000" stroke="#000000" points="157.1113,-262.5909 155.206,-252.1688 150.1962,-261.5043 157.1113,-262.5909"/>
</g>
<!-- jback&#45;security -->
<g id="node12" class="node">
<title>jback&#45;security</title>
<polygon fill="none" stroke="#000000" points="738,-324 632,-324 632,-288 738,-288 738,-324"/>
<text text-anchor="middle" x="685" y="-302.3" font-family="Helvetica,sans-Serif" font-size="14.00" fill="#000000">jback&#45;security</text>
</g>
<!-- jback&#45;api&#45;&gt;jback&#45;security -->
<g id="edge16" class="edge">
<title>jback&#45;api&#45;&gt;jback&#45;security</title>
<path fill="none" stroke="#000000" d="M505.7486,-447.1914C544.4014,-442.4738 604.1648,-429.8374 643,-396 661.4877,-379.8915 672.396,-353.9066 678.4407,-333.9891"/>
<polygon fill="#000000" stroke="#000000" points="681.8526,-334.784 681.1727,-324.211 675.1108,-332.9003 681.8526,-334.784"/>
</g>
<!-- jback&#45;core&#45;spring&#45;&gt;jback&#45;core&#45;entities -->
<g id="edge34" class="edge">
<title>jback&#45;core&#45;spring&#45;&gt;jback&#45;core&#45;entities</title>
<path fill="none" stroke="#000000" d="M67.8607,-287.7837C73.2206,-267.1266 84.9742,-233.9881 108,-216 135.0026,-194.9052 219.6983,-179.7728 283.7189,-170.9894"/>
<polygon fill="#000000" stroke="#000000" points="284.3595,-174.4348 293.8043,-169.6343 283.4272,-167.4972 284.3595,-174.4348"/>
</g>
<!-- jback&#45;core&#45;spring&#45;&gt;jback&#45;core -->
<g id="edge33" class="edge">
<title>jback&#45;core&#45;spring&#45;&gt;jback&#45;core</title>
<path fill="none" stroke="#000000" d="M87.9725,-287.8314C99.7861,-278.8779 114.1972,-267.9558 126.9435,-258.2955"/>
<polygon fill="#000000" stroke="#000000" points="129.1795,-260.9925 135.0352,-252.1628 124.9514,-255.4137 129.1795,-260.9925"/>
</g>
<!-- jback&#45;sec&#45;base -->
<g id="node13" class="node">
<title>jback&#45;sec&#45;base</title>
<polygon fill="none" stroke="#000000" points="509,-108 393,-108 393,-72 509,-72 509,-108"/>
<text text-anchor="middle" x="451" y="-86.3" font-family="Helvetica,sans-Serif" font-size="14.00" fill="#000000">jback&#45;sec&#45;base</text>
</g>
<!-- jback&#45;core&#45;spring&#45;&gt;jback&#45;sec&#45;base -->
<g id="edge35" class="edge">
<title>jback&#45;core&#45;spring&#45;&gt;jback&#45;sec&#45;base</title>
<path fill="none" stroke="#000000" d="M62.1946,-287.9398C61.2038,-268.3381 62.5551,-237.0289 78,-216 114.587,-166.1852 285.6315,-123.8711 382.9007,-103.3209"/>
<polygon fill="#000000" stroke="#000000" points="383.8692,-106.6941 392.9412,-101.2215 382.4365,-99.8423 383.8692,-106.6941"/>
</g>
<!-- jback&#45;jpa&#45;entities -->
<g id="node9" class="node">
<title>jback&#45;jpa&#45;entities</title>
<polygon fill="none" stroke="#000000" points="423.5,-324 298.5,-324 298.5,-288 423.5,-288 423.5,-324"/>
<text text-anchor="middle" x="361" y="-302.3" font-family="Helvetica,sans-Serif" font-size="14.00" fill="#000000">jback&#45;jpa&#45;entities</text>
</g>
<!-- jback&#45;jpa&#45;entities&#45;spring&#45;&gt;jback&#45;jpa&#45;entities -->
<g id="edge10" class="edge">
<title>jback&#45;jpa&#45;entities&#45;spring&#45;&gt;jback&#45;jpa&#45;entities</title>
<path fill="none" stroke="#000000" d="M283.3117,-431.9328C284.3638,-412.8853 288.1466,-382.5698 301,-360 307.2851,-348.9638 316.6394,-338.9741 326.1023,-330.673"/>
<polygon fill="#000000" stroke="#000000" points="328.55,-333.19 334.0116,-324.1114 324.0806,-327.8026 328.55,-333.19"/>
</g>
<!-- jback&#45;jpa&#45;wrapper&#45;&gt;jback&#45;core&#45;entities -->
<g id="edge7" class="edge">
<title>jback&#45;jpa&#45;wrapper&#45;&gt;jback&#45;core&#45;entities</title>
<path fill="none" stroke="#000000" d="M329.5246,-359.9715C314.121,-351.5066 298.7009,-339.7373 290,-324 264.2776,-277.476 305.8147,-219.7903 335.4056,-187.3155"/>
<polygon fill="#000000" stroke="#000000" points="337.9675,-189.7002 342.2512,-180.01 332.8596,-184.9138 337.9675,-189.7002"/>
</g>
<!-- jback&#45;jpa&#45;wrapper&#45;&gt;jback&#45;jpa&#45;entities -->
<g id="edge8" class="edge">
<title>jback&#45;jpa&#45;wrapper&#45;&gt;jback&#45;jpa&#45;entities</title>
<path fill="none" stroke="#000000" d="M372.2149,-359.8314C370.6106,-352.131 368.703,-342.9743 366.9201,-334.4166"/>
<polygon fill="#000000" stroke="#000000" points="370.3021,-333.4892 364.8361,-324.4133 363.4493,-334.9169 370.3021,-333.4892"/>
</g>
<!-- jback&#45;jpa&#45;wrapper&#45;&gt;jback&#45;security&#45;entities -->
<g id="edge9" class="edge">
<title>jback&#45;jpa&#45;wrapper&#45;&gt;jback&#45;security&#45;entities</title>
<path fill="none" stroke="#000000" d="M396.8974,-359.7623C426.1563,-334.2272 479.4325,-287.7316 512.365,-258.9906"/>
<polygon fill="#000000" stroke="#000000" points="515.0394,-261.302 520.2723,-252.0896 510.4367,-256.028 515.0394,-261.302"/>
</g>
<!-- jback&#45;presentation&#45;&gt;jback&#45;core&#45;entities -->
<g id="edge19" class="edge">
<title>jback&#45;presentation&#45;&gt;jback&#45;core&#45;entities</title>
<path fill="none" stroke="#000000" d="M548.8744,-359.9555C512.4719,-321.5997 427.3025,-231.8602 385.2999,-187.6038"/>
<polygon fill="#000000" stroke="#000000" points="387.6437,-184.989 378.221,-180.1451 382.5663,-189.8078 387.6437,-184.989"/>
</g>
<!-- jback&#45;presentation&#45;&gt;jback&#45;security&#45;entities -->
<g id="edge22" class="edge">
<title>jback&#45;presentation&#45;&gt;jback&#45;security&#45;entities</title>
<path fill="none" stroke="#000000" d="M562.8337,-359.7623C558.5508,-335.0928 550.8715,-290.8598 545.8564,-261.9731"/>
<polygon fill="#000000" stroke="#000000" points="549.2996,-261.3435 544.1406,-252.0896 542.4027,-262.541 549.2996,-261.3435"/>
</g>
<!-- jback&#45;presentation&#45;&gt;jback&#45;core -->
<g id="edge18" class="edge">
<title>jback&#45;presentation&#45;&gt;jback&#45;core</title>
<path fill="none" stroke="#000000" d="M497.9566,-366.1779C422.535,-352.8384 308.9633,-331.9637 290,-324 251.4332,-307.8038 212.606,-279.23 187.3505,-258.6171"/>
<polygon fill="#000000" stroke="#000000" points="189.5777,-255.9171 179.6451,-252.2301 185.1105,-261.3064 189.5777,-255.9171"/>
</g>
<!-- jback&#45;presentation&#45;&gt;jback&#45;security -->
<g id="edge21" class="edge">
<title>jback&#45;presentation&#45;&gt;jback&#45;security</title>
<path fill="none" stroke="#000000" d="M596.0287,-359.8314C611.2496,-350.6221 629.9128,-339.3301 646.2083,-329.4706"/>
<polygon fill="#000000" stroke="#000000" points="648.2369,-332.3341 654.9809,-324.1628 644.6132,-326.345 648.2369,-332.3341"/>
</g>
<!-- jback&#45;presentation&#45;&gt;jback&#45;sec&#45;base -->
<g id="edge20" class="edge">
<title>jback&#45;presentation&#45;&gt;jback&#45;sec&#45;base</title>
<path fill="none" stroke="#000000" d="M634.3972,-366.3215C679.6806,-357.0361 733.1857,-342.5374 747,-324 756.5606,-311.1706 752.9112,-302.868 747,-288 714.3638,-205.9126 684.5121,-191.4489 610,-144 582.384,-126.4143 548.3984,-113.8657 518.9463,-105.3191"/>
<polygon fill="#000000" stroke="#000000" points="519.7213,-101.9015 509.1478,-102.5726 517.832,-108.6417 519.7213,-101.9015"/>
</g>
<!-- jback&#45;security&#45;spring&#45;&gt;jback&#45;security&#45;entities -->
<g id="edge29" class="edge">
<title>jback&#45;security&#45;spring&#45;&gt;jback&#45;security&#45;entities</title>
<path fill="none" stroke="#000000" d="M698.6062,-359.9427C673.6293,-351.3542 645.7847,-339.5089 623,-324 597.619,-306.7239 574.6418,-280.0791 559.5114,-260.2584"/>
<polygon fill="#000000" stroke="#000000" points="562.3072,-258.1526 553.5232,-252.2288 556.6958,-262.3375 562.3072,-258.1526"/>
</g>
<!-- jback&#45;security&#45;spring&#45;&gt;jback&#45;security -->
<g id="edge28" class="edge">
<title>jback&#45;security&#45;spring&#45;&gt;jback&#45;security</title>
<path fill="none" stroke="#000000" d="M744.8126,-359.8314C735.1486,-351.1337 723.4204,-340.5783 712.9184,-331.1265"/>
<polygon fill="#000000" stroke="#000000" points="714.9553,-328.251 705.1809,-324.1628 710.2725,-333.454 714.9553,-328.251"/>
</g>
<!-- jback&#45;core&#45;entities&#45;&gt;jback&#45;sec&#45;base -->
<g id="edge32" class="edge">
<title>jback&#45;core&#45;entities&#45;&gt;jback&#45;sec&#45;base</title>
<path fill="none" stroke="#000000" d="M383.7108,-143.8314C394.796,-134.9632 408.2954,-124.1637 420.2852,-114.5718"/>
<polygon fill="#000000" stroke="#000000" points="422.6742,-117.1429 428.2965,-108.1628 418.3013,-111.6768 422.6742,-117.1429"/>
</g>
<!-- jback&#45;jpa&#45;entities&#45;&gt;jback&#45;core&#45;entities -->
<g id="edge11" class="edge">
<title>jback&#45;jpa&#45;entities&#45;&gt;jback&#45;core&#45;entities</title>
<path fill="none" stroke="#000000" d="M361,-287.7623C361,-263.201 361,-219.2474 361,-190.3541"/>
<polygon fill="#000000" stroke="#000000" points="364.5001,-190.0896 361,-180.0896 357.5001,-190.0897 364.5001,-190.0896"/>
</g>
<!-- jback&#45;jpa&#45;entities&#45;&gt;jback&#45;security&#45;entities -->
<g id="edge12" class="edge">
<title>jback&#45;jpa&#45;entities&#45;&gt;jback&#45;security&#45;entities</title>
<path fill="none" stroke="#000000" d="M406.4216,-287.8314C430.7095,-278.1162 460.7922,-266.0831 486.352,-255.8592"/>
<polygon fill="#000000" stroke="#000000" points="487.9201,-259.0016 495.905,-252.038 485.3204,-252.5023 487.9201,-259.0016"/>
</g>
<!-- jback&#45;security&#45;entities&#45;&gt;jback&#45;core&#45;entities -->
<g id="edge26" class="edge">
<title>jback&#45;security&#45;entities&#45;&gt;jback&#45;core&#45;entities</title>
<path fill="none" stroke="#000000" d="M495.5784,-215.8314C471.2905,-206.1162 441.2078,-194.0831 415.648,-183.8592"/>
<polygon fill="#000000" stroke="#000000" points="416.6796,-180.5023 406.095,-180.038 414.0799,-187.0016 416.6796,-180.5023"/>
</g>
<!-- jback&#45;security&#45;entities&#45;&gt;jback&#45;sec&#45;base -->
<g id="edge27" class="edge">
<title>jback&#45;security&#45;entities&#45;&gt;jback&#45;sec&#45;base</title>
<path fill="none" stroke="#000000" d="M529.6014,-215.7623C513.9802,-190.7682 485.8077,-145.6924 467.7755,-116.8409"/>
<polygon fill="#000000" stroke="#000000" points="470.574,-114.7146 462.306,-108.0896 464.638,-118.4246 470.574,-114.7146"/>
</g>
<!-- jback&#45;core&#45;&gt;jback&#45;core&#45;entities -->
<g id="edge30" class="edge">
<title>jback&#45;core&#45;&gt;jback&#45;core&#45;entities</title>
<path fill="none" stroke="#000000" d="M201.3458,-218.9064C230.1777,-208.6297 268.7685,-194.8746 300.7865,-183.4622"/>
<polygon fill="#000000" stroke="#000000" points="302.2497,-186.6565 310.4941,-180.0021 299.8994,-180.0628 302.2497,-186.6565"/>
</g>
<!-- jback&#45;core&#45;&gt;jback&#45;sec&#45;base -->
<g id="edge31" class="edge">
<title>jback&#45;core&#45;&gt;jback&#45;sec&#45;base</title>
<path fill="none" stroke="#000000" d="M179.9978,-215.9052C204.009,-195.979 245.1613,-164.1054 285,-144 315.8832,-128.4142 352.2287,-115.9914 383.0254,-107.0096"/>
<polygon fill="#000000" stroke="#000000" points="384.1604,-110.3255 392.8154,-104.2147 382.2387,-103.5944 384.1604,-110.3255"/>
</g>
<!-- jback&#45;security&#45;&gt;jback&#45;core&#45;entities -->
<g id="edge23" class="edge">
<title>jback&#45;security&#45;&gt;jback&#45;core&#45;entities</title>
<path fill="none" stroke="#000000" d="M678.4973,-287.6527C670.1436,-266.8725 653.5938,-233.6185 628,-216 597.7556,-195.1801 505.9685,-179.7498 438.4245,-170.8309"/>
<polygon fill="#000000" stroke="#000000" points="438.5926,-167.3235 428.2257,-169.509 437.6928,-174.2654 438.5926,-167.3235"/>
</g>
<!-- jback&#45;security&#45;&gt;jback&#45;security&#45;entities -->
<g id="edge25" class="edge">
<title>jback&#45;security&#45;&gt;jback&#45;security&#45;entities</title>
<path fill="none" stroke="#000000" d="M648.6627,-287.8314C629.6604,-278.3302 606.2242,-266.6121 586.0748,-256.5374"/>
<polygon fill="#000000" stroke="#000000" points="587.5855,-253.3797 577.076,-252.038 584.455,-259.6407 587.5855,-253.3797"/>
</g>
<!-- jback&#45;security&#45;&gt;jback&#45;sec&#45;base -->
<g id="edge24" class="edge">
<title>jback&#45;security&#45;&gt;jback&#45;sec&#45;base</title>
<path fill="none" stroke="#000000" d="M683.1399,-287.6869C680.3439,-268.1534 673.4907,-237.172 657,-216 618.7999,-166.9558 555.7377,-132.4532 509.4321,-112.1011"/>
<polygon fill="#000000" stroke="#000000" points="510.6833,-108.8293 500.1138,-108.0961 507.9191,-115.2605 510.6833,-108.8293"/>
</g>
<!-- jback&#45;sec&#45;model -->
<g id="node14" class="node">
<title>jback&#45;sec&#45;model</title>
<polygon fill="none" stroke="#000000" points="512.5,-36 389.5,-36 389.5,0 512.5,0 512.5,-36"/>
<text text-anchor="middle" x="451" y="-14.3" font-family="Helvetica,sans-Serif" font-size="14.00" fill="#000000">jback&#45;sec&#45;model</text>
</g>
<!-- jback&#45;sec&#45;base&#45;&gt;jback&#45;sec&#45;model -->
<g id="edge36" class="edge">
<title>jback&#45;sec&#45;base&#45;&gt;jback&#45;sec&#45;model</title>
<path fill="none" stroke="#000000" d="M451,-71.8314C451,-64.131 451,-54.9743 451,-46.4166"/>
<polygon fill="#000000" stroke="#000000" points="454.5001,-46.4132 451,-36.4133 447.5001,-46.4133 454.5001,-46.4132"/>
</g>
</g>
</svg>
