<?xml version="1.0" encoding="UTF-8" standalone="no"?>
<!DOCTYPE svg PUBLIC "-//W3C//DTD SVG 1.1//EN"
 "http://www.w3.org/Graphics/SVG/1.1/DTD/svg11.dtd">
<!-- Generated by graphviz version 2.40.1 (20161225.0304)
 -->
<!-- Title: G Pages: 1 -->
<svg width="966pt" height="548pt"
 viewBox="0.00 0.00 966.17 548.00" xmlns="http://www.w3.org/2000/svg" xmlns:xlink="http://www.w3.org/1999/xlink">
<g id="graph0" class="graph" transform="scale(1 1) rotate(0) translate(4 544)">
<title>G</title>
<polygon fill="#ffffff" stroke="transparent" points="-4,4 -4,-544 962.1729,-544 962.1729,4 -4,4"/>
<!-- jback&#45;main -->
<g id="node1" class="node">
<title>jback&#45;main</title>
<polygon fill="none" stroke="#000000" points="583.0296,-540 496.0296,-540 496.0296,-504 583.0296,-504 583.0296,-540"/>
<text text-anchor="middle" x="539.5296" y="-518.3" font-family="Helvetica,sans-Serif" font-size="14.00" fill="#000000">jback&#45;main</text>
</g>
<!-- jback&#45;api -->
<g id="node2" class="node">
<title>jback&#45;api</title>
<polygon fill="none" stroke="#000000" points="416.0296,-468 341.0296,-468 341.0296,-432 416.0296,-432 416.0296,-468"/>
<text text-anchor="middle" x="378.5296" y="-446.3" font-family="Helvetica,sans-Serif" font-size="14.00" fill="#000000">jback&#45;api</text>
</g>
<!-- jback&#45;main&#45;&gt;jback&#45;api -->
<g id="edge1" class="edge">
<title>jback&#45;main&#45;&gt;jback&#45;api</title>
<path fill="none" stroke="#000000" d="M498.9025,-503.8314C476.551,-493.8356 448.7127,-481.3862 425.439,-470.9781"/>
<polygon fill="#000000" stroke="#000000" points="426.6631,-467.6915 416.1055,-466.8041 423.8054,-474.0817 426.6631,-467.6915"/>
</g>
<!-- jback&#45;core&#45;spring -->
<g id="node3" class="node">
<title>jback&#45;core&#45;spring</title>
<polygon fill="none" stroke="#000000" points="160.5296,-324 32.5296,-324 32.5296,-288 160.5296,-288 160.5296,-324"/>
<text text-anchor="middle" x="96.5296" y="-302.3" font-family="Helvetica,sans-Serif" font-size="14.00" fill="#000000">jback&#45;core&#45;spring</text>
</g>
<!-- jback&#45;main&#45;&gt;jback&#45;core&#45;spring -->
<g id="edge2" class="edge">
<title>jback&#45;main&#45;&gt;jback&#45;core&#45;spring</title>
<path fill="none" stroke="#000000" d="M495.9284,-518.9116C418.7254,-511.2311 256.9569,-484.8899 159.5296,-396 139.672,-377.8825 122.5843,-352.4355 111.2354,-333.2206"/>
<polygon fill="#000000" stroke="#000000" points="114.1544,-331.2753 106.1381,-324.3479 108.0847,-334.7624 114.1544,-331.2753"/>
</g>
<!-- jback&#45;jpa&#45;entities&#45;spring -->
<g id="node4" class="node">
<title>jback&#45;jpa&#45;entities&#45;spring</title>
<polygon fill="none" stroke="#000000" points="728.5296,-396 558.5296,-396 558.5296,-360 728.5296,-360 728.5296,-396"/>
<text text-anchor="middle" x="643.5296" y="-374.3" font-family="Helvetica,sans-Serif" font-size="14.00" fill="#000000">jback&#45;jpa&#45;entities&#45;spring</text>
</g>
<!-- jback&#45;main&#45;&gt;jback&#45;jpa&#45;entities&#45;spring -->
<g id="edge3" class="edge">
<title>jback&#45;main&#45;&gt;jback&#45;jpa&#45;entities&#45;spring</title>
<path fill="none" stroke="#000000" d="M583.1869,-515.0068C610.7411,-508.0904 644.2809,-494.4975 661.5296,-468 673.7257,-449.2643 667.1479,-424.0335 658.7106,-405.0537"/>
<polygon fill="#000000" stroke="#000000" points="661.8548,-403.5158 654.3566,-396.0306 655.5504,-406.558 661.8548,-403.5158"/>
</g>
<!-- jback&#45;jpa&#45;wrapper -->
<g id="node5" class="node">
<title>jback&#45;jpa&#45;wrapper</title>
<polygon fill="none" stroke="#000000" points="652.5296,-468 520.5296,-468 520.5296,-432 652.5296,-432 652.5296,-468"/>
<text text-anchor="middle" x="586.5296" y="-446.3" font-family="Helvetica,sans-Serif" font-size="14.00" fill="#000000">jback&#45;jpa&#45;wrapper</text>
</g>
<!-- jback&#45;main&#45;&gt;jback&#45;jpa&#45;wrapper -->
<g id="edge4" class="edge">
<title>jback&#45;main&#45;&gt;jback&#45;jpa&#45;wrapper</title>
<path fill="none" stroke="#000000" d="M551.3897,-503.8314C556.6925,-495.7079 563.0533,-485.9637 568.8969,-477.0118"/>
<polygon fill="#000000" stroke="#000000" points="571.9744,-478.7003 574.5098,-468.4133 566.1127,-474.8739 571.9744,-478.7003"/>
</g>
<!-- jback&#45;presentation -->
<g id="node6" class="node">
<title>jback&#45;presentation</title>
<polygon fill="none" stroke="#000000" points="312.5296,-396 176.5296,-396 176.5296,-360 312.5296,-360 312.5296,-396"/>
<text text-anchor="middle" x="244.5296" y="-374.3" font-family="Helvetica,sans-Serif" font-size="14.00" fill="#000000">jback&#45;presentation</text>
</g>
<!-- jback&#45;main&#45;&gt;jback&#45;presentation -->
<g id="edge5" class="edge">
<title>jback&#45;main&#45;&gt;jback&#45;presentation</title>
<path fill="none" stroke="#000000" d="M495.8804,-517.6608C451.876,-511.7406 383.2493,-498.1769 331.5296,-468 303.8138,-451.8287 279.127,-424.371 263.1955,-404.0264"/>
<polygon fill="#000000" stroke="#000000" points="265.9731,-401.8967 257.124,-396.0705 260.4083,-406.1434 265.9731,-401.8967"/>
</g>
<!-- jback&#45;security -->
<g id="node7" class="node">
<title>jback&#45;security</title>
<polygon fill="none" stroke="#000000" points="512.5296,-324 406.5296,-324 406.5296,-288 512.5296,-288 512.5296,-324"/>
<text text-anchor="middle" x="459.5296" y="-302.3" font-family="Helvetica,sans-Serif" font-size="14.00" fill="#000000">jback&#45;security</text>
</g>
<!-- jback&#45;main&#45;&gt;jback&#45;security -->
<g id="edge6" class="edge">
<title>jback&#45;main&#45;&gt;jback&#45;security</title>
<path fill="none" stroke="#000000" d="M529.1577,-503.8705C523.5063,-493.5575 516.6434,-480.2841 511.5296,-468 492.4763,-422.2315 476.0552,-366.8441 467.0045,-334.1227"/>
<polygon fill="#000000" stroke="#000000" points="470.3426,-333.0603 464.3309,-324.3362 463.5901,-334.9051 470.3426,-333.0603"/>
</g>
<!-- jback&#45;security&#45;entities -->
<g id="node8" class="node">
<title>jback&#45;security&#45;entities</title>
<polygon fill="none" stroke="#000000" points="676.5296,-252 520.5296,-252 520.5296,-216 676.5296,-216 676.5296,-252"/>
<text text-anchor="middle" x="598.5296" y="-230.3" font-family="Helvetica,sans-Serif" font-size="14.00" fill="#000000">jback&#45;security&#45;entities</text>
</g>
<!-- jback&#45;main&#45;&gt;jback&#45;security&#45;entities -->
<g id="edge7" class="edge">
<title>jback&#45;main&#45;&gt;jback&#45;security&#45;entities</title>
<path fill="none" stroke="#000000" d="M583.2708,-515.0543C678.7453,-498.8984 900.7075,-455.5883 943.5296,-396 1013.5779,-298.5256 811.1274,-257.8496 687.1891,-242.4205"/>
<polygon fill="#000000" stroke="#000000" points="687.2786,-238.9058 676.9304,-241.1784 686.4372,-245.8551 687.2786,-238.9058"/>
</g>
<!-- jback&#45;security&#45;spring -->
<g id="node9" class="node">
<title>jback&#45;security&#45;spring</title>
<polygon fill="none" stroke="#000000" points="934.5296,-396 784.5296,-396 784.5296,-360 934.5296,-360 934.5296,-396"/>
<text text-anchor="middle" x="859.5296" y="-374.3" font-family="Helvetica,sans-Serif" font-size="14.00" fill="#000000">jback&#45;security&#45;spring</text>
</g>
<!-- jback&#45;main&#45;&gt;jback&#45;security&#45;spring -->
<g id="edge8" class="edge">
<title>jback&#45;main&#45;&gt;jback&#45;security&#45;spring</title>
<path fill="none" stroke="#000000" d="M583.1469,-506.2174C610.7461,-495.9457 647.0337,-481.914 678.5296,-468 726.4146,-446.8458 779.9505,-419.7865 816.2932,-400.8864"/>
<polygon fill="#000000" stroke="#000000" points="818.362,-403.7547 825.6079,-396.025 815.1233,-397.549 818.362,-403.7547"/>
</g>
<!-- jback&#45;api&#45;&gt;jback&#45;presentation -->
<g id="edge18" class="edge">
<title>jback&#45;api&#45;&gt;jback&#45;presentation</title>
<path fill="none" stroke="#000000" d="M344.7157,-431.8314C327.2589,-422.4516 305.7809,-410.9112 287.1944,-400.9244"/>
<polygon fill="#000000" stroke="#000000" points="288.7982,-397.8129 278.3326,-396.1628 285.485,-403.9792 288.7982,-397.8129"/>
</g>
<!-- jback&#45;api&#45;&gt;jback&#45;security -->
<g id="edge19" class="edge">
<title>jback&#45;api&#45;&gt;jback&#45;security</title>
<path fill="none" stroke="#000000" d="M388.7883,-431.7623C402.8475,-406.7682 428.2026,-361.6924 444.4316,-332.8409"/>
<polygon fill="#000000" stroke="#000000" points="447.502,-334.5213 449.3542,-324.0896 441.401,-331.0895 447.502,-334.5213"/>
</g>
<!-- jback&#45;api&#45;&gt;jback&#45;security&#45;entities -->
<g id="edge20" class="edge">
<title>jback&#45;api&#45;&gt;jback&#45;security&#45;entities</title>
<path fill="none" stroke="#000000" d="M400.9561,-431.9165C429.8734,-408.2291 481.2322,-364.889 521.5296,-324 541.682,-303.5517 562.7558,-278.6381 577.7518,-260.2118"/>
<polygon fill="#000000" stroke="#000000" points="580.6287,-262.2203 584.1891,-252.2416 575.183,-257.822 580.6287,-262.2203"/>
</g>
<!-- jback&#45;core&#45;entities -->
<g id="node10" class="node">
<title>jback&#45;core&#45;entities</title>
<polygon fill="none" stroke="#000000" points="369.5296,-180 235.5296,-180 235.5296,-144 369.5296,-144 369.5296,-180"/>
<text text-anchor="middle" x="302.5296" y="-158.3" font-family="Helvetica,sans-Serif" font-size="14.00" fill="#000000">jback&#45;core&#45;entities</text>
</g>
<!-- jback&#45;api&#45;&gt;jback&#45;core&#45;entities -->
<g id="edge17" class="edge">
<title>jback&#45;api&#45;&gt;jback&#45;core&#45;entities</title>
<path fill="none" stroke="#000000" d="M373.7755,-431.9843C360.8999,-383.1929 325.2868,-248.2377 309.8374,-189.6927"/>
<polygon fill="#000000" stroke="#000000" points="313.2177,-188.7848 307.2819,-180.0089 306.4494,-190.571 313.2177,-188.7848"/>
</g>
<!-- jback&#45;core -->
<g id="node12" class="node">
<title>jback&#45;core</title>
<polygon fill="none" stroke="#000000" points="236.5296,-252 152.5296,-252 152.5296,-216 236.5296,-216 236.5296,-252"/>
<text text-anchor="middle" x="194.5296" y="-230.3" font-family="Helvetica,sans-Serif" font-size="14.00" fill="#000000">jback&#45;core</text>
</g>
<!-- jback&#45;api&#45;&gt;jback&#45;core -->
<g id="edge16" class="edge">
<title>jback&#45;api&#45;&gt;jback&#45;core</title>
<path fill="none" stroke="#000000" d="M340.6677,-445.8288C285.838,-438.92 188.572,-423.1059 167.5296,-396 157.7181,-383.3613 165.844,-375.911 167.5296,-360 171.1547,-325.782 180.1702,-287.1981 186.7902,-261.8464"/>
<polygon fill="#000000" stroke="#000000" points="190.1765,-262.7314 189.3697,-252.1673 183.4125,-260.9287 190.1765,-262.7314"/>
</g>
<!-- jback&#45;core&#45;spring&#45;&gt;jback&#45;core&#45;entities -->
<g id="edge37" class="edge">
<title>jback&#45;core&#45;spring&#45;&gt;jback&#45;core&#45;entities</title>
<path fill="none" stroke="#000000" d="M101.5164,-287.8752C107.9858,-267.6178 121.1758,-235.1541 143.5296,-216 166.5997,-196.2321 197.2357,-183.6099 225.4547,-175.5914"/>
<polygon fill="#000000" stroke="#000000" points="226.5685,-178.9164 235.3189,-172.943 224.7534,-172.1558 226.5685,-178.9164"/>
</g>
<!-- jback&#45;core&#45;spring&#45;&gt;jback&#45;core -->
<g id="edge36" class="edge">
<title>jback&#45;core&#45;spring&#45;&gt;jback&#45;core</title>
<path fill="none" stroke="#000000" d="M121.2591,-287.8314C133.4457,-278.8779 148.3119,-267.9558 161.4607,-258.2955"/>
<polygon fill="#000000" stroke="#000000" points="163.8214,-260.9042 169.808,-252.1628 159.6768,-255.263 163.8214,-260.9042"/>
</g>
<!-- jback&#45;sec&#45;base -->
<g id="node13" class="node">
<title>jback&#45;sec&#45;base</title>
<polygon fill="none" stroke="#000000" points="312.5296,-108 196.5296,-108 196.5296,-72 312.5296,-72 312.5296,-108"/>
<text text-anchor="middle" x="254.5296" y="-86.3" font-family="Helvetica,sans-Serif" font-size="14.00" fill="#000000">jback&#45;sec&#45;base</text>
</g>
<!-- jback&#45;core&#45;spring&#45;&gt;jback&#45;sec&#45;base -->
<g id="edge38" class="edge">
<title>jback&#45;core&#45;spring&#45;&gt;jback&#45;sec&#45;base</title>
<path fill="none" stroke="#000000" d="M96.5838,-287.9324C97.3769,-268.8845 100.7837,-238.5686 113.5296,-216 138.13,-172.4409 183.4026,-136.0945 216.0209,-113.808"/>
<polygon fill="#000000" stroke="#000000" points="218.0742,-116.6453 224.4385,-108.175 214.1811,-110.8278 218.0742,-116.6453"/>
</g>
<!-- jback&#45;jpa&#45;entities -->
<g id="node11" class="node">
<title>jback&#45;jpa&#45;entities</title>
<polygon fill="none" stroke="#000000" points="694.0296,-324 569.0296,-324 569.0296,-288 694.0296,-288 694.0296,-324"/>
<text text-anchor="middle" x="631.5296" y="-302.3" font-family="Helvetica,sans-Serif" font-size="14.00" fill="#000000">jback&#45;jpa&#45;entities</text>
</g>
<!-- jback&#45;jpa&#45;entities&#45;spring&#45;&gt;jback&#45;jpa&#45;entities -->
<g id="edge13" class="edge">
<title>jback&#45;jpa&#45;entities&#45;spring&#45;&gt;jback&#45;jpa&#45;entities</title>
<path fill="none" stroke="#000000" d="M640.5015,-359.8314C639.2181,-352.131 637.692,-342.9743 636.2657,-334.4166"/>
<polygon fill="#000000" stroke="#000000" points="639.6949,-333.7018 634.5985,-324.4133 632.7902,-334.8526 639.6949,-333.7018"/>
</g>
<!-- jback&#45;jpa&#45;wrapper&#45;&gt;jback&#45;jpa&#45;entities&#45;spring -->
<g id="edge11" class="edge">
<title>jback&#45;jpa&#45;wrapper&#45;&gt;jback&#45;jpa&#45;entities&#45;spring</title>
<path fill="none" stroke="#000000" stroke-dasharray="5,2" d="M600.9131,-431.8314C607.4782,-423.5386 615.3803,-413.557 622.5874,-404.4533"/>
<polygon fill="#000000" stroke="#000000" points="625.4895,-406.4262 628.9524,-396.4133 620.0012,-402.0813 625.4895,-406.4262"/>
</g>
<!-- jback&#45;jpa&#45;wrapper&#45;&gt;jback&#45;security&#45;entities -->
<g id="edge12" class="edge">
<title>jback&#45;jpa&#45;wrapper&#45;&gt;jback&#45;security&#45;entities</title>
<path fill="none" stroke="#000000" d="M652.6864,-434.3848C688.332,-424.4888 727.1081,-410.7948 737.5296,-396 766.5091,-354.8596 738.5059,-324.1801 703.5296,-288 691.0241,-275.0641 674.7506,-264.6507 658.763,-256.5507"/>
<polygon fill="#000000" stroke="#000000" points="659.9416,-253.2336 649.4134,-252.0473 656.9039,-259.5402 659.9416,-253.2336"/>
</g>
<!-- jback&#45;jpa&#45;wrapper&#45;&gt;jback&#45;core&#45;entities -->
<g id="edge9" class="edge">
<title>jback&#45;jpa&#45;wrapper&#45;&gt;jback&#45;core&#45;entities</title>
<path fill="none" stroke="#000000" d="M549.4557,-431.9582C508.4399,-410.5964 442.246,-371.8109 397.5296,-324 359.7233,-283.5773 363.7404,-263.6178 335.5296,-216 330.2926,-207.1603 324.4781,-197.573 319.207,-188.9639"/>
<polygon fill="#000000" stroke="#000000" points="322.1741,-187.1073 313.9575,-180.4187 316.2097,-190.7714 322.1741,-187.1073"/>
</g>
<!-- jback&#45;jpa&#45;wrapper&#45;&gt;jback&#45;jpa&#45;entities -->
<g id="edge10" class="edge">
<title>jback&#45;jpa&#45;wrapper&#45;&gt;jback&#45;jpa&#45;entities</title>
<path fill="none" stroke="#000000" d="M569.6952,-431.909C554.5884,-413.3684 536.6278,-383.9445 549.5296,-360 556.2312,-347.5626 567.1887,-337.5183 578.9438,-329.6213"/>
<polygon fill="#000000" stroke="#000000" points="580.9474,-332.497 587.5949,-324.247 577.2536,-326.551 580.9474,-332.497"/>
</g>
<!-- jback&#45;presentation&#45;&gt;jback&#45;security -->
<g id="edge24" class="edge">
<title>jback&#45;presentation&#45;&gt;jback&#45;security</title>
<path fill="none" stroke="#000000" d="M298.5057,-359.9243C328.2497,-349.9635 365.3334,-337.5448 396.4132,-327.1366"/>
<polygon fill="#000000" stroke="#000000" points="397.9052,-330.3281 406.2762,-323.8337 395.6823,-323.6904 397.9052,-330.3281"/>
</g>
<!-- jback&#45;presentation&#45;&gt;jback&#45;security&#45;entities -->
<g id="edge25" class="edge">
<title>jback&#45;presentation&#45;&gt;jback&#45;security&#45;entities</title>
<path fill="none" stroke="#000000" d="M270.2051,-359.9668C299.7235,-339.9459 350.2113,-307.8438 397.5296,-288 433.3179,-272.9915 474.4557,-261.0716 510.1552,-252.2904"/>
<polygon fill="#000000" stroke="#000000" points="511.1715,-255.6457 520.0711,-249.8969 509.529,-248.8411 511.1715,-255.6457"/>
</g>
<!-- jback&#45;presentation&#45;&gt;jback&#45;core&#45;entities -->
<g id="edge22" class="edge">
<title>jback&#45;presentation&#45;&gt;jback&#45;core&#45;entities</title>
<path fill="none" stroke="#000000" d="M249.3749,-359.9555C259.5035,-322.235 282.9764,-234.8188 295.0541,-189.8399"/>
<polygon fill="#000000" stroke="#000000" points="298.4442,-190.7106 297.6573,-180.1451 291.6837,-188.8953 298.4442,-190.7106"/>
</g>
<!-- jback&#45;presentation&#45;&gt;jback&#45;core -->
<g id="edge21" class="edge">
<title>jback&#45;presentation&#45;&gt;jback&#45;core</title>
<path fill="none" stroke="#000000" d="M238.1971,-359.7623C229.5937,-334.9846 214.1377,-290.4714 204.1108,-261.5939"/>
<polygon fill="#000000" stroke="#000000" points="207.3973,-260.3883 200.8107,-252.0896 200.7845,-262.6844 207.3973,-260.3883"/>
</g>
<!-- jback&#45;presentation&#45;&gt;jback&#45;sec&#45;base -->
<g id="edge23" class="edge">
<title>jback&#45;presentation&#45;&gt;jback&#45;sec&#45;base</title>
<path fill="none" stroke="#000000" d="M176.4596,-370.5446C118.7173,-362.6514 42.3402,-347.9602 23.5296,-324 -32.3147,-252.8676 15.9789,-240.354 138.5296,-144 154.8878,-131.1386 174.8061,-120.4593 193.489,-112.0873"/>
<polygon fill="#000000" stroke="#000000" points="195.044,-115.228 202.8295,-108.0421 192.2621,-108.8045 195.044,-115.228"/>
</g>
<!-- jback&#45;security&#45;&gt;jback&#45;security&#45;entities -->
<g id="edge28" class="edge">
<title>jback&#45;security&#45;&gt;jback&#45;security&#45;entities</title>
<path fill="none" stroke="#000000" d="M494.6052,-287.8314C512.7957,-278.4089 535.1954,-266.8062 554.5356,-256.7883"/>
<polygon fill="#000000" stroke="#000000" points="556.1956,-259.8701 563.4652,-252.1628 552.9759,-253.6545 556.1956,-259.8701"/>
</g>
<!-- jback&#45;security&#45;&gt;jback&#45;core&#45;entities -->
<g id="edge26" class="edge">
<title>jback&#45;security&#45;&gt;jback&#45;core&#45;entities</title>
<path fill="none" stroke="#000000" d="M448.9665,-287.7899C437.0499,-268.3444 416.2144,-237.4378 392.5296,-216 379.5519,-204.2536 363.6411,-193.7191 348.8258,-185.1409"/>
<polygon fill="#000000" stroke="#000000" points="350.2116,-181.905 339.7788,-180.0593 346.7835,-188.0082 350.2116,-181.905"/>
</g>
<!-- jback&#45;security&#45;&gt;jback&#45;sec&#45;base -->
<g id="edge27" class="edge">
<title>jback&#45;security&#45;&gt;jback&#45;sec&#45;base</title>
<path fill="none" stroke="#000000" d="M455.3429,-287.8619C446.7378,-254.5787 423.9402,-183.5464 378.5296,-144 362.3234,-129.8866 341.8559,-118.9626 322.2454,-110.7514"/>
<polygon fill="#000000" stroke="#000000" points="323.2944,-107.4014 312.7098,-106.9363 320.6941,-113.9006 323.2944,-107.4014"/>
</g>
<!-- jback&#45;security&#45;entities&#45;&gt;jback&#45;core&#45;entities -->
<g id="edge29" class="edge">
<title>jback&#45;security&#45;entities&#45;&gt;jback&#45;core&#45;entities</title>
<path fill="none" stroke="#000000" d="M524.2184,-215.9243C480.117,-205.1969 424.2957,-191.6188 379.701,-180.7714"/>
<polygon fill="#000000" stroke="#000000" points="380.3294,-177.3223 369.7855,-178.3595 378.6749,-184.124 380.3294,-177.3223"/>
</g>
<!-- jback&#45;security&#45;entities&#45;&gt;jback&#45;sec&#45;base -->
<g id="edge30" class="edge">
<title>jback&#45;security&#45;entities&#45;&gt;jback&#45;sec&#45;base</title>
<path fill="none" stroke="#000000" d="M577.4514,-215.8042C552.8724,-195.4817 510.2677,-162.9584 468.5296,-144 421.9227,-122.83 365.6812,-109.0495 322.5532,-100.7112"/>
<polygon fill="#000000" stroke="#000000" points="323.1993,-97.2714 312.7243,-98.8608 321.9041,-104.1505 323.1993,-97.2714"/>
</g>
<!-- jback&#45;security&#45;spring&#45;&gt;jback&#45;security -->
<g id="edge31" class="edge">
<title>jback&#45;security&#45;spring&#45;&gt;jback&#45;security</title>
<path fill="none" stroke="#000000" d="M784.2927,-364.4574C708.7974,-350.8682 593.8123,-330.1709 522.8458,-317.3969"/>
<polygon fill="#000000" stroke="#000000" points="523.1665,-313.8985 512.7046,-315.5715 521.9264,-320.7878 523.1665,-313.8985"/>
</g>
<!-- jback&#45;security&#45;spring&#45;&gt;jback&#45;security&#45;entities -->
<g id="edge32" class="edge">
<title>jback&#45;security&#45;spring&#45;&gt;jback&#45;security&#45;entities</title>
<path fill="none" stroke="#000000" d="M846.0988,-359.8578C830.1891,-339.5845 801.8613,-307.1062 770.5296,-288 745.0725,-272.4762 714.7427,-261.0281 686.6923,-252.7721"/>
<polygon fill="#000000" stroke="#000000" points="687.4533,-249.3498 676.8774,-249.9835 685.5401,-256.0833 687.4533,-249.3498"/>
</g>
<!-- jback&#45;core&#45;entities&#45;&gt;jback&#45;sec&#45;base -->
<g id="edge35" class="edge">
<title>jback&#45;core&#45;entities&#45;&gt;jback&#45;sec&#45;base</title>
<path fill="none" stroke="#000000" d="M290.4172,-143.8314C285.0015,-135.7079 278.5054,-125.9637 272.5375,-117.0118"/>
<polygon fill="#000000" stroke="#000000" points="275.2643,-114.7923 266.8051,-108.4133 269.44,-118.6753 275.2643,-114.7923"/>
</g>
<!-- jback&#45;jpa&#45;entities&#45;&gt;jback&#45;security&#45;entities -->
<g id="edge15" class="edge">
<title>jback&#45;jpa&#45;entities&#45;&gt;jback&#45;security&#45;entities</title>
<path fill="none" stroke="#000000" d="M623.2023,-287.8314C619.5566,-279.8771 615.1987,-270.369 611.1669,-261.5723"/>
<polygon fill="#000000" stroke="#000000" points="614.3173,-260.0456 606.969,-252.4133 607.9539,-262.9622 614.3173,-260.0456"/>
</g>
<!-- jback&#45;jpa&#45;entities&#45;&gt;jback&#45;core&#45;entities -->
<g id="edge14" class="edge">
<title>jback&#45;jpa&#45;entities&#45;&gt;jback&#45;core&#45;entities</title>
<path fill="none" stroke="#000000" d="M590.1946,-287.9081C529.9078,-261.5212 417.9799,-212.5315 352.9396,-184.064"/>
<polygon fill="#000000" stroke="#000000" points="354.2598,-180.8213 343.6954,-180.0179 351.453,-187.2339 354.2598,-180.8213"/>
</g>
<!-- jback&#45;core&#45;&gt;jback&#45;core&#45;entities -->
<g id="edge33" class="edge">
<title>jback&#45;core&#45;&gt;jback&#45;core&#45;entities</title>
<path fill="none" stroke="#000000" d="M221.7826,-215.8314C235.4685,-206.7074 252.221,-195.539 266.9123,-185.7449"/>
<polygon fill="#000000" stroke="#000000" points="268.9063,-188.6221 275.2854,-180.1628 265.0234,-182.7977 268.9063,-188.6221"/>
</g>
<!-- jback&#45;core&#45;&gt;jback&#45;sec&#45;base -->
<g id="edge34" class="edge">
<title>jback&#45;core&#45;&gt;jback&#45;sec&#45;base</title>
<path fill="none" stroke="#000000" d="M200.1928,-215.7895C206.0976,-197.407 215.9536,-168.3343 226.5296,-144 230.3831,-135.1335 235.0612,-125.7028 239.4814,-117.2453"/>
<polygon fill="#000000" stroke="#000000" points="242.6916,-118.6634 244.3046,-108.192 236.5136,-115.372 242.6916,-118.6634"/>
</g>
<!-- jback&#45;sec&#45;model -->
<g id="node14" class="node">
<title>jback&#45;sec&#45;model</title>
<polygon fill="none" stroke="#000000" points="316.0296,-36 193.0296,-36 193.0296,0 316.0296,0 316.0296,-36"/>
<text text-anchor="middle" x="254.5296" y="-14.3" font-family="Helvetica,sans-Serif" font-size="14.00" fill="#000000">jback&#45;sec&#45;model</text>
</g>
<!-- jback&#45;sec&#45;base&#45;&gt;jback&#45;sec&#45;model -->
<g id="edge39" class="edge">
<title>jback&#45;sec&#45;base&#45;&gt;jback&#45;sec&#45;model</title>
<path fill="none" stroke="#000000" d="M254.5296,-71.8314C254.5296,-64.131 254.5296,-54.9743 254.5296,-46.4166"/>
<polygon fill="#000000" stroke="#000000" points="258.0297,-46.4132 254.5296,-36.4133 251.0297,-46.4133 258.0297,-46.4132"/>
</g>
</g>
</svg>
