<?xml version="1.0" encoding="UTF-8" standalone="no"?>
<!DOCTYPE svg PUBLIC "-//W3C//DTD SVG 1.1//EN"
 "http://www.w3.org/Graphics/SVG/1.1/DTD/svg11.dtd">
<!-- Generated by graphviz version 2.40.1 (20161225.0304)
 -->
<!-- Title: G Pages: 1 -->
<svg width="823pt" height="548pt"
 viewBox="0.00 0.00 823.14 548.00" xmlns="http://www.w3.org/2000/svg" xmlns:xlink="http://www.w3.org/1999/xlink">
<g id="graph0" class="graph" transform="scale(1 1) rotate(0) translate(4 544)">
<title>G</title>
<polygon fill="#ffffff" stroke="transparent" points="-4,4 -4,-544 819.1412,-544 819.1412,4 -4,4"/>
<!-- jback&#45;main -->
<g id="node1" class="node">
<title>jback&#45;main</title>
<polygon fill="none" stroke="#000000" points="477.6412,-540 390.6412,-540 390.6412,-504 477.6412,-504 477.6412,-540"/>
<text text-anchor="middle" x="434.1412" y="-518.3" font-family="Helvetica,sans-Serif" font-size="14.00" fill="#000000">jback&#45;main</text>
</g>
<!-- jback&#45;api -->
<g id="node2" class="node">
<title>jback&#45;api</title>
<polygon fill="none" stroke="#000000" points="471.6412,-468 396.6412,-468 396.6412,-432 471.6412,-432 471.6412,-468"/>
<text text-anchor="middle" x="434.1412" y="-446.3" font-family="Helvetica,sans-Serif" font-size="14.00" fill="#000000">jback&#45;api</text>
</g>
<!-- jback&#45;main&#45;&gt;jback&#45;api -->
<g id="edge1" class="edge">
<title>jback&#45;main&#45;&gt;jback&#45;api</title>
<path fill="none" stroke="#000000" d="M434.1412,-503.8314C434.1412,-496.131 434.1412,-486.9743 434.1412,-478.4166"/>
<polygon fill="#000000" stroke="#000000" points="437.6413,-478.4132 434.1412,-468.4133 430.6413,-478.4133 437.6413,-478.4132"/>
</g>
<!-- jback&#45;core&#45;spring -->
<g id="node3" class="node">
<title>jback&#45;core&#45;spring</title>
<polygon fill="none" stroke="#000000" points="143.1412,-324 15.1412,-324 15.1412,-288 143.1412,-288 143.1412,-324"/>
<text text-anchor="middle" x="79.1412" y="-302.3" font-family="Helvetica,sans-Serif" font-size="14.00" fill="#000000">jback&#45;core&#45;spring</text>
</g>
<!-- jback&#45;main&#45;&gt;jback&#45;core&#45;spring -->
<g id="edge2" class="edge">
<title>jback&#45;main&#45;&gt;jback&#45;core&#45;spring</title>
<path fill="none" stroke="#000000" d="M390.6373,-507.0255C335.8253,-486.9251 240.2117,-447.6837 169.1412,-396 143.3816,-377.2671 118.0976,-351.0971 100.9201,-331.8037"/>
<polygon fill="#000000" stroke="#000000" points="103.5271,-329.468 94.3017,-324.2581 98.2646,-334.0839 103.5271,-329.468"/>
</g>
<!-- jback&#45;jpa -->
<g id="node4" class="node">
<title>jback&#45;jpa</title>
<polygon fill="none" stroke="#000000" points="786.6412,-324 711.6412,-324 711.6412,-288 786.6412,-288 786.6412,-324"/>
<text text-anchor="middle" x="749.1412" y="-302.3" font-family="Helvetica,sans-Serif" font-size="14.00" fill="#000000">jback&#45;jpa</text>
</g>
<!-- jback&#45;main&#45;&gt;jback&#45;jpa -->
<g id="edge3" class="edge">
<title>jback&#45;main&#45;&gt;jback&#45;jpa</title>
<path fill="none" stroke="#000000" d="M477.8159,-518.3327C543.9837,-511.9233 665.3112,-496.5629 697.1412,-468 735.3944,-433.6732 745.6699,-371.1695 748.3278,-334.6499"/>
<polygon fill="#000000" stroke="#000000" points="751.8482,-334.3956 748.9307,-324.2104 744.8599,-333.992 751.8482,-334.3956"/>
</g>
<!-- jback&#45;presentation -->
<g id="node5" class="node">
<title>jback&#45;presentation</title>
<polygon fill="none" stroke="#000000" points="335.1412,-396 199.1412,-396 199.1412,-360 335.1412,-360 335.1412,-396"/>
<text text-anchor="middle" x="267.1412" y="-374.3" font-family="Helvetica,sans-Serif" font-size="14.00" fill="#000000">jback&#45;presentation</text>
</g>
<!-- jback&#45;main&#45;&gt;jback&#45;presentation -->
<g id="edge4" class="edge">
<title>jback&#45;main&#45;&gt;jback&#45;presentation</title>
<path fill="none" stroke="#000000" d="M401.2603,-503.9007C384.8825,-494.2071 365.2019,-481.4982 349.1412,-468 326.165,-448.6897 303.4505,-423.1135 287.7755,-404.1625"/>
<polygon fill="#000000" stroke="#000000" points="290.3344,-401.7624 281.301,-396.2263 284.9104,-406.1874 290.3344,-401.7624"/>
</g>
<!-- jback&#45;security -->
<g id="node6" class="node">
<title>jback&#45;security</title>
<polygon fill="none" stroke="#000000" points="419.1412,-324 313.1412,-324 313.1412,-288 419.1412,-288 419.1412,-324"/>
<text text-anchor="middle" x="366.1412" y="-302.3" font-family="Helvetica,sans-Serif" font-size="14.00" fill="#000000">jback&#45;security</text>
</g>
<!-- jback&#45;main&#45;&gt;jback&#45;security -->
<g id="edge5" class="edge">
<title>jback&#45;main&#45;&gt;jback&#45;security</title>
<path fill="none" stroke="#000000" d="M413.6195,-503.9891C403.9669,-494.318 393.2575,-481.6026 387.1412,-468 367.549,-424.4272 364.6483,-368.0516 364.9556,-334.59"/>
<polygon fill="#000000" stroke="#000000" points="368.4631,-334.2401 365.1633,-324.1723 361.4645,-334.1005 368.4631,-334.2401"/>
</g>
<!-- jback&#45;security&#45;entities -->
<g id="node7" class="node">
<title>jback&#45;security&#45;entities</title>
<polygon fill="none" stroke="#000000" points="628.1412,-252 472.1412,-252 472.1412,-216 628.1412,-216 628.1412,-252"/>
<text text-anchor="middle" x="550.1412" y="-230.3" font-family="Helvetica,sans-Serif" font-size="14.00" fill="#000000">jback&#45;security&#45;entities</text>
</g>
<!-- jback&#45;main&#45;&gt;jback&#45;security&#45;entities -->
<g id="edge6" class="edge">
<title>jback&#45;main&#45;&gt;jback&#45;security&#45;entities</title>
<path fill="none" stroke="#000000" d="M477.9046,-510.1073C528.5174,-493.7403 609.4437,-458.895 645.1412,-396 658.7819,-371.9666 632.2839,-292.644 629.1412,-288 620.9745,-275.932 609.1302,-265.7945 597.0871,-257.6813"/>
<polygon fill="#000000" stroke="#000000" points="598.6525,-254.5297 588.3324,-252.1327 594.9052,-260.4422 598.6525,-254.5297"/>
</g>
<!-- jback&#45;security&#45;spring -->
<g id="node8" class="node">
<title>jback&#45;security&#45;spring</title>
<polygon fill="none" stroke="#000000" points="617.1412,-396 467.1412,-396 467.1412,-360 617.1412,-360 617.1412,-396"/>
<text text-anchor="middle" x="542.1412" y="-374.3" font-family="Helvetica,sans-Serif" font-size="14.00" fill="#000000">jback&#45;security&#45;spring</text>
</g>
<!-- jback&#45;main&#45;&gt;jback&#45;security&#45;spring -->
<g id="edge7" class="edge">
<title>jback&#45;main&#45;&gt;jback&#45;security&#45;spring</title>
<path fill="none" stroke="#000000" d="M450.3733,-503.8918C459.4051,-493.5855 470.6961,-480.3117 480.1412,-468 496.0211,-447.3007 512.7286,-422.8732 524.7937,-404.6939"/>
<polygon fill="#000000" stroke="#000000" points="527.7357,-406.5901 530.3196,-396.3151 521.8922,-402.7361 527.7357,-406.5901"/>
</g>
<!-- jback&#45;api&#45;&gt;jback&#45;presentation -->
<g id="edge12" class="edge">
<title>jback&#45;api&#45;&gt;jback&#45;presentation</title>
<path fill="none" stroke="#000000" d="M396.2463,-433.6621C373.2065,-423.7287 343.4843,-410.9144 318.3669,-400.0853"/>
<polygon fill="#000000" stroke="#000000" points="319.558,-396.7875 308.9894,-396.0423 316.7866,-403.2155 319.558,-396.7875"/>
</g>
<!-- jback&#45;api&#45;&gt;jback&#45;security -->
<g id="edge13" class="edge">
<title>jback&#45;api&#45;&gt;jback&#45;security</title>
<path fill="none" stroke="#000000" d="M425.529,-431.7623C413.7773,-406.8764 392.6245,-362.0822 378.9934,-333.2165"/>
<polygon fill="#000000" stroke="#000000" points="382.1185,-331.6376 374.6835,-324.0896 375.7888,-334.6267 382.1185,-331.6376"/>
</g>
<!-- jback&#45;api&#45;&gt;jback&#45;security&#45;entities -->
<g id="edge14" class="edge">
<title>jback&#45;api&#45;&gt;jback&#45;security&#45;entities</title>
<path fill="none" stroke="#000000" d="M471.9952,-444.7913C522.4572,-436.9832 607.5844,-420.4959 626.1412,-396 659.0159,-352.6039 611.2667,-292.7061 577.8711,-259.2353"/>
<polygon fill="#000000" stroke="#000000" points="580.1801,-256.5981 570.5813,-252.1132 575.2882,-261.6051 580.1801,-256.5981"/>
</g>
<!-- jback&#45;core&#45;entities -->
<g id="node9" class="node">
<title>jback&#45;core&#45;entities</title>
<polygon fill="none" stroke="#000000" points="462.1412,-180 328.1412,-180 328.1412,-144 462.1412,-144 462.1412,-180"/>
<text text-anchor="middle" x="395.1412" y="-158.3" font-family="Helvetica,sans-Serif" font-size="14.00" fill="#000000">jback&#45;core&#45;entities</text>
</g>
<!-- jback&#45;api&#45;&gt;jback&#45;core&#45;entities -->
<g id="edge11" class="edge">
<title>jback&#45;api&#45;&gt;jback&#45;core&#45;entities</title>
<path fill="none" stroke="#000000" d="M434.7558,-431.9027C435.49,-401.8397 435.7873,-339.787 428.1412,-288 423.0611,-253.5926 412.1731,-215.0468 404.29,-189.7559"/>
<polygon fill="#000000" stroke="#000000" points="407.5873,-188.575 401.2258,-180.1026 400.9154,-190.6929 407.5873,-188.575"/>
</g>
<!-- jback&#45;core -->
<g id="node10" class="node">
<title>jback&#45;core</title>
<polygon fill="none" stroke="#000000" points="224.1412,-252 140.1412,-252 140.1412,-216 224.1412,-216 224.1412,-252"/>
<text text-anchor="middle" x="182.1412" y="-230.3" font-family="Helvetica,sans-Serif" font-size="14.00" fill="#000000">jback&#45;core</text>
</g>
<!-- jback&#45;api&#45;&gt;jback&#45;core -->
<g id="edge10" class="edge">
<title>jback&#45;api&#45;&gt;jback&#45;core</title>
<path fill="none" stroke="#000000" d="M396.2223,-447.1012C334.4429,-441.5224 216.3108,-426.996 190.1412,-396 158.5617,-358.5963 166.1821,-297.2892 174.3261,-261.7903"/>
<polygon fill="#000000" stroke="#000000" points="177.7247,-262.6267 176.716,-252.0799 170.9275,-260.9537 177.7247,-262.6267"/>
</g>
<!-- jback&#45;util -->
<g id="node11" class="node">
<title>jback&#45;util</title>
<polygon fill="none" stroke="#000000" points="515.1412,-36 441.1412,-36 441.1412,0 515.1412,0 515.1412,-36"/>
<text text-anchor="middle" x="478.1412" y="-14.3" font-family="Helvetica,sans-Serif" font-size="14.00" fill="#000000">jback&#45;util</text>
</g>
<!-- jback&#45;api&#45;&gt;jback&#45;util -->
<g id="edge15" class="edge">
<title>jback&#45;api&#45;&gt;jback&#45;util</title>
<path fill="none" stroke="#000000" d="M471.7157,-444.0607C567.8362,-427.8125 815.1412,-378.9224 815.1412,-306 815.1412,-306 815.1412,-306 815.1412,-162 815.1412,-99.678 617.7874,-48.4116 525.1329,-27.777"/>
<polygon fill="#000000" stroke="#000000" points="525.6884,-24.3156 515.1701,-25.5866 524.1853,-31.1523 525.6884,-24.3156"/>
</g>
<!-- jback&#45;core&#45;spring&#45;&gt;jback&#45;core&#45;entities -->
<g id="edge34" class="edge">
<title>jback&#45;core&#45;spring&#45;&gt;jback&#45;core&#45;entities</title>
<path fill="none" stroke="#000000" d="M84.6308,-287.6892C91.8358,-266.9432 106.5436,-233.7214 131.1412,-216 160.5208,-194.8335 250.9035,-179.52 317.7692,-170.7207"/>
<polygon fill="#000000" stroke="#000000" points="318.3997,-174.1684 327.8694,-169.4171 317.5037,-167.226 318.3997,-174.1684"/>
</g>
<!-- jback&#45;core&#45;spring&#45;&gt;jback&#45;core -->
<g id="edge33" class="edge">
<title>jback&#45;core&#45;spring&#45;&gt;jback&#45;core</title>
<path fill="none" stroke="#000000" d="M105.1325,-287.8314C118.0628,-278.7927 133.8634,-267.7476 147.7795,-258.0198"/>
<polygon fill="#000000" stroke="#000000" points="149.9675,-260.7608 156.1583,-252.1628 145.957,-255.0235 149.9675,-260.7608"/>
</g>
<!-- jback&#45;sec&#45;base -->
<g id="node12" class="node">
<title>jback&#45;sec&#45;base</title>
<polygon fill="none" stroke="#000000" points="358.1412,-108 242.1412,-108 242.1412,-72 358.1412,-72 358.1412,-108"/>
<text text-anchor="middle" x="300.1412" y="-86.3" font-family="Helvetica,sans-Serif" font-size="14.00" fill="#000000">jback&#45;sec&#45;base</text>
</g>
<!-- jback&#45;core&#45;spring&#45;&gt;jback&#45;sec&#45;base -->
<g id="edge35" class="edge">
<title>jback&#45;core&#45;spring&#45;&gt;jback&#45;sec&#45;base</title>
<path fill="none" stroke="#000000" d="M78.9213,-287.7977C79.5512,-268.3589 83.1257,-237.4578 98.1412,-216 132.9482,-166.2594 194.3109,-132.1181 240.2983,-112.0502"/>
<polygon fill="#000000" stroke="#000000" points="241.7407,-115.2401 249.5703,-108.1024 238.9984,-108.7996 241.7407,-115.2401"/>
</g>
<!-- jback&#45;jpa&#45;&gt;jback&#45;security&#45;entities -->
<g id="edge9" class="edge">
<title>jback&#45;jpa&#45;&gt;jback&#45;security&#45;entities</title>
<path fill="none" stroke="#000000" d="M711.2424,-292.2879C682.5038,-281.89 642.4617,-267.4024 609.4884,-255.4724"/>
<polygon fill="#000000" stroke="#000000" points="610.5424,-252.1317 599.9481,-252.0206 608.1608,-258.7141 610.5424,-252.1317"/>
</g>
<!-- jback&#45;jpa&#45;&gt;jback&#45;core&#45;entities -->
<g id="edge8" class="edge">
<title>jback&#45;jpa&#45;&gt;jback&#45;core&#45;entities</title>
<path fill="none" stroke="#000000" d="M731.9248,-287.8451C711.3404,-267.2455 674.9082,-234.1611 637.1412,-216 585.1496,-190.9986 521.2719,-177.3748 472.2016,-170.068"/>
<polygon fill="#000000" stroke="#000000" points="472.6747,-166.6001 462.2793,-168.6461 471.6817,-173.5293 472.6747,-166.6001"/>
</g>
<!-- jback&#45;presentation&#45;&gt;jback&#45;security -->
<g id="edge19" class="edge">
<title>jback&#45;presentation&#45;&gt;jback&#45;security</title>
<path fill="none" stroke="#000000" d="M292.1231,-359.8314C304.4341,-350.8779 319.452,-339.9558 332.7349,-330.2955"/>
<polygon fill="#000000" stroke="#000000" points="335.1386,-332.8752 341.1673,-324.1628 331.0213,-327.214 335.1386,-332.8752"/>
</g>
<!-- jback&#45;presentation&#45;&gt;jback&#45;security&#45;entities -->
<g id="edge20" class="edge">
<title>jback&#45;presentation&#45;&gt;jback&#45;security&#45;entities</title>
<path fill="none" stroke="#000000" d="M269.5462,-359.8765C273.2628,-339.3064 282.4048,-306.2496 304.1412,-288 316.5039,-277.6205 396.4575,-261.2477 461.911,-249.2495"/>
<polygon fill="#000000" stroke="#000000" points="462.6538,-252.6719 471.8654,-247.4377 461.4003,-245.785 462.6538,-252.6719"/>
</g>
<!-- jback&#45;presentation&#45;&gt;jback&#45;core&#45;entities -->
<g id="edge17" class="edge">
<title>jback&#45;presentation&#45;&gt;jback&#45;core&#45;entities</title>
<path fill="none" stroke="#000000" d="M265.8862,-359.8646C265.312,-341.0285 266.4863,-311.1323 277.1412,-288 296.313,-246.3772 334.6797,-209.525 362.4718,-186.5937"/>
<polygon fill="#000000" stroke="#000000" points="364.7843,-189.225 370.3643,-180.2186 360.3858,-183.7795 364.7843,-189.225"/>
</g>
<!-- jback&#45;presentation&#45;&gt;jback&#45;core -->
<g id="edge16" class="edge">
<title>jback&#45;presentation&#45;&gt;jback&#45;core</title>
<path fill="none" stroke="#000000" d="M255.2832,-359.6366C248.6512,-349.2504 240.3029,-335.9818 233.1412,-324 220.5871,-302.9963 206.9497,-278.8562 196.9383,-260.8679"/>
<polygon fill="#000000" stroke="#000000" points="199.9701,-259.1179 192.0585,-252.0711 193.8488,-262.5136 199.9701,-259.1179"/>
</g>
<!-- jback&#45;presentation&#45;&gt;jback&#45;sec&#45;base -->
<g id="edge18" class="edge">
<title>jback&#45;presentation&#45;&gt;jback&#45;sec&#45;base</title>
<path fill="none" stroke="#000000" d="M198.8945,-373.4333C129.8644,-367.2243 30.0264,-353.3328 6.1412,-324 -3.9616,-311.593 .6332,-303.022 6.1412,-288 35.0173,-209.2458 58.2578,-190.3934 128.1412,-144 159.2156,-123.3707 198.632,-110.2458 231.8897,-102.1091"/>
<polygon fill="#000000" stroke="#000000" points="233.0592,-105.4299 241.9973,-99.7412 231.4625,-98.6144 233.0592,-105.4299"/>
</g>
<!-- jback&#45;security&#45;&gt;jback&#45;security&#45;entities -->
<g id="edge23" class="edge">
<title>jback&#45;security&#45;&gt;jback&#45;security&#45;entities</title>
<path fill="none" stroke="#000000" d="M412.5722,-287.8314C437.5092,-278.0734 468.4221,-265.977 494.6238,-255.7242"/>
<polygon fill="#000000" stroke="#000000" points="496.0071,-258.9414 504.0441,-252.038 493.4563,-252.4227 496.0071,-258.9414"/>
</g>
<!-- jback&#45;security&#45;&gt;jback&#45;core&#45;entities -->
<g id="edge21" class="edge">
<title>jback&#45;security&#45;&gt;jback&#45;core&#45;entities</title>
<path fill="none" stroke="#000000" d="M369.8141,-287.7623C374.7822,-263.0928 383.6903,-218.8598 389.5078,-189.9731"/>
<polygon fill="#000000" stroke="#000000" points="392.955,-190.5838 391.4982,-180.0896 386.0927,-189.2018 392.955,-190.5838"/>
</g>
<!-- jback&#45;security&#45;&gt;jback&#45;sec&#45;base -->
<g id="edge22" class="edge">
<title>jback&#45;security&#45;&gt;jback&#45;sec&#45;base</title>
<path fill="none" stroke="#000000" d="M358.4241,-287.9244C348.3128,-263.71 330.5323,-219.2378 319.1412,-180 313.2142,-159.5837 308.3135,-136.0633 304.9745,-118.1882"/>
<polygon fill="#000000" stroke="#000000" points="308.3776,-117.3387 303.1477,-108.1246 301.4902,-118.589 308.3776,-117.3387"/>
</g>
<!-- jback&#45;security&#45;entities&#45;&gt;jback&#45;core&#45;entities -->
<g id="edge24" class="edge">
<title>jback&#45;security&#45;entities&#45;&gt;jback&#45;core&#45;entities</title>
<path fill="none" stroke="#000000" d="M511.0282,-215.8314C490.39,-206.2446 464.8929,-194.4008 443.0739,-184.2655"/>
<polygon fill="#000000" stroke="#000000" points="444.5168,-181.0766 433.973,-180.038 441.5678,-187.4251 444.5168,-181.0766"/>
</g>
<!-- jback&#45;security&#45;entities&#45;&gt;jback&#45;util -->
<g id="edge26" class="edge">
<title>jback&#45;security&#45;entities&#45;&gt;jback&#45;util</title>
<path fill="none" stroke="#000000" d="M544.1264,-215.9555C531.5529,-178.235 502.4142,-90.8188 487.4212,-45.8399"/>
<polygon fill="#000000" stroke="#000000" points="490.6723,-44.5251 484.1896,-36.1451 484.0315,-46.7387 490.6723,-44.5251"/>
</g>
<!-- jback&#45;security&#45;entities&#45;&gt;jback&#45;sec&#45;base -->
<g id="edge25" class="edge">
<title>jback&#45;security&#45;entities&#45;&gt;jback&#45;sec&#45;base</title>
<path fill="none" stroke="#000000" d="M538.6787,-215.8096C524.9779,-195.4922 500.2189,-162.9734 471.1412,-144 440.1877,-123.8025 401.1681,-110.7248 368.2204,-102.507"/>
<polygon fill="#000000" stroke="#000000" points="368.7459,-99.034 358.2059,-100.1102 367.1166,-105.8417 368.7459,-99.034"/>
</g>
<!-- jback&#45;security&#45;spring&#45;&gt;jback&#45;security -->
<g id="edge27" class="edge">
<title>jback&#45;security&#45;spring&#45;&gt;jback&#45;security</title>
<path fill="none" stroke="#000000" d="M497.729,-359.8314C473.9808,-350.1162 444.5666,-338.0831 419.5749,-327.8592"/>
<polygon fill="#000000" stroke="#000000" points="420.8148,-324.585 410.2341,-324.038 418.1643,-331.0638 420.8148,-324.585"/>
</g>
<!-- jback&#45;security&#45;spring&#45;&gt;jback&#45;security&#45;entities -->
<g id="edge28" class="edge">
<title>jback&#45;security&#45;spring&#45;&gt;jback&#45;security&#45;entities</title>
<path fill="none" stroke="#000000" d="M543.1544,-359.7623C544.5189,-335.201 546.9608,-291.2474 548.566,-262.3541"/>
<polygon fill="#000000" stroke="#000000" points="552.0761,-262.2684 549.1362,-252.0896 545.0868,-261.88 552.0761,-262.2684"/>
</g>
<!-- jback&#45;core&#45;entities&#45;&gt;jback&#45;util -->
<g id="edge32" class="edge">
<title>jback&#45;core&#45;entities&#45;&gt;jback&#45;util</title>
<path fill="none" stroke="#000000" d="M405.6532,-143.7623C420.0595,-118.7682 446.0408,-73.6924 462.6704,-44.8409"/>
<polygon fill="#000000" stroke="#000000" points="465.7531,-46.5013 467.7146,-36.0896 459.6884,-43.0057 465.7531,-46.5013"/>
</g>
<!-- jback&#45;core&#45;entities&#45;&gt;jback&#45;sec&#45;base -->
<g id="edge31" class="edge">
<title>jback&#45;core&#45;entities&#45;&gt;jback&#45;sec&#45;base</title>
<path fill="none" stroke="#000000" d="M371.1687,-143.8314C359.3552,-134.8779 344.9441,-123.9558 332.1978,-114.2955"/>
<polygon fill="#000000" stroke="#000000" points="334.1899,-111.4137 324.1061,-108.1628 329.9617,-116.9925 334.1899,-111.4137"/>
</g>
<!-- jback&#45;core&#45;&gt;jback&#45;core&#45;entities -->
<g id="edge29" class="edge">
<title>jback&#45;core&#45;&gt;jback&#45;core&#45;entities</title>
<path fill="none" stroke="#000000" d="M224.2232,-219.7751C255.0313,-209.3611 297.3595,-195.053 332.1842,-183.2813"/>
<polygon fill="#000000" stroke="#000000" points="333.4391,-186.5517 341.7917,-180.0336 331.1975,-179.9203 333.4391,-186.5517"/>
</g>
<!-- jback&#45;core&#45;&gt;jback&#45;sec&#45;base -->
<g id="edge30" class="edge">
<title>jback&#45;core&#45;&gt;jback&#45;sec&#45;base</title>
<path fill="none" stroke="#000000" d="M197.086,-215.7623C217.7446,-190.5518 255.1453,-144.9103 278.7577,-116.0952"/>
<polygon fill="#000000" stroke="#000000" points="281.6867,-118.0428 285.3178,-108.0896 276.2723,-113.606 281.6867,-118.0428"/>
</g>
<!-- jback&#45;sec&#45;base&#45;&gt;jback&#45;util -->
<g id="edge37" class="edge">
<title>jback&#45;sec&#45;base&#45;&gt;jback&#45;util</title>
<path fill="none" stroke="#000000" d="M345.0581,-71.8314C371.4751,-61.1458 404.8244,-47.6562 431.5301,-36.854"/>
<polygon fill="#000000" stroke="#000000" points="433.0854,-40.0004 441.0433,-33.0059 430.4605,-33.5112 433.0854,-40.0004"/>
</g>
<!-- jback&#45;sec&#45;model -->
<g id="node13" class="node">
<title>jback&#45;sec&#45;model</title>
<polygon fill="none" stroke="#000000" points="361.6412,-36 238.6412,-36 238.6412,0 361.6412,0 361.6412,-36"/>
<text text-anchor="middle" x="300.1412" y="-14.3" font-family="Helvetica,sans-Serif" font-size="14.00" fill="#000000">jback&#45;sec&#45;model</text>
</g>
<!-- jback&#45;sec&#45;base&#45;&gt;jback&#45;sec&#45;model -->
<g id="edge36" class="edge">
<title>jback&#45;sec&#45;base&#45;&gt;jback&#45;sec&#45;model</title>
<path fill="none" stroke="#000000" d="M300.1412,-71.8314C300.1412,-64.131 300.1412,-54.9743 300.1412,-46.4166"/>
<polygon fill="#000000" stroke="#000000" points="303.6413,-46.4132 300.1412,-36.4133 296.6413,-46.4133 303.6413,-46.4132"/>
</g>
</g>
</svg>
