<?xml version="1.0" encoding="UTF-8" standalone="no"?>
<!DOCTYPE svg PUBLIC "-//W3C//DTD SVG 1.1//EN"
 "http://www.w3.org/Graphics/SVG/1.1/DTD/svg11.dtd">
<!-- Generated by graphviz version 2.40.1 (20161225.0304)
 -->
<!-- Title: G Pages: 1 -->
<svg width="1026pt" height="548pt"
 viewBox="0.00 0.00 1026.00 548.00" xmlns="http://www.w3.org/2000/svg" xmlns:xlink="http://www.w3.org/1999/xlink">
<g id="graph0" class="graph" transform="scale(1 1) rotate(0) translate(4 544)">
<title>G</title>
<polygon fill="#ffffff" stroke="transparent" points="-4,4 -4,-544 1022,-544 1022,4 -4,4"/>
<!-- jback&#45;main -->
<g id="node1" class="node">
<title>jback&#45;main</title>
<polygon fill="none" stroke="#000000" points="556.5,-540 469.5,-540 469.5,-504 556.5,-504 556.5,-540"/>
<text text-anchor="middle" x="513" y="-518.3" font-family="Helvetica,sans-Serif" font-size="14.00" fill="#000000">jback&#45;main</text>
</g>
<!-- jback&#45;api -->
<g id="node2" class="node">
<title>jback&#45;api</title>
<polygon fill="none" stroke="#000000" points="423.5,-468 348.5,-468 348.5,-432 423.5,-432 423.5,-468"/>
<text text-anchor="middle" x="386" y="-446.3" font-family="Helvetica,sans-Serif" font-size="14.00" fill="#000000">jback&#45;api</text>
</g>
<!-- jback&#45;main&#45;&gt;jback&#45;api -->
<g id="edge1" class="edge">
<title>jback&#45;main&#45;&gt;jback&#45;api</title>
<path fill="none" stroke="#000000" d="M480.9525,-503.8314C464.558,-494.5368 444.4214,-483.1208 426.9171,-473.1971"/>
<polygon fill="#000000" stroke="#000000" points="428.4626,-470.05 418.0372,-468.1628 425.0103,-476.1395 428.4626,-470.05"/>
</g>
<!-- jback&#45;core&#45;spring -->
<g id="node3" class="node">
<title>jback&#45;core&#45;spring</title>
<polygon fill="none" stroke="#000000" points="128,-324 0,-324 0,-288 128,-288 128,-324"/>
<text text-anchor="middle" x="64" y="-302.3" font-family="Helvetica,sans-Serif" font-size="14.00" fill="#000000">jback&#45;core&#45;spring</text>
</g>
<!-- jback&#45;main&#45;&gt;jback&#45;core&#45;spring -->
<g id="edge2" class="edge">
<title>jback&#45;main&#45;&gt;jback&#45;core&#45;spring</title>
<path fill="none" stroke="#000000" d="M469.2444,-515.2324C397.3475,-502.3597 252.3025,-468.8598 153,-396 127.5758,-377.3458 102.6895,-351.3256 85.7268,-332.0587"/>
<polygon fill="#000000" stroke="#000000" points="88.1583,-329.5202 78.9637,-324.2561 82.8687,-334.105 88.1583,-329.5202"/>
</g>
<!-- jback&#45;jpa&#45;entities&#45;spring -->
<g id="node4" class="node">
<title>jback&#45;jpa&#45;entities&#45;spring</title>
<polygon fill="none" stroke="#000000" points="1018,-396 848,-396 848,-360 1018,-360 1018,-396"/>
<text text-anchor="middle" x="933" y="-374.3" font-family="Helvetica,sans-Serif" font-size="14.00" fill="#000000">jback&#45;jpa&#45;entities&#45;spring</text>
</g>
<!-- jback&#45;main&#45;&gt;jback&#45;jpa&#45;entities&#45;spring -->
<g id="edge3" class="edge">
<title>jback&#45;main&#45;&gt;jback&#45;jpa&#45;entities&#45;spring</title>
<path fill="none" stroke="#000000" d="M556.6365,-518.9485C637.3353,-512.6911 806.2926,-496.5384 857,-468 883.2367,-453.2338 904.4307,-425.6882 917.7055,-404.9441"/>
<polygon fill="#000000" stroke="#000000" points="920.7999,-406.594 923.0692,-396.245 914.8415,-402.9201 920.7999,-406.594"/>
</g>
<!-- jback&#45;jpa&#45;wrapper -->
<g id="node5" class="node">
<title>jback&#45;jpa&#45;wrapper</title>
<polygon fill="none" stroke="#000000" points="848,-468 716,-468 716,-432 848,-432 848,-468"/>
<text text-anchor="middle" x="782" y="-446.3" font-family="Helvetica,sans-Serif" font-size="14.00" fill="#000000">jback&#45;jpa&#45;wrapper</text>
</g>
<!-- jback&#45;main&#45;&gt;jback&#45;jpa&#45;wrapper -->
<g id="edge4" class="edge">
<title>jback&#45;main&#45;&gt;jback&#45;jpa&#45;wrapper</title>
<path fill="none" stroke="#000000" d="M556.5185,-510.3519C596.8612,-499.5539 657.7625,-483.2532 706.1065,-470.3135"/>
<polygon fill="#000000" stroke="#000000" points="707.1536,-473.6565 715.9086,-467.6899 705.3436,-466.8945 707.1536,-473.6565"/>
</g>
<!-- jback&#45;presentation -->
<g id="node6" class="node">
<title>jback&#45;presentation</title>
<polygon fill="none" stroke="#000000" points="320,-396 184,-396 184,-360 320,-360 320,-396"/>
<text text-anchor="middle" x="252" y="-374.3" font-family="Helvetica,sans-Serif" font-size="14.00" fill="#000000">jback&#45;presentation</text>
</g>
<!-- jback&#45;main&#45;&gt;jback&#45;presentation -->
<g id="edge5" class="edge">
<title>jback&#45;main&#45;&gt;jback&#45;presentation</title>
<path fill="none" stroke="#000000" d="M469.3593,-514.7566C432.5523,-507.2254 379.5417,-492.9475 339,-468 311.9546,-451.3575 287.4385,-424.3909 271.376,-404.3085"/>
<polygon fill="#000000" stroke="#000000" points="273.9386,-401.9033 265.0269,-396.1735 268.4203,-406.2102 273.9386,-401.9033"/>
</g>
<!-- jback&#45;security -->
<g id="node7" class="node">
<title>jback&#45;security</title>
<polygon fill="none" stroke="#000000" points="482,-324 376,-324 376,-288 482,-288 482,-324"/>
<text text-anchor="middle" x="429" y="-302.3" font-family="Helvetica,sans-Serif" font-size="14.00" fill="#000000">jback&#45;security</text>
</g>
<!-- jback&#45;main&#45;&gt;jback&#45;security -->
<g id="edge6" class="edge">
<title>jback&#45;main&#45;&gt;jback&#45;security</title>
<path fill="none" stroke="#000000" d="M505.9827,-503.9555C491.2827,-466.1556 457.1752,-378.4506 439.7164,-333.5564"/>
<polygon fill="#000000" stroke="#000000" points="442.943,-332.1965 436.0564,-324.1451 436.4189,-334.7337 442.943,-332.1965"/>
</g>
<!-- jback&#45;security&#45;entities -->
<g id="node8" class="node">
<title>jback&#45;security&#45;entities</title>
<polygon fill="none" stroke="#000000" points="610,-252 454,-252 454,-216 610,-216 610,-252"/>
<text text-anchor="middle" x="532" y="-230.3" font-family="Helvetica,sans-Serif" font-size="14.00" fill="#000000">jback&#45;security&#45;entities</text>
</g>
<!-- jback&#45;main&#45;&gt;jback&#45;security&#45;entities -->
<g id="edge7" class="edge">
<title>jback&#45;main&#45;&gt;jback&#45;security&#45;entities</title>
<path fill="none" stroke="#000000" d="M544.5808,-503.8129C577.6961,-482.7117 627.8085,-444.5218 649,-396 672.7076,-341.7171 612.7489,-287.7818 570.1798,-257.8761"/>
<polygon fill="#000000" stroke="#000000" points="571.891,-254.806 561.6622,-252.045 567.9367,-260.5821 571.891,-254.806"/>
</g>
<!-- jback&#45;security&#45;spring -->
<g id="node9" class="node">
<title>jback&#45;security&#45;spring</title>
<polygon fill="none" stroke="#000000" points="640,-396 490,-396 490,-360 640,-360 640,-396"/>
<text text-anchor="middle" x="565" y="-374.3" font-family="Helvetica,sans-Serif" font-size="14.00" fill="#000000">jback&#45;security&#45;spring</text>
</g>
<!-- jback&#45;main&#45;&gt;jback&#45;security&#45;spring -->
<g id="edge8" class="edge">
<title>jback&#45;main&#45;&gt;jback&#45;security&#45;spring</title>
<path fill="none" stroke="#000000" d="M519.5858,-503.7623C528.5333,-478.9846 544.6076,-434.4714 555.0355,-405.5939"/>
<polygon fill="#000000" stroke="#000000" points="558.3631,-406.6839 558.4676,-396.0896 551.7792,-404.3064 558.3631,-406.6839"/>
</g>
<!-- jback&#45;api&#45;&gt;jback&#45;presentation -->
<g id="edge18" class="edge">
<title>jback&#45;api&#45;&gt;jback&#45;presentation</title>
<path fill="none" stroke="#000000" d="M352.1861,-431.8314C334.7293,-422.4516 313.2513,-410.9112 294.6648,-400.9244"/>
<polygon fill="#000000" stroke="#000000" points="296.2686,-397.8129 285.803,-396.1628 292.9554,-403.9792 296.2686,-397.8129"/>
</g>
<!-- jback&#45;api&#45;&gt;jback&#45;security -->
<g id="edge19" class="edge">
<title>jback&#45;api&#45;&gt;jback&#45;security</title>
<path fill="none" stroke="#000000" d="M390.3736,-431.9531C394.9003,-413.6978 402.3671,-384.7221 410,-360 412.6263,-351.4936 415.741,-342.3284 418.6808,-334.0071"/>
<polygon fill="#000000" stroke="#000000" points="422.0534,-334.9709 422.1353,-324.3763 415.4644,-332.6074 422.0534,-334.9709"/>
</g>
<!-- jback&#45;api&#45;&gt;jback&#45;security&#45;entities -->
<g id="edge20" class="edge">
<title>jback&#45;api&#45;&gt;jback&#45;security&#45;entities</title>
<path fill="none" stroke="#000000" d="M404.0781,-431.5987C426.4985,-408.0912 464.9385,-365.4671 491,-324 503.4113,-304.252 514.1955,-280.1201 521.5846,-261.8174"/>
<polygon fill="#000000" stroke="#000000" points="524.9196,-262.9008 525.3291,-252.3139 518.4069,-260.3346 524.9196,-262.9008"/>
</g>
<!-- jback&#45;core&#45;entities -->
<g id="node10" class="node">
<title>jback&#45;core&#45;entities</title>
<polygon fill="none" stroke="#000000" points="498,-180 364,-180 364,-144 498,-144 498,-180"/>
<text text-anchor="middle" x="431" y="-158.3" font-family="Helvetica,sans-Serif" font-size="14.00" fill="#000000">jback&#45;core&#45;entities</text>
</g>
<!-- jback&#45;api&#45;&gt;jback&#45;core&#45;entities -->
<g id="edge17" class="edge">
<title>jback&#45;api&#45;&gt;jback&#45;core&#45;entities</title>
<path fill="none" stroke="#000000" d="M379.7644,-431.7764C370.3234,-401.5315 354.7365,-339.2235 367,-288 375.8018,-251.2357 397.1922,-213.083 412.8295,-188.5309"/>
<polygon fill="#000000" stroke="#000000" points="415.7764,-190.4193 418.2963,-180.1285 409.909,-186.6018 415.7764,-190.4193"/>
</g>
<!-- jback&#45;core -->
<g id="node12" class="node">
<title>jback&#45;core</title>
<polygon fill="none" stroke="#000000" points="206,-252 122,-252 122,-216 206,-216 206,-252"/>
<text text-anchor="middle" x="164" y="-230.3" font-family="Helvetica,sans-Serif" font-size="14.00" fill="#000000">jback&#45;core</text>
</g>
<!-- jback&#45;api&#45;&gt;jback&#45;core -->
<g id="edge16" class="edge">
<title>jback&#45;api&#45;&gt;jback&#45;core</title>
<path fill="none" stroke="#000000" d="M348.3684,-445.6436C293.836,-438.4959 196.949,-422.3771 175,-396 143.7892,-358.4925 149.7557,-297.6438 156.8936,-262.1656"/>
<polygon fill="#000000" stroke="#000000" points="160.3942,-262.5398 159.1066,-252.0235 153.5551,-261.0475 160.3942,-262.5398"/>
</g>
<!-- jback&#45;util -->
<g id="node13" class="node">
<title>jback&#45;util</title>
<polygon fill="none" stroke="#000000" points="545,-36 471,-36 471,0 545,0 545,-36"/>
<text text-anchor="middle" x="508" y="-14.3" font-family="Helvetica,sans-Serif" font-size="14.00" fill="#000000">jback&#45;util</text>
</g>
<!-- jback&#45;api&#45;&gt;jback&#45;util -->
<g id="edge21" class="edge">
<title>jback&#45;api&#45;&gt;jback&#45;util</title>
<path fill="none" stroke="#000000" d="M423.589,-447.9434C489.3522,-443.4744 620.9768,-430.3617 649,-396 739.8186,-284.6396 594.5142,-108.9976 533.2195,-43.6269"/>
<polygon fill="#000000" stroke="#000000" points="535.6055,-41.0567 526.1825,-36.2133 530.5284,-45.8758 535.6055,-41.0567"/>
</g>
<!-- jback&#45;core&#45;spring&#45;&gt;jback&#45;core&#45;entities -->
<g id="edge40" class="edge">
<title>jback&#45;core&#45;spring&#45;&gt;jback&#45;core&#45;entities</title>
<path fill="none" stroke="#000000" d="M68.6539,-287.9364C75.0159,-267.1 88.5335,-233.4749 113,-216 150.6366,-189.1185 272.1031,-174.4448 353.5462,-167.4167"/>
<polygon fill="#000000" stroke="#000000" points="354.0956,-170.883 363.7668,-166.5566 353.5085,-163.9076 354.0956,-170.883"/>
</g>
<!-- jback&#45;core&#45;spring&#45;&gt;jback&#45;core -->
<g id="edge39" class="edge">
<title>jback&#45;core&#45;spring&#45;&gt;jback&#45;core</title>
<path fill="none" stroke="#000000" d="M89.2342,-287.8314C101.788,-278.7927 117.1283,-267.7476 130.6391,-258.0198"/>
<polygon fill="#000000" stroke="#000000" points="132.7036,-260.8463 138.7739,-252.1628 128.6134,-255.1655 132.7036,-260.8463"/>
</g>
<!-- jback&#45;sec&#45;base -->
<g id="node14" class="node">
<title>jback&#45;sec&#45;base</title>
<polygon fill="none" stroke="#000000" points="394,-108 278,-108 278,-72 394,-72 394,-108"/>
<text text-anchor="middle" x="336" y="-86.3" font-family="Helvetica,sans-Serif" font-size="14.00" fill="#000000">jback&#45;sec&#45;base</text>
</g>
<!-- jback&#45;core&#45;spring&#45;&gt;jback&#45;sec&#45;base -->
<g id="edge41" class="edge">
<title>jback&#45;core&#45;spring&#45;&gt;jback&#45;sec&#45;base</title>
<path fill="none" stroke="#000000" d="M63.2112,-287.9341C63.2254,-268.612 65.7974,-237.8101 80,-216 121.9939,-151.5128 207.2943,-118.8923 267.8763,-103.2102"/>
<polygon fill="#000000" stroke="#000000" points="268.8973,-106.5629 277.7525,-100.7461 267.2027,-99.7711 268.8973,-106.5629"/>
</g>
<!-- jback&#45;jpa&#45;entities -->
<g id="node11" class="node">
<title>jback&#45;jpa&#45;entities</title>
<polygon fill="none" stroke="#000000" points="935.5,-324 810.5,-324 810.5,-288 935.5,-288 935.5,-324"/>
<text text-anchor="middle" x="873" y="-302.3" font-family="Helvetica,sans-Serif" font-size="14.00" fill="#000000">jback&#45;jpa&#45;entities</text>
</g>
<!-- jback&#45;jpa&#45;entities&#45;spring&#45;&gt;jback&#45;jpa&#45;entities -->
<g id="edge13" class="edge">
<title>jback&#45;jpa&#45;entities&#45;spring&#45;&gt;jback&#45;jpa&#45;entities</title>
<path fill="none" stroke="#000000" d="M917.8595,-359.8314C910.8783,-351.454 902.4609,-341.3531 894.8124,-332.1749"/>
<polygon fill="#000000" stroke="#000000" points="897.4351,-329.8548 888.3444,-324.4133 892.0575,-334.3362 897.4351,-329.8548"/>
</g>
<!-- jback&#45;jpa&#45;wrapper&#45;&gt;jback&#45;jpa&#45;entities&#45;spring -->
<g id="edge11" class="edge">
<title>jback&#45;jpa&#45;wrapper&#45;&gt;jback&#45;jpa&#45;entities&#45;spring</title>
<path fill="none" stroke="#000000" stroke-dasharray="5,2" d="M820.1037,-431.8314C840.1195,-422.2874 864.8267,-410.5065 886.0194,-400.4013"/>
<polygon fill="#000000" stroke="#000000" points="887.6503,-403.5013 895.1703,-396.038 884.6375,-397.1828 887.6503,-403.5013"/>
</g>
<!-- jback&#45;jpa&#45;wrapper&#45;&gt;jback&#45;security&#45;entities -->
<g id="edge12" class="edge">
<title>jback&#45;jpa&#45;wrapper&#45;&gt;jback&#45;security&#45;entities</title>
<path fill="none" stroke="#000000" d="M775.5148,-431.9255C762.7243,-398.7471 731.1497,-327.8806 682,-288 664.0268,-273.4164 641.7899,-262.5984 619.9926,-254.642"/>
<polygon fill="#000000" stroke="#000000" points="620.9547,-251.2711 610.3599,-251.2949 618.6571,-257.8833 620.9547,-251.2711"/>
</g>
<!-- jback&#45;jpa&#45;wrapper&#45;&gt;jback&#45;core&#45;entities -->
<g id="edge9" class="edge">
<title>jback&#45;jpa&#45;wrapper&#45;&gt;jback&#45;core&#45;entities</title>
<path fill="none" stroke="#000000" d="M780.6421,-431.7309C778.7342,-413.0485 774.26,-383.5135 764,-360 748.2135,-323.8211 741.0732,-314.6996 712,-288 689.095,-266.965 676.0904,-271.6663 652,-252 635.1861,-238.2739 637.4554,-227.424 619,-216 585.4809,-195.2515 543.7032,-182.2164 508.0492,-174.1658"/>
<polygon fill="#000000" stroke="#000000" points="508.6816,-170.7216 498.1673,-172.025 507.1995,-177.563 508.6816,-170.7216"/>
</g>
<!-- jback&#45;jpa&#45;wrapper&#45;&gt;jback&#45;jpa&#45;entities -->
<g id="edge10" class="edge">
<title>jback&#45;jpa&#45;wrapper&#45;&gt;jback&#45;jpa&#45;entities</title>
<path fill="none" stroke="#000000" d="M793.5252,-431.7623C809.3201,-406.7682 837.8055,-361.6924 856.0381,-332.8409"/>
<polygon fill="#000000" stroke="#000000" points="859.1849,-334.4129 861.5684,-324.0896 853.2675,-330.6734 859.1849,-334.4129"/>
</g>
<!-- jback&#45;presentation&#45;&gt;jback&#45;security -->
<g id="edge25" class="edge">
<title>jback&#45;presentation&#45;&gt;jback&#45;security</title>
<path fill="none" stroke="#000000" d="M296.6646,-359.8314C320.5477,-350.1162 350.129,-338.0831 375.2628,-327.8592"/>
<polygon fill="#000000" stroke="#000000" points="376.7125,-331.0481 384.6566,-324.038 374.0748,-324.564 376.7125,-331.0481"/>
</g>
<!-- jback&#45;presentation&#45;&gt;jback&#45;security&#45;entities -->
<g id="edge26" class="edge">
<title>jback&#45;presentation&#45;&gt;jback&#45;security&#45;entities</title>
<path fill="none" stroke="#000000" d="M270.8794,-359.7966C292.5388,-339.7731 329.8701,-307.8126 367,-288 392.4597,-274.4147 421.9546,-263.4379 448.9053,-255.0188"/>
<polygon fill="#000000" stroke="#000000" points="450.1613,-258.2951 458.7072,-252.0327 448.1213,-251.5989 450.1613,-258.2951"/>
</g>
<!-- jback&#45;presentation&#45;&gt;jback&#45;core&#45;entities -->
<g id="edge23" class="edge">
<title>jback&#45;presentation&#45;&gt;jback&#45;core&#45;entities</title>
<path fill="none" stroke="#000000" d="M257.2638,-359.8586C267.4282,-327.4995 292.4916,-259.1769 334,-216 345.9467,-203.573 361.3854,-193.2382 376.4178,-185.0503"/>
<polygon fill="#000000" stroke="#000000" points="378.4319,-187.9481 385.6903,-180.2302 375.2032,-181.7371 378.4319,-187.9481"/>
</g>
<!-- jback&#45;presentation&#45;&gt;jback&#45;core -->
<g id="edge22" class="edge">
<title>jback&#45;presentation&#45;&gt;jback&#45;core</title>
<path fill="none" stroke="#000000" d="M240.8547,-359.7623C225.5806,-334.7682 198.0342,-289.6924 180.4028,-260.8409"/>
<polygon fill="#000000" stroke="#000000" points="183.2558,-258.7974 175.0548,-252.0896 177.2828,-262.4475 183.2558,-258.7974"/>
</g>
<!-- jback&#45;presentation&#45;&gt;jback&#45;sec&#45;base -->
<g id="edge24" class="edge">
<title>jback&#45;presentation&#45;&gt;jback&#45;sec&#45;base</title>
<path fill="none" stroke="#000000" d="M254.0983,-359.8828C256.4335,-341.5728 260.7238,-312.5555 267,-288 282.888,-225.8389 309.605,-155.4187 324.709,-117.5762"/>
<polygon fill="#000000" stroke="#000000" points="327.9794,-118.8245 328.464,-108.2408 321.485,-116.2123 327.9794,-118.8245"/>
</g>
<!-- jback&#45;security&#45;&gt;jback&#45;security&#45;entities -->
<g id="edge29" class="edge">
<title>jback&#45;security&#45;&gt;jback&#45;security&#45;entities</title>
<path fill="none" stroke="#000000" d="M454.9912,-287.8314C467.9216,-278.7927 483.7222,-267.7476 497.6383,-258.0198"/>
<polygon fill="#000000" stroke="#000000" points="499.8263,-260.7608 506.0171,-252.1628 495.8157,-255.0235 499.8263,-260.7608"/>
</g>
<!-- jback&#45;security&#45;&gt;jback&#45;core&#45;entities -->
<g id="edge27" class="edge">
<title>jback&#45;security&#45;&gt;jback&#45;core&#45;entities</title>
<path fill="none" stroke="#000000" d="M429.2533,-287.7623C429.5944,-263.201 430.2049,-219.2474 430.6062,-190.3541"/>
<polygon fill="#000000" stroke="#000000" points="434.1094,-190.1373 430.7488,-180.0896 427.1101,-190.04 434.1094,-190.1373"/>
</g>
<!-- jback&#45;security&#45;&gt;jback&#45;sec&#45;base -->
<g id="edge28" class="edge">
<title>jback&#45;security&#45;&gt;jback&#45;sec&#45;base</title>
<path fill="none" stroke="#000000" d="M415.7068,-287.7597C399.0732,-264.079 370.8518,-220.925 355,-180 347.2371,-159.9584 342.3852,-136.1146 339.529,-118.0058"/>
<polygon fill="#000000" stroke="#000000" points="342.987,-117.4636 338.071,-108.0784 336.0613,-118.4808 342.987,-117.4636"/>
</g>
<!-- jback&#45;security&#45;entities&#45;&gt;jback&#45;core&#45;entities -->
<g id="edge30" class="edge">
<title>jback&#45;security&#45;entities&#45;&gt;jback&#45;core&#45;entities</title>
<path fill="none" stroke="#000000" d="M506.5134,-215.8314C493.8341,-206.7927 478.3404,-195.7476 464.6945,-186.0198"/>
<polygon fill="#000000" stroke="#000000" points="466.6529,-183.1176 456.4784,-180.1628 462.5895,-188.8176 466.6529,-183.1176"/>
</g>
<!-- jback&#45;security&#45;entities&#45;&gt;jback&#45;util -->
<g id="edge32" class="edge">
<title>jback&#45;security&#45;entities&#45;&gt;jback&#45;util</title>
<path fill="none" stroke="#000000" d="M532.3985,-215.6802C532.6054,-197.4602 532.42,-168.7318 530,-144 526.6886,-110.1588 519.4675,-71.7216 514.1986,-46.2941"/>
<polygon fill="#000000" stroke="#000000" points="517.5672,-45.3058 512.0771,-36.2444 510.7181,-46.7517 517.5672,-45.3058"/>
</g>
<!-- jback&#45;security&#45;entities&#45;&gt;jback&#45;sec&#45;base -->
<g id="edge31" class="edge">
<title>jback&#45;security&#45;entities&#45;&gt;jback&#45;sec&#45;base</title>
<path fill="none" stroke="#000000" d="M531.8574,-215.9938C530.7192,-195.8452 525.8123,-163.4812 507,-144 492.3345,-128.813 445.212,-114.5612 404.1398,-104.5164"/>
<polygon fill="#000000" stroke="#000000" points="404.9384,-101.1087 394.3982,-102.1833 403.308,-107.9162 404.9384,-101.1087"/>
</g>
<!-- jback&#45;security&#45;spring&#45;&gt;jback&#45;security -->
<g id="edge33" class="edge">
<title>jback&#45;security&#45;spring&#45;&gt;jback&#45;security</title>
<path fill="none" stroke="#000000" d="M530.6815,-359.8314C512.9641,-350.4516 491.1655,-338.9112 472.3016,-328.9244"/>
<polygon fill="#000000" stroke="#000000" points="473.7831,-325.7485 463.3076,-324.1628 470.5078,-331.935 473.7831,-325.7485"/>
</g>
<!-- jback&#45;security&#45;spring&#45;&gt;jback&#45;security&#45;entities -->
<g id="edge34" class="edge">
<title>jback&#45;security&#45;spring&#45;&gt;jback&#45;security&#45;entities</title>
<path fill="none" stroke="#000000" d="M560.8205,-359.7623C555.1671,-335.0928 545.0304,-290.8598 538.4105,-261.9731"/>
<polygon fill="#000000" stroke="#000000" points="541.7909,-261.0551 536.1455,-252.0896 534.9678,-262.6188 541.7909,-261.0551"/>
</g>
<!-- jback&#45;core&#45;entities&#45;&gt;jback&#45;util -->
<g id="edge38" class="edge">
<title>jback&#45;core&#45;entities&#45;&gt;jback&#45;util</title>
<path fill="none" stroke="#000000" d="M440.7521,-143.7623C454.0591,-118.8764 478.0116,-74.0822 493.4467,-45.2165"/>
<polygon fill="#000000" stroke="#000000" points="496.6981,-46.5585 498.3271,-36.0896 490.5252,-43.2577 496.6981,-46.5585"/>
</g>
<!-- jback&#45;core&#45;entities&#45;&gt;jback&#45;sec&#45;base -->
<g id="edge37" class="edge">
<title>jback&#45;core&#45;entities&#45;&gt;jback&#45;sec&#45;base</title>
<path fill="none" stroke="#000000" d="M407.0275,-143.8314C395.2139,-134.8779 380.8028,-123.9558 368.0565,-114.2955"/>
<polygon fill="#000000" stroke="#000000" points="370.0486,-111.4137 359.9648,-108.1628 365.8205,-116.9925 370.0486,-111.4137"/>
</g>
<!-- jback&#45;jpa&#45;entities&#45;&gt;jback&#45;security&#45;entities -->
<g id="edge15" class="edge">
<title>jback&#45;jpa&#45;entities&#45;&gt;jback&#45;security&#45;entities</title>
<path fill="none" stroke="#000000" d="M810.4553,-292.7941C756.9991,-281.5071 679.4916,-265.1419 619.8154,-252.5417"/>
<polygon fill="#000000" stroke="#000000" points="620.5292,-249.1153 610.0218,-250.4738 619.083,-255.9643 620.5292,-249.1153"/>
</g>
<!-- jback&#45;jpa&#45;entities&#45;&gt;jback&#45;core&#45;entities -->
<g id="edge14" class="edge">
<title>jback&#45;jpa&#45;entities&#45;&gt;jback&#45;core&#45;entities</title>
<path fill="none" stroke="#000000" d="M833.729,-287.9516C790.0405,-268.3602 717.0305,-237.06 652,-216 604.9389,-200.7593 551.0291,-187.5062 508.236,-177.9438"/>
<polygon fill="#000000" stroke="#000000" points="508.9669,-174.521 498.4468,-175.7772 507.4542,-181.3556 508.9669,-174.521"/>
</g>
<!-- jback&#45;core&#45;&gt;jback&#45;core&#45;entities -->
<g id="edge35" class="edge">
<title>jback&#45;core&#45;&gt;jback&#45;core&#45;entities</title>
<path fill="none" stroke="#000000" d="M206.0125,-222.6708C245.65,-211.982 306.0202,-195.7024 354.2491,-182.6969"/>
<polygon fill="#000000" stroke="#000000" points="355.2897,-186.0414 364.0335,-180.0584 353.4671,-179.2828 355.2897,-186.0414"/>
</g>
<!-- jback&#45;core&#45;&gt;jback&#45;sec&#45;base -->
<g id="edge36" class="edge">
<title>jback&#45;core&#45;&gt;jback&#45;sec&#45;base</title>
<path fill="none" stroke="#000000" d="M171.4188,-215.9612C180.3754,-196.0853 197.1332,-164.2565 220,-144 234.8679,-130.8294 253.5009,-120.2715 271.4552,-112.1079"/>
<polygon fill="#000000" stroke="#000000" points="272.9881,-115.2579 280.7588,-108.056 270.193,-108.8401 272.9881,-115.2579"/>
</g>
<!-- jback&#45;sec&#45;base&#45;&gt;jback&#45;util -->
<g id="edge43" class="edge">
<title>jback&#45;sec&#45;base&#45;&gt;jback&#45;util</title>
<path fill="none" stroke="#000000" d="M379.4029,-71.8314C404.3762,-61.3774 435.761,-48.2396 461.2734,-37.56"/>
<polygon fill="#000000" stroke="#000000" points="462.8652,-40.688 470.7382,-33.598 460.1622,-34.2309 462.8652,-40.688"/>
</g>
<!-- jback&#45;sec&#45;model -->
<g id="node15" class="node">
<title>jback&#45;sec&#45;model</title>
<polygon fill="none" stroke="#000000" points="397.5,-36 274.5,-36 274.5,0 397.5,0 397.5,-36"/>
<text text-anchor="middle" x="336" y="-14.3" font-family="Helvetica,sans-Serif" font-size="14.00" fill="#000000">jback&#45;sec&#45;model</text>
</g>
<!-- jback&#45;sec&#45;base&#45;&gt;jback&#45;sec&#45;model -->
<g id="edge42" class="edge">
<title>jback&#45;sec&#45;base&#45;&gt;jback&#45;sec&#45;model</title>
<path fill="none" stroke="#000000" d="M336,-71.8314C336,-64.131 336,-54.9743 336,-46.4166"/>
<polygon fill="#000000" stroke="#000000" points="339.5001,-46.4132 336,-36.4133 332.5001,-46.4133 339.5001,-46.4132"/>
</g>
</g>
</svg>
