<?xml version="1.0" encoding="UTF-8" standalone="no"?>
<!DOCTYPE svg PUBLIC "-//W3C//DTD SVG 1.1//EN"
 "http://www.w3.org/Graphics/SVG/1.1/DTD/svg11.dtd">
<!-- Generated by graphviz version 2.40.1 (20161225.0304)
 -->
<!-- Title: G Pages: 1 -->
<svg width="1006pt" height="548pt"
 viewBox="0.00 0.00 1006.00 548.00" xmlns="http://www.w3.org/2000/svg" xmlns:xlink="http://www.w3.org/1999/xlink">
<g id="graph0" class="graph" transform="scale(1 1) rotate(0) translate(4 544)">
<title>G</title>
<polygon fill="#ffffff" stroke="transparent" points="-4,4 -4,-544 1002,-544 1002,4 -4,4"/>
<!-- jback&#45;main -->
<g id="node1" class="node">
<title>jback&#45;main</title>
<polygon fill="none" stroke="#000000" points="522.5,-540 435.5,-540 435.5,-504 522.5,-504 522.5,-540"/>
<text text-anchor="middle" x="479" y="-518.3" font-family="Helvetica,sans-Serif" font-size="14.00" fill="#000000">jback&#45;main</text>
</g>
<!-- jback&#45;api -->
<g id="node2" class="node">
<title>jback&#45;api</title>
<polygon fill="none" stroke="#000000" points="765.5,-468 690.5,-468 690.5,-432 765.5,-432 765.5,-468"/>
<text text-anchor="middle" x="728" y="-446.3" font-family="Helvetica,sans-Serif" font-size="14.00" fill="#000000">jback&#45;api</text>
</g>
<!-- jback&#45;main&#45;&gt;jback&#45;api -->
<g id="edge1" class="edge">
<title>jback&#45;main&#45;&gt;jback&#45;api</title>
<path fill="none" stroke="#000000" d="M522.6574,-509.3762C566.8378,-496.6011 634.947,-476.9069 680.4671,-463.7445"/>
<polygon fill="#000000" stroke="#000000" points="681.4698,-467.098 690.104,-460.9579 679.5253,-460.3735 681.4698,-467.098"/>
</g>
<!-- jback&#45;core&#45;spring -->
<g id="node3" class="node">
<title>jback&#45;core&#45;spring</title>
<polygon fill="none" stroke="#000000" points="998,-324 870,-324 870,-288 998,-288 998,-324"/>
<text text-anchor="middle" x="934" y="-302.3" font-family="Helvetica,sans-Serif" font-size="14.00" fill="#000000">jback&#45;core&#45;spring</text>
</g>
<!-- jback&#45;main&#45;&gt;jback&#45;core&#45;spring -->
<g id="edge2" class="edge">
<title>jback&#45;main&#45;&gt;jback&#45;core&#45;spring</title>
<path fill="none" stroke="#000000" d="M522.7594,-516.8982C593.7047,-508.1453 730.2986,-489.1533 774,-468 837.9038,-437.0678 890.8936,-369.8016 916.8298,-332.4077"/>
<polygon fill="#000000" stroke="#000000" points="919.8028,-334.2601 922.5377,-324.0243 914.0166,-330.3205 919.8028,-334.2601"/>
</g>
<!-- jback&#45;jpa&#45;entities&#45;spring -->
<g id="node4" class="node">
<title>jback&#45;jpa&#45;entities&#45;spring</title>
<polygon fill="none" stroke="#000000" points="264,-396 94,-396 94,-360 264,-360 264,-396"/>
<text text-anchor="middle" x="179" y="-374.3" font-family="Helvetica,sans-Serif" font-size="14.00" fill="#000000">jback&#45;jpa&#45;entities&#45;spring</text>
</g>
<!-- jback&#45;main&#45;&gt;jback&#45;jpa&#45;entities&#45;spring -->
<g id="edge3" class="edge">
<title>jback&#45;main&#45;&gt;jback&#45;jpa&#45;entities&#45;spring</title>
<path fill="none" stroke="#000000" d="M441.3086,-503.9081C386.6358,-477.6652 285.3864,-429.0655 225.9413,-400.5318"/>
<polygon fill="#000000" stroke="#000000" points="227.303,-397.3032 216.7732,-396.1311 224.2739,-403.6138 227.303,-397.3032"/>
</g>
<!-- jback&#45;jpa&#45;wrapper -->
<g id="node5" class="node">
<title>jback&#45;jpa&#45;wrapper</title>
<polygon fill="none" stroke="#000000" points="132,-468 0,-468 0,-432 132,-432 132,-468"/>
<text text-anchor="middle" x="66" y="-446.3" font-family="Helvetica,sans-Serif" font-size="14.00" fill="#000000">jback&#45;jpa&#45;wrapper</text>
</g>
<!-- jback&#45;main&#45;&gt;jback&#45;jpa&#45;wrapper -->
<g id="edge4" class="edge">
<title>jback&#45;main&#45;&gt;jback&#45;jpa&#45;wrapper</title>
<path fill="none" stroke="#000000" d="M435.1928,-514.3629C365.4004,-502.1957 228.0851,-478.257 142.0114,-463.2514"/>
<polygon fill="#000000" stroke="#000000" points="142.4883,-459.7818 132.0358,-461.5123 141.2861,-466.6778 142.4883,-459.7818"/>
</g>
<!-- jback&#45;presentation -->
<g id="node6" class="node">
<title>jback&#45;presentation</title>
<polygon fill="none" stroke="#000000" points="700,-396 564,-396 564,-360 700,-360 700,-396"/>
<text text-anchor="middle" x="632" y="-374.3" font-family="Helvetica,sans-Serif" font-size="14.00" fill="#000000">jback&#45;presentation</text>
</g>
<!-- jback&#45;main&#45;&gt;jback&#45;presentation -->
<g id="edge5" class="edge">
<title>jback&#45;main&#45;&gt;jback&#45;presentation</title>
<path fill="none" stroke="#000000" d="M498.3776,-503.7623C525.5085,-478.2272 574.9102,-431.7316 605.4475,-402.9906"/>
<polygon fill="#000000" stroke="#000000" points="607.8965,-405.492 612.7798,-396.0896 603.099,-400.3946 607.8965,-405.492"/>
</g>
<!-- jback&#45;security -->
<g id="node7" class="node">
<title>jback&#45;security</title>
<polygon fill="none" stroke="#000000" points="548,-324 442,-324 442,-288 548,-288 548,-324"/>
<text text-anchor="middle" x="495" y="-302.3" font-family="Helvetica,sans-Serif" font-size="14.00" fill="#000000">jback&#45;security</text>
</g>
<!-- jback&#45;main&#45;&gt;jback&#45;security -->
<g id="edge6" class="edge">
<title>jback&#45;main&#45;&gt;jback&#45;security</title>
<path fill="none" stroke="#000000" d="M480.3366,-503.9555C483.1249,-466.3144 489.5788,-379.1867 492.9167,-334.1246"/>
<polygon fill="#000000" stroke="#000000" points="496.4075,-334.3763 493.6559,-324.1451 489.4267,-333.8592 496.4075,-334.3763"/>
</g>
<!-- jback&#45;security&#45;entities -->
<g id="node8" class="node">
<title>jback&#45;security&#45;entities</title>
<polygon fill="none" stroke="#000000" points="510,-252 354,-252 354,-216 510,-216 510,-252"/>
<text text-anchor="middle" x="432" y="-230.3" font-family="Helvetica,sans-Serif" font-size="14.00" fill="#000000">jback&#45;security&#45;entities</text>
</g>
<!-- jback&#45;main&#45;&gt;jback&#45;security&#45;entities -->
<g id="edge7" class="edge">
<title>jback&#45;main&#45;&gt;jback&#45;security&#45;entities</title>
<path fill="none" stroke="#000000" d="M474.7313,-503.8619C463.4284,-455.805 433.5465,-328.544 433,-324 430.5161,-303.3468 430.3451,-279.8359 430.7533,-262.0245"/>
<polygon fill="#000000" stroke="#000000" points="434.2523,-262.106 431.057,-252.0045 427.2555,-261.8938 434.2523,-262.106"/>
</g>
<!-- jback&#45;security&#45;spring -->
<g id="node9" class="node">
<title>jback&#45;security&#45;spring</title>
<polygon fill="none" stroke="#000000" points="432,-396 282,-396 282,-360 432,-360 432,-396"/>
<text text-anchor="middle" x="357" y="-374.3" font-family="Helvetica,sans-Serif" font-size="14.00" fill="#000000">jback&#45;security&#45;spring</text>
</g>
<!-- jback&#45;main&#45;&gt;jback&#45;security&#45;spring -->
<g id="edge8" class="edge">
<title>jback&#45;main&#45;&gt;jback&#45;security&#45;spring</title>
<path fill="none" stroke="#000000" d="M463.5486,-503.7623C442.0981,-478.4436 403.189,-432.5182 378.7949,-403.7251"/>
<polygon fill="#000000" stroke="#000000" points="381.4606,-401.457 372.3259,-396.0896 376.1197,-405.982 381.4606,-401.457"/>
</g>
<!-- jback&#45;api&#45;&gt;jback&#45;presentation -->
<g id="edge19" class="edge">
<title>jback&#45;api&#45;&gt;jback&#45;presentation</title>
<path fill="none" stroke="#000000" d="M703.7751,-431.8314C691.8372,-422.8779 677.2744,-411.9558 664.394,-402.2955"/>
<polygon fill="#000000" stroke="#000000" points="666.3171,-399.3629 656.2171,-396.1628 662.1171,-404.9629 666.3171,-399.3629"/>
</g>
<!-- jback&#45;api&#45;&gt;jback&#45;security -->
<g id="edge20" class="edge">
<title>jback&#45;api&#45;&gt;jback&#45;security</title>
<path fill="none" stroke="#000000" d="M690.2627,-445.6429C652.8022,-439.7228 595.2987,-426.172 555,-396 533.4261,-379.8474 517.1843,-353.5201 507.0765,-333.5025"/>
<polygon fill="#000000" stroke="#000000" points="510.1111,-331.7378 502.6107,-324.2548 503.8076,-334.7818 510.1111,-331.7378"/>
</g>
<!-- jback&#45;api&#45;&gt;jback&#45;security&#45;entities -->
<g id="edge21" class="edge">
<title>jback&#45;api&#45;&gt;jback&#45;security&#45;entities</title>
<path fill="none" stroke="#000000" d="M728.2763,-431.758C727.6946,-412.2852 724.161,-381.3553 709,-360 665.1637,-298.2536 583.5811,-266.1515 520.2616,-249.8547"/>
<polygon fill="#000000" stroke="#000000" points="520.8133,-246.3855 510.2646,-247.3727 519.1266,-253.1792 520.8133,-246.3855"/>
</g>
<!-- jback&#45;core&#45;entities -->
<g id="node10" class="node">
<title>jback&#45;core&#45;entities</title>
<polygon fill="none" stroke="#000000" points="757,-180 623,-180 623,-144 757,-144 757,-180"/>
<text text-anchor="middle" x="690" y="-158.3" font-family="Helvetica,sans-Serif" font-size="14.00" fill="#000000">jback&#45;core&#45;entities</text>
</g>
<!-- jback&#45;api&#45;&gt;jback&#45;core&#45;entities -->
<g id="edge18" class="edge">
<title>jback&#45;api&#45;&gt;jback&#45;core&#45;entities</title>
<path fill="none" stroke="#000000" d="M740.8204,-431.9914C768.3166,-390.9563 827.1612,-288.4618 785,-216 777.4806,-203.0766 765.5871,-192.9924 752.7254,-185.224"/>
<polygon fill="#000000" stroke="#000000" points="754.149,-182.0109 743.7084,-180.2095 750.7468,-188.1286 754.149,-182.0109"/>
</g>
<!-- jback&#45;core -->
<g id="node12" class="node">
<title>jback&#45;core</title>
<polygon fill="none" stroke="#000000" points="776,-252 692,-252 692,-216 776,-216 776,-252"/>
<text text-anchor="middle" x="734" y="-230.3" font-family="Helvetica,sans-Serif" font-size="14.00" fill="#000000">jback&#45;core</text>
</g>
<!-- jback&#45;api&#45;&gt;jback&#45;core -->
<g id="edge17" class="edge">
<title>jback&#45;api&#45;&gt;jback&#45;core</title>
<path fill="none" stroke="#000000" d="M733.9698,-431.7319C737.0408,-421.3756 740.4563,-408.105 742,-396 748.0719,-348.3856 745.5267,-335.8703 742,-288 741.3831,-279.6264 740.2351,-270.5812 738.9974,-262.3322"/>
<polygon fill="#000000" stroke="#000000" points="742.4477,-261.7428 737.415,-252.4196 735.5352,-262.8463 742.4477,-261.7428"/>
</g>
<!-- jback&#45;util -->
<g id="node13" class="node">
<title>jback&#45;util</title>
<polygon fill="none" stroke="#000000" points="727,-36 653,-36 653,0 727,0 727,-36"/>
<text text-anchor="middle" x="690" y="-14.3" font-family="Helvetica,sans-Serif" font-size="14.00" fill="#000000">jback&#45;util</text>
</g>
<!-- jback&#45;api&#45;&gt;jback&#45;util -->
<g id="edge22" class="edge">
<title>jback&#45;api&#45;&gt;jback&#45;util</title>
<path fill="none" stroke="#000000" d="M756.1798,-431.8002C789.9384,-407.5315 842,-361.1626 842,-306 842,-306 842,-306 842,-162 842,-102.9965 780.8926,-60.9244 736.1684,-38.0336"/>
<polygon fill="#000000" stroke="#000000" points="737.6971,-34.885 727.1834,-33.5764 734.5863,-41.1558 737.6971,-34.885"/>
</g>
<!-- jback&#45;core&#45;spring&#45;&gt;jback&#45;core&#45;entities -->
<g id="edge41" class="edge">
<title>jback&#45;core&#45;spring&#45;&gt;jback&#45;core&#45;entities</title>
<path fill="none" stroke="#000000" d="M913.8019,-287.6652C891.5372,-268.1131 854.0776,-237.1159 818,-216 796.9665,-203.6893 772.5951,-192.6838 750.7979,-183.8712"/>
<polygon fill="#000000" stroke="#000000" points="751.8953,-180.5412 741.3094,-180.1058 749.3133,-187.0476 751.8953,-180.5412"/>
</g>
<!-- jback&#45;core&#45;spring&#45;&gt;jback&#45;core -->
<g id="edge40" class="edge">
<title>jback&#45;core&#45;spring&#45;&gt;jback&#45;core</title>
<path fill="none" stroke="#000000" d="M883.7897,-287.9243C853.8238,-277.1366 815.8496,-263.4659 785.6349,-252.5886"/>
<polygon fill="#000000" stroke="#000000" points="786.712,-249.2565 776.1176,-249.1623 784.3409,-255.8427 786.712,-249.2565"/>
</g>
<!-- jback&#45;sec&#45;base -->
<g id="node14" class="node">
<title>jback&#45;sec&#45;base</title>
<polygon fill="none" stroke="#000000" points="657,-108 541,-108 541,-72 657,-72 657,-108"/>
<text text-anchor="middle" x="599" y="-86.3" font-family="Helvetica,sans-Serif" font-size="14.00" fill="#000000">jback&#45;sec&#45;base</text>
</g>
<!-- jback&#45;core&#45;spring&#45;&gt;jback&#45;sec&#45;base -->
<g id="edge42" class="edge">
<title>jback&#45;core&#45;spring&#45;&gt;jback&#45;sec&#45;base</title>
<path fill="none" stroke="#000000" d="M922.5106,-287.9722C900.0234,-254.2248 846.7843,-181.5423 783,-144 747.4647,-123.0846 703.2448,-109.7674 667.0615,-101.592"/>
<polygon fill="#000000" stroke="#000000" points="667.5985,-98.1271 657.0829,-99.4205 666.1099,-104.967 667.5985,-98.1271"/>
</g>
<!-- jback&#45;jpa&#45;entities&#45;spring&#45;&gt;jback&#45;security&#45;entities -->
<g id="edge14" class="edge">
<title>jback&#45;jpa&#45;entities&#45;spring&#45;&gt;jback&#45;security&#45;entities</title>
<path fill="none" stroke="#000000" d="M210.7864,-359.9081C256.5144,-333.8812 340.8779,-285.8639 391.1679,-257.2404"/>
<polygon fill="#000000" stroke="#000000" points="393.185,-260.1196 400.1446,-252.1311 389.7224,-254.036 393.185,-260.1196"/>
</g>
<!-- jback&#45;jpa&#45;entities -->
<g id="node11" class="node">
<title>jback&#45;jpa&#45;entities</title>
<polygon fill="none" stroke="#000000" points="263.5,-324 138.5,-324 138.5,-288 263.5,-288 263.5,-324"/>
<text text-anchor="middle" x="201" y="-302.3" font-family="Helvetica,sans-Serif" font-size="14.00" fill="#000000">jback&#45;jpa&#45;entities</text>
</g>
<!-- jback&#45;jpa&#45;entities&#45;spring&#45;&gt;jback&#45;jpa&#45;entities -->
<g id="edge13" class="edge">
<title>jback&#45;jpa&#45;entities&#45;spring&#45;&gt;jback&#45;jpa&#45;entities</title>
<path fill="none" stroke="#000000" d="M184.5515,-359.8314C186.9303,-352.0463 189.7638,-342.7729 192.4033,-334.1347"/>
<polygon fill="#000000" stroke="#000000" points="195.7987,-334.9996 195.3737,-324.4133 189.1042,-332.954 195.7987,-334.9996"/>
</g>
<!-- jback&#45;jpa&#45;wrapper&#45;&gt;jback&#45;jpa&#45;entities&#45;spring -->
<g id="edge11" class="edge">
<title>jback&#45;jpa&#45;wrapper&#45;&gt;jback&#45;jpa&#45;entities&#45;spring</title>
<path fill="none" stroke="#000000" d="M94.5147,-431.8314C108.8342,-422.7074 126.3624,-411.539 141.7338,-401.7449"/>
<polygon fill="#000000" stroke="#000000" points="143.9417,-404.4882 150.4945,-396.1628 140.1801,-398.5847 143.9417,-404.4882"/>
</g>
<!-- jback&#45;jpa&#45;wrapper&#45;&gt;jback&#45;security&#45;entities -->
<g id="edge12" class="edge">
<title>jback&#45;jpa&#45;wrapper&#45;&gt;jback&#45;security&#45;entities</title>
<path fill="none" stroke="#000000" d="M62.3446,-431.7456C59.433,-413.0747 57.1519,-383.5488 66,-360 80.9556,-320.1964 91.9772,-308.912 129,-288 164.9541,-267.6916 267.942,-252.2218 343.9143,-243.1507"/>
<polygon fill="#000000" stroke="#000000" points="344.4525,-246.6116 353.9754,-241.9677 343.635,-239.6595 344.4525,-246.6116"/>
</g>
<!-- jback&#45;jpa&#45;wrapper&#45;&gt;jback&#45;core&#45;entities -->
<g id="edge9" class="edge">
<title>jback&#45;jpa&#45;wrapper&#45;&gt;jback&#45;core&#45;entities</title>
<path fill="none" stroke="#000000" d="M62.3446,-431.7456C59.433,-413.0747 57.1519,-383.5488 66,-360 105.1623,-255.7716 164.588,-248.7677 271,-216 333.0714,-196.8862 509.792,-178.3743 612.8244,-168.7793"/>
<polygon fill="#000000" stroke="#000000" points="613.23,-172.2568 622.8651,-167.8507 612.5853,-165.2866 613.23,-172.2568"/>
</g>
<!-- jback&#45;jpa&#45;wrapper&#45;&gt;jback&#45;jpa&#45;entities -->
<g id="edge10" class="edge">
<title>jback&#45;jpa&#45;wrapper&#45;&gt;jback&#45;jpa&#45;entities</title>
<path fill="none" stroke="#000000" d="M65.2805,-431.7876C65.4509,-412.0526 68.6046,-380.6273 85,-360 96.4292,-345.6206 112.5773,-334.8966 129.2033,-326.9667"/>
<polygon fill="#000000" stroke="#000000" points="130.7512,-330.1088 138.4623,-322.8432 127.9033,-323.7143 130.7512,-330.1088"/>
</g>
<!-- jback&#45;presentation&#45;&gt;jback&#45;security -->
<g id="edge26" class="edge">
<title>jback&#45;presentation&#45;&gt;jback&#45;security</title>
<path fill="none" stroke="#000000" d="M597.4291,-359.8314C579.5815,-350.4516 557.6226,-338.9112 538.62,-328.9244"/>
<polygon fill="#000000" stroke="#000000" points="540.0401,-325.7168 529.5598,-324.1628 536.7836,-331.9132 540.0401,-325.7168"/>
</g>
<!-- jback&#45;presentation&#45;&gt;jback&#45;security&#45;entities -->
<g id="edge27" class="edge">
<title>jback&#45;presentation&#45;&gt;jback&#45;security&#45;entities</title>
<path fill="none" stroke="#000000" d="M620.7356,-359.9459C607.5495,-340.0562 584.0424,-308.2151 557,-288 539.4285,-274.8647 518.17,-264.1564 498.2067,-255.8417"/>
<polygon fill="#000000" stroke="#000000" points="499.4228,-252.5583 488.8392,-252.0712 496.809,-259.052 499.4228,-252.5583"/>
</g>
<!-- jback&#45;presentation&#45;&gt;jback&#45;core&#45;entities -->
<g id="edge24" class="edge">
<title>jback&#45;presentation&#45;&gt;jback&#45;core&#45;entities</title>
<path fill="none" stroke="#000000" d="M636.8453,-359.9555C646.9739,-322.235 670.4468,-234.8188 682.5245,-189.8399"/>
<polygon fill="#000000" stroke="#000000" points="685.9146,-190.7106 685.1277,-180.1451 679.1541,-188.8953 685.9146,-190.7106"/>
</g>
<!-- jback&#45;presentation&#45;&gt;jback&#45;core -->
<g id="edge23" class="edge">
<title>jback&#45;presentation&#45;&gt;jback&#45;core</title>
<path fill="none" stroke="#000000" d="M644.9184,-359.7623C662.6991,-334.66 694.828,-289.3017 715.2525,-260.4671"/>
<polygon fill="#000000" stroke="#000000" points="718.2624,-262.273 721.1865,-252.0896 712.5502,-258.2268 718.2624,-262.273"/>
</g>
<!-- jback&#45;presentation&#45;&gt;jback&#45;sec&#45;base -->
<g id="edge25" class="edge">
<title>jback&#45;presentation&#45;&gt;jback&#45;sec&#45;base</title>
<path fill="none" stroke="#000000" d="M629.9357,-359.9843C624.3566,-311.2939 608.9454,-176.7961 602.2149,-118.0573"/>
<polygon fill="#000000" stroke="#000000" points="605.6792,-117.5454 601.0635,-108.0089 598.7247,-118.3423 605.6792,-117.5454"/>
</g>
<!-- jback&#45;security&#45;&gt;jback&#45;security&#45;entities -->
<g id="edge30" class="edge">
<title>jback&#45;security&#45;&gt;jback&#45;security&#45;entities</title>
<path fill="none" stroke="#000000" d="M479.1024,-287.8314C471.7722,-279.454 462.934,-269.3531 454.9031,-260.1749"/>
<polygon fill="#000000" stroke="#000000" points="457.3307,-257.6343 448.1116,-252.4133 452.0627,-262.2438 457.3307,-257.6343"/>
</g>
<!-- jback&#45;security&#45;&gt;jback&#45;core&#45;entities -->
<g id="edge28" class="edge">
<title>jback&#45;security&#45;&gt;jback&#45;core&#45;entities</title>
<path fill="none" stroke="#000000" d="M519.6969,-287.7623C554.5686,-262.0108 618.3077,-214.942 657.1429,-186.2637"/>
<polygon fill="#000000" stroke="#000000" points="659.5385,-188.8456 665.5036,-180.0896 655.3801,-183.2146 659.5385,-188.8456"/>
</g>
<!-- jback&#45;security&#45;&gt;jback&#45;sec&#45;base -->
<g id="edge29" class="edge">
<title>jback&#45;security&#45;&gt;jback&#45;sec&#45;base</title>
<path fill="none" stroke="#000000" d="M503.6881,-287.9555C521.9263,-250.0762 564.2939,-162.0818 585.8681,-117.274"/>
<polygon fill="#000000" stroke="#000000" points="589.0788,-118.6735 590.2635,-108.1451 582.7718,-115.6367 589.0788,-118.6735"/>
</g>
<!-- jback&#45;security&#45;entities&#45;&gt;jback&#45;core&#45;entities -->
<g id="edge31" class="edge">
<title>jback&#45;security&#45;entities&#45;&gt;jback&#45;core&#45;entities</title>
<path fill="none" stroke="#000000" d="M496.7713,-215.9243C532.8081,-205.8675 577.8232,-193.3052 615.3367,-182.8363"/>
<polygon fill="#000000" stroke="#000000" points="616.5109,-186.1424 625.2021,-180.0831 614.6293,-179.4 616.5109,-186.1424"/>
</g>
<!-- jback&#45;security&#45;entities&#45;&gt;jback&#45;util -->
<g id="edge33" class="edge">
<title>jback&#45;security&#45;entities&#45;&gt;jback&#45;util</title>
<path fill="none" stroke="#000000" d="M437.9446,-215.9999C450.0279,-182.2993 480.742,-109.6926 532,-72 573.7824,-41.2753 594.1004,-53.2802 643,-36 643.1004,-35.9645 643.2009,-35.929 643.3015,-35.8933"/>
<polygon fill="#000000" stroke="#000000" points="644.6571,-39.1249 652.8658,-32.4266 642.2716,-32.5439 644.6571,-39.1249"/>
</g>
<!-- jback&#45;security&#45;entities&#45;&gt;jback&#45;sec&#45;base -->
<g id="edge32" class="edge">
<title>jback&#45;security&#45;entities&#45;&gt;jback&#45;sec&#45;base</title>
<path fill="none" stroke="#000000" d="M448.8975,-215.9312C466.8137,-197.1495 496.2966,-167.2972 524,-144 536.3719,-133.5959 550.6221,-123.0171 563.356,-114.0127"/>
<polygon fill="#000000" stroke="#000000" points="565.6949,-116.6482 571.8879,-108.0518 561.6858,-110.91 565.6949,-116.6482"/>
</g>
<!-- jback&#45;security&#45;spring&#45;&gt;jback&#45;security -->
<g id="edge34" class="edge">
<title>jback&#45;security&#45;spring&#45;&gt;jback&#45;security</title>
<path fill="none" stroke="#000000" d="M391.8232,-359.8314C409.8011,-350.4516 431.9203,-338.9112 451.0616,-328.9244"/>
<polygon fill="#000000" stroke="#000000" points="452.9411,-331.8916 460.1879,-324.1628 449.7031,-325.6855 452.9411,-331.8916"/>
</g>
<!-- jback&#45;security&#45;spring&#45;&gt;jback&#45;security&#45;entities -->
<g id="edge35" class="edge">
<title>jback&#45;security&#45;spring&#45;&gt;jback&#45;security&#45;entities</title>
<path fill="none" stroke="#000000" d="M365.101,-359.835C373.4173,-341.488 386.9523,-312.4423 400,-288 404.7486,-279.1045 410.2451,-269.5847 415.3284,-261.054"/>
<polygon fill="#000000" stroke="#000000" points="418.4631,-262.6333 420.6274,-252.2619 412.4678,-259.02 418.4631,-262.6333"/>
</g>
<!-- jback&#45;core&#45;entities&#45;&gt;jback&#45;util -->
<g id="edge39" class="edge">
<title>jback&#45;core&#45;entities&#45;&gt;jback&#45;util</title>
<path fill="none" stroke="#000000" d="M690,-143.7623C690,-119.201 690,-75.2474 690,-46.3541"/>
<polygon fill="#000000" stroke="#000000" points="693.5001,-46.0896 690,-36.0896 686.5001,-46.0897 693.5001,-46.0896"/>
</g>
<!-- jback&#45;core&#45;entities&#45;&gt;jback&#45;sec&#45;base -->
<g id="edge38" class="edge">
<title>jback&#45;core&#45;entities&#45;&gt;jback&#45;sec&#45;base</title>
<path fill="none" stroke="#000000" d="M667.0369,-143.8314C655.8285,-134.9632 642.1791,-124.1637 630.0561,-114.5718"/>
<polygon fill="#000000" stroke="#000000" points="631.9697,-111.6229 621.9558,-108.1628 627.6263,-117.1125 631.9697,-111.6229"/>
</g>
<!-- jback&#45;jpa&#45;entities&#45;&gt;jback&#45;security&#45;entities -->
<g id="edge16" class="edge">
<title>jback&#45;jpa&#45;entities&#45;&gt;jback&#45;security&#45;entities</title>
<path fill="none" stroke="#000000" d="M258.9929,-287.9243C290.9838,-277.9531 330.8772,-265.5188 364.2913,-255.104"/>
<polygon fill="#000000" stroke="#000000" points="365.4778,-258.4004 373.9833,-252.0831 363.3947,-251.7174 365.4778,-258.4004"/>
</g>
<!-- jback&#45;jpa&#45;entities&#45;&gt;jback&#45;core&#45;entities -->
<g id="edge15" class="edge">
<title>jback&#45;jpa&#45;entities&#45;&gt;jback&#45;core&#45;entities</title>
<path fill="none" stroke="#000000" d="M223.4146,-287.9133C250.514,-267.0547 298.317,-233.4082 345,-216 392.7423,-198.1968 526.5339,-180.4914 612.7875,-170.4312"/>
<polygon fill="#000000" stroke="#000000" points="613.2695,-173.8989 622.801,-169.2727 612.4649,-166.9453 613.2695,-173.8989"/>
</g>
<!-- jback&#45;core&#45;&gt;jback&#45;core&#45;entities -->
<g id="edge36" class="edge">
<title>jback&#45;core&#45;&gt;jback&#45;core&#45;entities</title>
<path fill="none" stroke="#000000" d="M722.8969,-215.8314C717.9326,-207.7079 711.9778,-197.9637 706.5072,-189.0118"/>
<polygon fill="#000000" stroke="#000000" points="709.4536,-187.121 701.2526,-180.4133 703.4806,-190.7712 709.4536,-187.121"/>
</g>
<!-- jback&#45;core&#45;&gt;jback&#45;sec&#45;base -->
<g id="edge37" class="edge">
<title>jback&#45;core&#45;&gt;jback&#45;sec&#45;base</title>
<path fill="none" stroke="#000000" d="M749.8977,-215.6507C764.5819,-196.3675 781.9038,-165.8571 766,-144 753.8681,-127.3267 707.8878,-113.1901 667.2396,-103.5681"/>
<polygon fill="#000000" stroke="#000000" points="667.8462,-100.1162 657.3156,-101.2812 666.2743,-106.9375 667.8462,-100.1162"/>
</g>
<!-- jback&#45;sec&#45;base&#45;&gt;jback&#45;util -->
<g id="edge44" class="edge">
<title>jback&#45;sec&#45;base&#45;&gt;jback&#45;util</title>
<path fill="none" stroke="#000000" d="M621.9631,-71.8314C633.1715,-62.9632 646.8209,-52.1637 658.9439,-42.5718"/>
<polygon fill="#000000" stroke="#000000" points="661.3737,-45.1125 667.0442,-36.1628 657.0303,-39.6229 661.3737,-45.1125"/>
</g>
<!-- jback&#45;sec&#45;model -->
<g id="node15" class="node">
<title>jback&#45;sec&#45;model</title>
<polygon fill="none" stroke="#000000" points="634.5,-36 511.5,-36 511.5,0 634.5,0 634.5,-36"/>
<text text-anchor="middle" x="573" y="-14.3" font-family="Helvetica,sans-Serif" font-size="14.00" fill="#000000">jback&#45;sec&#45;model</text>
</g>
<!-- jback&#45;sec&#45;base&#45;&gt;jback&#45;sec&#45;model -->
<g id="edge43" class="edge">
<title>jback&#45;sec&#45;base&#45;&gt;jback&#45;sec&#45;model</title>
<path fill="none" stroke="#000000" d="M592.4391,-71.8314C589.5973,-63.9617 586.2063,-54.5712 583.0581,-45.8533"/>
<polygon fill="#000000" stroke="#000000" points="586.3377,-44.63 579.6492,-36.4133 579.7538,-47.0076 586.3377,-44.63"/>
</g>
</g>
</svg>
