<?xml version="1.0" encoding="UTF-8" standalone="no"?>
<!DOCTYPE svg PUBLIC "-//W3C//DTD SVG 1.1//EN"
 "http://www.w3.org/Graphics/SVG/1.1/DTD/svg11.dtd">
<!-- Generated by graphviz version 2.40.1 (20161225.0304)
 -->
<!-- Title: G Pages: 1 -->
<svg width="731pt" height="548pt"
 viewBox="0.00 0.00 731.00 548.00" xmlns="http://www.w3.org/2000/svg" xmlns:xlink="http://www.w3.org/1999/xlink">
<g id="graph0" class="graph" transform="scale(1 1) rotate(0) translate(4 544)">
<title>G</title>
<polygon fill="#ffffff" stroke="transparent" points="-4,4 -4,-544 727,-544 727,4 -4,4"/>
<!-- jback&#45;main -->
<g id="node1" class="node">
<title>jback&#45;main</title>
<polygon fill="none" stroke="#000000" points="432.5,-540 345.5,-540 345.5,-504 432.5,-504 432.5,-540"/>
<text text-anchor="middle" x="389" y="-518.3" font-family="Helvetica,sans-Serif" font-size="14.00" fill="#000000">jback&#45;main</text>
</g>
<!-- jback&#45;api -->
<g id="node2" class="node">
<title>jback&#45;api</title>
<polygon fill="none" stroke="#000000" points="426.5,-468 351.5,-468 351.5,-432 426.5,-432 426.5,-468"/>
<text text-anchor="middle" x="389" y="-446.3" font-family="Helvetica,sans-Serif" font-size="14.00" fill="#000000">jback&#45;api</text>
</g>
<!-- jback&#45;main&#45;&gt;jback&#45;api -->
<g id="edge1" class="edge">
<title>jback&#45;main&#45;&gt;jback&#45;api</title>
<path fill="none" stroke="#000000" d="M389,-503.8314C389,-496.131 389,-486.9743 389,-478.4166"/>
<polygon fill="#000000" stroke="#000000" points="392.5001,-478.4132 389,-468.4133 385.5001,-478.4133 392.5001,-478.4132"/>
</g>
<!-- jback&#45;core&#45;spring -->
<g id="node3" class="node">
<title>jback&#45;core&#45;spring</title>
<polygon fill="none" stroke="#000000" points="128,-252 0,-252 0,-216 128,-216 128,-252"/>
<text text-anchor="middle" x="64" y="-230.3" font-family="Helvetica,sans-Serif" font-size="14.00" fill="#000000">jback&#45;core&#45;spring</text>
</g>
<!-- jback&#45;main&#45;&gt;jback&#45;core&#45;spring -->
<g id="edge2" class="edge">
<title>jback&#45;main&#45;&gt;jback&#45;core&#45;spring</title>
<path fill="none" stroke="#000000" d="M345.1284,-510.5031C290.0653,-493.9449 196.0608,-458.3085 140,-396 104.2216,-356.2343 82.1904,-296.6731 71.5996,-261.9356"/>
<polygon fill="#000000" stroke="#000000" points="74.8572,-260.6073 68.6775,-252.0014 68.1417,-262.5826 74.8572,-260.6073"/>
</g>
<!-- jback&#45;jpa -->
<g id="node4" class="node">
<title>jback&#45;jpa</title>
<polygon fill="none" stroke="#000000" points="694.5,-324 619.5,-324 619.5,-288 694.5,-288 694.5,-324"/>
<text text-anchor="middle" x="657" y="-302.3" font-family="Helvetica,sans-Serif" font-size="14.00" fill="#000000">jback&#45;jpa</text>
</g>
<!-- jback&#45;main&#45;&gt;jback&#45;jpa -->
<g id="edge3" class="edge">
<title>jback&#45;main&#45;&gt;jback&#45;jpa</title>
<path fill="none" stroke="#000000" d="M432.7489,-519.1013C498.8834,-513.7326 619.5342,-499.7573 647,-468 679.044,-430.9492 672.1795,-369.5157 664.4728,-333.8993"/>
<polygon fill="#000000" stroke="#000000" points="667.8804,-333.0999 662.2026,-324.1549 661.063,-334.6883 667.8804,-333.0999"/>
</g>
<!-- jback&#45;presentation -->
<g id="node5" class="node">
<title>jback&#45;presentation</title>
<polygon fill="none" stroke="#000000" points="285,-396 149,-396 149,-360 285,-360 285,-396"/>
<text text-anchor="middle" x="217" y="-374.3" font-family="Helvetica,sans-Serif" font-size="14.00" fill="#000000">jback&#45;presentation</text>
</g>
<!-- jback&#45;main&#45;&gt;jback&#45;presentation -->
<g id="edge4" class="edge">
<title>jback&#45;main&#45;&gt;jback&#45;presentation</title>
<path fill="none" stroke="#000000" d="M353.6758,-503.9605C336.4034,-494.3723 315.7766,-481.7381 299,-468 275.6365,-448.8681 252.8129,-423.0619 237.2022,-403.9884"/>
<polygon fill="#000000" stroke="#000000" points="239.7685,-401.5951 230.7674,-396.0066 234.3189,-405.9885 239.7685,-401.5951"/>
</g>
<!-- jback&#45;security -->
<g id="node6" class="node">
<title>jback&#45;security</title>
<polygon fill="none" stroke="#000000" points="366,-324 260,-324 260,-288 366,-288 366,-324"/>
<text text-anchor="middle" x="313" y="-302.3" font-family="Helvetica,sans-Serif" font-size="14.00" fill="#000000">jback&#45;security</text>
</g>
<!-- jback&#45;main&#45;&gt;jback&#45;security -->
<g id="edge5" class="edge">
<title>jback&#45;main&#45;&gt;jback&#45;security</title>
<path fill="none" stroke="#000000" d="M369.2253,-503.7696C359.8572,-494.0426 349.3527,-481.3434 343,-468 322.1975,-424.3057 315.788,-367.6072 313.8332,-334.1783"/>
<polygon fill="#000000" stroke="#000000" points="317.329,-334.0046 313.3425,-324.1884 310.3375,-334.3481 317.329,-334.0046"/>
</g>
<!-- jback&#45;security&#45;entities -->
<g id="node7" class="node">
<title>jback&#45;security&#45;entities</title>
<polygon fill="none" stroke="#000000" points="578,-252 422,-252 422,-216 578,-216 578,-252"/>
<text text-anchor="middle" x="500" y="-230.3" font-family="Helvetica,sans-Serif" font-size="14.00" fill="#000000">jback&#45;security&#45;entities</text>
</g>
<!-- jback&#45;main&#45;&gt;jback&#45;security&#45;entities -->
<g id="edge6" class="edge">
<title>jback&#45;main&#45;&gt;jback&#45;security&#45;entities</title>
<path fill="none" stroke="#000000" d="M432.7326,-511.7951C486.3646,-496.6738 574.9479,-462.6278 614,-396 644.0797,-344.6803 581.4694,-288.7544 537.691,-257.8749"/>
<polygon fill="#000000" stroke="#000000" points="539.4407,-254.8303 529.2194,-252.0418 535.4708,-260.5957 539.4407,-254.8303"/>
</g>
<!-- jback&#45;security&#45;spring -->
<g id="node8" class="node">
<title>jback&#45;security&#45;spring</title>
<polygon fill="none" stroke="#000000" points="605,-396 455,-396 455,-360 605,-360 605,-396"/>
<text text-anchor="middle" x="530" y="-374.3" font-family="Helvetica,sans-Serif" font-size="14.00" fill="#000000">jback&#45;security&#45;spring</text>
</g>
<!-- jback&#45;main&#45;&gt;jback&#45;security&#45;spring -->
<g id="edge7" class="edge">
<title>jback&#45;main&#45;&gt;jback&#45;security&#45;spring</title>
<path fill="none" stroke="#000000" d="M406.8577,-503.7623C431.7549,-478.3354 477.0023,-432.1253 505.1714,-403.3569"/>
<polygon fill="#000000" stroke="#000000" points="507.7918,-405.6834 512.2872,-396.0896 502.7902,-400.7861 507.7918,-405.6834"/>
</g>
<!-- jback&#45;api&#45;&gt;jback&#45;presentation -->
<g id="edge11" class="edge">
<title>jback&#45;api&#45;&gt;jback&#45;presentation</title>
<path fill="none" stroke="#000000" d="M351.2539,-434.1993C327.2981,-424.1713 295.9565,-411.0516 269.5812,-400.0107"/>
<polygon fill="#000000" stroke="#000000" points="270.6875,-396.6796 260.1115,-396.0467 267.9845,-403.1367 270.6875,-396.6796"/>
</g>
<!-- jback&#45;api&#45;&gt;jback&#45;security -->
<g id="edge12" class="edge">
<title>jback&#45;api&#45;&gt;jback&#45;security</title>
<path fill="none" stroke="#000000" d="M379.3745,-431.7623C366.2403,-406.8764 342.599,-362.0822 327.3642,-333.2165"/>
<polygon fill="#000000" stroke="#000000" points="330.3103,-331.2998 322.5473,-324.0896 324.1196,-334.5671 330.3103,-331.2998"/>
</g>
<!-- jback&#45;api&#45;&gt;jback&#45;security&#45;entities -->
<g id="edge13" class="edge">
<title>jback&#45;api&#45;&gt;jback&#45;security&#45;entities</title>
<path fill="none" stroke="#000000" d="M398.2729,-431.9555C417.7386,-394.0762 462.9579,-306.0818 485.9842,-261.274"/>
<polygon fill="#000000" stroke="#000000" points="489.2177,-262.6392 490.6755,-252.1451 482.9917,-259.4396 489.2177,-262.6392"/>
</g>
<!-- jback&#45;core -->
<g id="node9" class="node">
<title>jback&#45;core</title>
<polygon fill="none" stroke="#000000" points="434,-180 350,-180 350,-144 434,-144 434,-180"/>
<text text-anchor="middle" x="392" y="-158.3" font-family="Helvetica,sans-Serif" font-size="14.00" fill="#000000">jback&#45;core</text>
</g>
<!-- jback&#45;api&#45;&gt;jback&#45;core -->
<g id="edge10" class="edge">
<title>jback&#45;api&#45;&gt;jback&#45;core</title>
<path fill="none" stroke="#000000" d="M389.1877,-431.9843C389.6949,-383.2939 391.0959,-248.7961 391.7077,-190.0573"/>
<polygon fill="#000000" stroke="#000000" points="395.208,-190.0448 391.8124,-180.0089 388.2083,-189.9718 395.208,-190.0448"/>
</g>
<!-- jback&#45;util -->
<g id="node10" class="node">
<title>jback&#45;util</title>
<polygon fill="none" stroke="#000000" points="493,-36 419,-36 419,0 493,0 493,-36"/>
<text text-anchor="middle" x="456" y="-14.3" font-family="Helvetica,sans-Serif" font-size="14.00" fill="#000000">jback&#45;util</text>
</g>
<!-- jback&#45;api&#45;&gt;jback&#45;util -->
<g id="edge14" class="edge">
<title>jback&#45;api&#45;&gt;jback&#45;util</title>
<path fill="none" stroke="#000000" d="M426.5366,-446.0809C472.636,-440.1466 552.2994,-426.1971 614,-396 670.4285,-368.3831 723,-368.8241 723,-306 723,-306 723,-306 723,-162 723,-63.4117 580.2352,-32.0084 503.4938,-22.2497"/>
<polygon fill="#000000" stroke="#000000" points="503.4697,-18.722 493.1252,-21.0116 502.6397,-25.6726 503.4697,-18.722"/>
</g>
<!-- jback&#45;sec&#45;base -->
<g id="node11" class="node">
<title>jback&#45;sec&#45;base</title>
<polygon fill="none" stroke="#000000" points="394,-108 278,-108 278,-72 394,-72 394,-108"/>
<text text-anchor="middle" x="336" y="-86.3" font-family="Helvetica,sans-Serif" font-size="14.00" fill="#000000">jback&#45;sec&#45;base</text>
</g>
<!-- jback&#45;core&#45;spring&#45;&gt;jback&#45;sec&#45;base -->
<g id="edge29" class="edge">
<title>jback&#45;core&#45;spring&#45;&gt;jback&#45;sec&#45;base</title>
<path fill="none" stroke="#000000" d="M74.9077,-215.9907C88.2267,-195.5279 112.6451,-162.5718 142,-144 179.8339,-120.0638 228.3601,-106.5625 267.4147,-99.0458"/>
<polygon fill="#000000" stroke="#000000" points="268.4383,-102.4166 277.6433,-97.1709 267.1762,-95.5313 268.4383,-102.4166"/>
</g>
<!-- jback&#45;jpa&#45;&gt;jback&#45;security&#45;entities -->
<g id="edge9" class="edge">
<title>jback&#45;jpa&#45;&gt;jback&#45;security&#45;entities</title>
<path fill="none" stroke="#000000" d="M619.3946,-288.7542C598.186,-279.028 571.452,-266.7678 548.6606,-256.3157"/>
<polygon fill="#000000" stroke="#000000" points="550.0382,-253.097 539.4895,-252.1098 547.1202,-259.4598 550.0382,-253.097"/>
</g>
<!-- jback&#45;jpa&#45;&gt;jback&#45;core -->
<g id="edge8" class="edge">
<title>jback&#45;jpa&#45;&gt;jback&#45;core</title>
<path fill="none" stroke="#000000" d="M647.6682,-287.9654C636.1448,-267.4789 614.6339,-234.5006 587,-216 543.9877,-187.2038 485.8863,-173.6668 444.3161,-167.3632"/>
<polygon fill="#000000" stroke="#000000" points="444.7823,-163.8944 434.3883,-165.947 443.7937,-170.8242 444.7823,-163.8944"/>
</g>
<!-- jback&#45;presentation&#45;&gt;jback&#45;security -->
<g id="edge17" class="edge">
<title>jback&#45;presentation&#45;&gt;jback&#45;security</title>
<path fill="none" stroke="#000000" d="M241.2249,-359.8314C253.1628,-350.8779 267.7256,-339.9558 280.606,-330.2955"/>
<polygon fill="#000000" stroke="#000000" points="282.8829,-332.9629 288.7829,-324.1628 278.6829,-327.3629 282.8829,-332.9629"/>
</g>
<!-- jback&#45;presentation&#45;&gt;jback&#45;security&#45;entities -->
<g id="edge18" class="edge">
<title>jback&#45;presentation&#45;&gt;jback&#45;security&#45;entities</title>
<path fill="none" stroke="#000000" d="M218.7572,-359.903C221.7472,-339.3578 229.7487,-306.3244 251,-288 274.9983,-267.3069 350.1273,-252.8621 411.6382,-244.1532"/>
<polygon fill="#000000" stroke="#000000" points="412.3469,-247.5886 421.7734,-242.752 411.3882,-240.6546 412.3469,-247.5886"/>
</g>
<!-- jback&#45;presentation&#45;&gt;jback&#45;core -->
<g id="edge15" class="edge">
<title>jback&#45;presentation&#45;&gt;jback&#45;core</title>
<path fill="none" stroke="#000000" d="M214.4889,-359.8492C212.7437,-340.7317 212.595,-310.3584 225,-288 251.2637,-240.6632 303.556,-205.7352 342.6644,-184.8133"/>
<polygon fill="#000000" stroke="#000000" points="344.5468,-187.7791 351.7958,-180.0524 341.3105,-181.5721 344.5468,-187.7791"/>
</g>
<!-- jback&#45;presentation&#45;&gt;jback&#45;sec&#45;base -->
<g id="edge16" class="edge">
<title>jback&#45;presentation&#45;&gt;jback&#45;sec&#45;base</title>
<path fill="none" stroke="#000000" d="M212.5048,-359.7698C208.7272,-341.372 204.8446,-312.2876 211,-288 228.5947,-218.5758 281.1726,-150.9322 312.2509,-115.4979"/>
<polygon fill="#000000" stroke="#000000" points="314.8706,-117.819 318.909,-108.024 309.6438,-113.1627 314.8706,-117.819"/>
</g>
<!-- jback&#45;security&#45;&gt;jback&#45;security&#45;entities -->
<g id="edge21" class="edge">
<title>jback&#45;security&#45;&gt;jback&#45;security&#45;entities</title>
<path fill="none" stroke="#000000" d="M360.188,-287.8314C385.5316,-278.0734 416.9485,-265.977 443.5774,-255.7242"/>
<polygon fill="#000000" stroke="#000000" points="445.0768,-258.8974 453.1513,-252.038 442.5615,-252.3649 445.0768,-258.8974"/>
</g>
<!-- jback&#45;security&#45;&gt;jback&#45;core -->
<g id="edge19" class="edge">
<title>jback&#45;security&#45;&gt;jback&#45;core</title>
<path fill="none" stroke="#000000" d="M323.0054,-287.7623C336.6581,-262.8764 361.2327,-218.0822 377.0687,-189.2165"/>
<polygon fill="#000000" stroke="#000000" points="380.3345,-190.5404 382.0758,-180.0896 374.1974,-187.1735 380.3345,-190.5404"/>
</g>
<!-- jback&#45;security&#45;&gt;jback&#45;sec&#45;base -->
<g id="edge20" class="edge">
<title>jback&#45;security&#45;&gt;jback&#45;sec&#45;base</title>
<path fill="none" stroke="#000000" d="M314.9214,-287.9555C318.9295,-250.3144 328.207,-163.1867 333.0053,-118.1246"/>
<polygon fill="#000000" stroke="#000000" points="336.4893,-118.4595 334.0679,-108.1451 329.5286,-117.7182 336.4893,-118.4595"/>
</g>
<!-- jback&#45;security&#45;entities&#45;&gt;jback&#45;core -->
<g id="edge22" class="edge">
<title>jback&#45;security&#45;entities&#45;&gt;jback&#45;core</title>
<path fill="none" stroke="#000000" d="M472.747,-215.8314C459.0611,-206.7074 442.3085,-195.539 427.6173,-185.7449"/>
<polygon fill="#000000" stroke="#000000" points="429.5062,-182.7977 419.2442,-180.1628 425.6233,-188.6221 429.5062,-182.7977"/>
</g>
<!-- jback&#45;security&#45;entities&#45;&gt;jback&#45;util -->
<g id="edge24" class="edge">
<title>jback&#45;security&#45;entities&#45;&gt;jback&#45;util</title>
<path fill="none" stroke="#000000" d="M496.3243,-215.9555C488.6566,-178.3144 470.9084,-91.1867 461.7291,-46.1246"/>
<polygon fill="#000000" stroke="#000000" points="465.1219,-45.2452 459.6962,-36.1451 458.2628,-46.6425 465.1219,-45.2452"/>
</g>
<!-- jback&#45;security&#45;entities&#45;&gt;jback&#45;sec&#45;base -->
<g id="edge23" class="edge">
<title>jback&#45;security&#45;entities&#45;&gt;jback&#45;sec&#45;base</title>
<path fill="none" stroke="#000000" d="M492.0809,-215.7412C482.7472,-195.9656 465.6014,-164.505 443,-144 428.8919,-131.2005 411.1907,-120.6497 394.2705,-112.3762"/>
<polygon fill="#000000" stroke="#000000" points="395.518,-109.0954 384.9784,-108.0142 392.5434,-115.432 395.518,-109.0954"/>
</g>
<!-- jback&#45;security&#45;spring&#45;&gt;jback&#45;security -->
<g id="edge25" class="edge">
<title>jback&#45;security&#45;spring&#45;&gt;jback&#45;security</title>
<path fill="none" stroke="#000000" d="M475.5218,-359.9243C445.1436,-349.8449 407.1799,-337.2486 375.5854,-326.7657"/>
<polygon fill="#000000" stroke="#000000" points="376.5936,-323.4126 366.0001,-323.5853 374.3891,-330.0564 376.5936,-323.4126"/>
</g>
<!-- jback&#45;security&#45;spring&#45;&gt;jback&#45;security&#45;entities -->
<g id="edge26" class="edge">
<title>jback&#45;security&#45;spring&#45;&gt;jback&#45;security&#45;entities</title>
<path fill="none" stroke="#000000" d="M526.2005,-359.7623C521.061,-335.0928 511.8458,-290.8598 505.8277,-261.9731"/>
<polygon fill="#000000" stroke="#000000" points="509.2347,-261.1656 503.7687,-252.0896 502.3819,-262.5933 509.2347,-261.1656"/>
</g>
<!-- jback&#45;core&#45;&gt;jback&#45;util -->
<g id="edge28" class="edge">
<title>jback&#45;core&#45;&gt;jback&#45;util</title>
<path fill="none" stroke="#000000" d="M400.1056,-143.7623C411.1179,-118.9846 430.9016,-74.4714 443.7361,-45.5939"/>
<polygon fill="#000000" stroke="#000000" points="447.0971,-46.6492 447.9602,-36.0896 440.7004,-43.8062 447.0971,-46.6492"/>
</g>
<!-- jback&#45;core&#45;&gt;jback&#45;sec&#45;base -->
<g id="edge27" class="edge">
<title>jback&#45;core&#45;&gt;jback&#45;sec&#45;base</title>
<path fill="none" stroke="#000000" d="M377.8688,-143.8314C371.4189,-135.5386 363.6555,-125.557 356.5748,-116.4533"/>
<polygon fill="#000000" stroke="#000000" points="359.2236,-114.158 350.3214,-108.4133 353.6981,-118.4556 359.2236,-114.158"/>
</g>
<!-- jback&#45;sec&#45;base&#45;&gt;jback&#45;util -->
<g id="edge31" class="edge">
<title>jback&#45;sec&#45;base&#45;&gt;jback&#45;util</title>
<path fill="none" stroke="#000000" d="M366.2811,-71.8314C381.6298,-62.6221 400.4498,-51.3301 416.8823,-41.4706"/>
<polygon fill="#000000" stroke="#000000" points="418.9544,-44.3091 425.7286,-36.1628 415.3529,-38.3066 418.9544,-44.3091"/>
</g>
<!-- jback&#45;sec&#45;model -->
<g id="node12" class="node">
<title>jback&#45;sec&#45;model</title>
<polygon fill="none" stroke="#000000" points="397.5,-36 274.5,-36 274.5,0 397.5,0 397.5,-36"/>
<text text-anchor="middle" x="336" y="-14.3" font-family="Helvetica,sans-Serif" font-size="14.00" fill="#000000">jback&#45;sec&#45;model</text>
</g>
<!-- jback&#45;sec&#45;base&#45;&gt;jback&#45;sec&#45;model -->
<g id="edge30" class="edge">
<title>jback&#45;sec&#45;base&#45;&gt;jback&#45;sec&#45;model</title>
<path fill="none" stroke="#000000" d="M336,-71.8314C336,-64.131 336,-54.9743 336,-46.4166"/>
<polygon fill="#000000" stroke="#000000" points="339.5001,-46.4132 336,-36.4133 332.5001,-46.4133 339.5001,-46.4132"/>
</g>
</g>
</svg>
