<?xml version="1.0" encoding="UTF-8" standalone="no"?>
<!DOCTYPE svg PUBLIC "-//W3C//DTD SVG 1.1//EN"
 "http://www.w3.org/Graphics/SVG/1.1/DTD/svg11.dtd">
<!-- Generated by graphviz version 2.40.1 (20161225.0304)
 -->
<!-- Title: G Pages: 1 -->
<svg width="877pt" height="548pt"
 viewBox="0.00 0.00 876.85 548.00" xmlns="http://www.w3.org/2000/svg" xmlns:xlink="http://www.w3.org/1999/xlink">
<g id="graph0" class="graph" transform="scale(1 1) rotate(0) translate(4 544)">
<title>G</title>
<polygon fill="#ffffff" stroke="transparent" points="-4,4 -4,-544 872.8511,-544 872.8511,4 -4,4"/>
<!-- jback&#45;main -->
<g id="node1" class="node">
<title>jback&#45;main</title>
<polygon fill="none" stroke="#000000" points="528.8882,-540 441.8882,-540 441.8882,-504 528.8882,-504 528.8882,-540"/>
<text text-anchor="middle" x="485.3882" y="-518.3" font-family="Helvetica,sans-Serif" font-size="14.00" fill="#000000">jback&#45;main</text>
</g>
<!-- jback&#45;api -->
<g id="node2" class="node">
<title>jback&#45;api</title>
<polygon fill="none" stroke="#000000" points="395.8882,-468 320.8882,-468 320.8882,-432 395.8882,-432 395.8882,-468"/>
<text text-anchor="middle" x="358.3882" y="-446.3" font-family="Helvetica,sans-Serif" font-size="14.00" fill="#000000">jback&#45;api</text>
</g>
<!-- jback&#45;main&#45;&gt;jback&#45;api -->
<g id="edge1" class="edge">
<title>jback&#45;main&#45;&gt;jback&#45;api</title>
<path fill="none" stroke="#000000" d="M453.3408,-503.8314C436.9463,-494.5368 416.8097,-483.1208 399.3054,-473.1971"/>
<polygon fill="#000000" stroke="#000000" points="400.8509,-470.05 390.4255,-468.1628 397.3985,-476.1395 400.8509,-470.05"/>
</g>
<!-- jback&#45;core&#45;spring -->
<g id="node3" class="node">
<title>jback&#45;core&#45;spring</title>
<polygon fill="none" stroke="#000000" points="153.3882,-324 25.3882,-324 25.3882,-288 153.3882,-288 153.3882,-324"/>
<text text-anchor="middle" x="89.3882" y="-302.3" font-family="Helvetica,sans-Serif" font-size="14.00" fill="#000000">jback&#45;core&#45;spring</text>
</g>
<!-- jback&#45;main&#45;&gt;jback&#45;core&#45;spring -->
<g id="edge2" class="edge">
<title>jback&#45;main&#45;&gt;jback&#45;core&#45;spring</title>
<path fill="none" stroke="#000000" d="M441.7223,-514.5692C398.9454,-506.3819 332.4854,-491.2131 278.3882,-468 222.6259,-444.0724 207.9109,-436.1206 162.3882,-396 140.9226,-377.0817 120.7774,-351.4068 107.1103,-332.3211"/>
<polygon fill="#000000" stroke="#000000" points="109.9196,-330.2315 101.3052,-324.0637 104.1931,-334.2573 109.9196,-330.2315"/>
</g>
<!-- jback&#45;jpa&#45;entities&#45;spring -->
<g id="node4" class="node">
<title>jback&#45;jpa&#45;entities&#45;spring</title>
<polygon fill="none" stroke="#000000" points="627.3882,-468 457.3882,-468 457.3882,-432 627.3882,-432 627.3882,-468"/>
<text text-anchor="middle" x="542.3882" y="-446.3" font-family="Helvetica,sans-Serif" font-size="14.00" fill="#000000">jback&#45;jpa&#45;entities&#45;spring</text>
</g>
<!-- jback&#45;main&#45;&gt;jback&#45;jpa&#45;entities&#45;spring -->
<g id="edge3" class="edge">
<title>jback&#45;main&#45;&gt;jback&#45;jpa&#45;entities&#45;spring</title>
<path fill="none" stroke="#000000" d="M499.7718,-503.8314C506.3368,-495.5386 514.2389,-485.557 521.446,-476.4533"/>
<polygon fill="#000000" stroke="#000000" points="524.3482,-478.4262 527.8111,-468.4133 518.8598,-474.0813 524.3482,-478.4262"/>
</g>
<!-- jback&#45;jpa&#45;wrapper -->
<g id="node5" class="node">
<title>jback&#45;jpa&#45;wrapper</title>
<polygon fill="none" stroke="#000000" points="847.3882,-396 715.3882,-396 715.3882,-360 847.3882,-360 847.3882,-396"/>
<text text-anchor="middle" x="781.3882" y="-374.3" font-family="Helvetica,sans-Serif" font-size="14.00" fill="#000000">jback&#45;jpa&#45;wrapper</text>
</g>
<!-- jback&#45;main&#45;&gt;jback&#45;jpa&#45;wrapper -->
<g id="edge4" class="edge">
<title>jback&#45;main&#45;&gt;jback&#45;jpa&#45;wrapper</title>
<path fill="none" stroke="#000000" d="M528.8959,-511.8832C563.6626,-502.8965 613.0724,-488.0704 653.3882,-468 689.6573,-449.9442 727.1103,-422.3803 752.058,-402.5149"/>
<polygon fill="#000000" stroke="#000000" points="754.43,-405.0985 760.0193,-396.098 750.0371,-399.6484 754.43,-405.0985"/>
</g>
<!-- jback&#45;presentation -->
<g id="node6" class="node">
<title>jback&#45;presentation</title>
<polygon fill="none" stroke="#000000" points="325.3882,-396 189.3882,-396 189.3882,-360 325.3882,-360 325.3882,-396"/>
<text text-anchor="middle" x="257.3882" y="-374.3" font-family="Helvetica,sans-Serif" font-size="14.00" fill="#000000">jback&#45;presentation</text>
</g>
<!-- jback&#45;main&#45;&gt;jback&#45;presentation -->
<g id="edge5" class="edge">
<title>jback&#45;main&#45;&gt;jback&#45;presentation</title>
<path fill="none" stroke="#000000" d="M441.6652,-517.2646C403.8105,-511.2494 349.326,-497.7886 311.3882,-468 290.82,-451.8499 276.342,-425.5223 267.59,-405.5039"/>
<polygon fill="#000000" stroke="#000000" points="270.8178,-404.1504 263.752,-396.2558 264.3525,-406.8337 270.8178,-404.1504"/>
</g>
<!-- jback&#45;security -->
<g id="node7" class="node">
<title>jback&#45;security</title>
<polygon fill="none" stroke="#000000" points="467.3882,-324 361.3882,-324 361.3882,-288 467.3882,-288 467.3882,-324"/>
<text text-anchor="middle" x="414.3882" y="-302.3" font-family="Helvetica,sans-Serif" font-size="14.00" fill="#000000">jback&#45;security</text>
</g>
<!-- jback&#45;main&#45;&gt;jback&#45;security -->
<g id="edge6" class="edge">
<title>jback&#45;main&#45;&gt;jback&#45;security</title>
<path fill="none" stroke="#000000" d="M470.0661,-503.5827C462.4943,-493.6114 453.8359,-480.7497 448.3882,-468 429.4179,-423.6013 420.7034,-367.7045 416.9538,-334.5243"/>
<polygon fill="#000000" stroke="#000000" points="420.3939,-333.7703 415.865,-324.1922 413.4324,-334.504 420.3939,-333.7703"/>
</g>
<!-- jback&#45;security&#45;entities -->
<g id="node8" class="node">
<title>jback&#45;security&#45;entities</title>
<polygon fill="none" stroke="#000000" points="608.3882,-252 452.3882,-252 452.3882,-216 608.3882,-216 608.3882,-252"/>
<text text-anchor="middle" x="530.3882" y="-230.3" font-family="Helvetica,sans-Serif" font-size="14.00" fill="#000000">jback&#45;security&#45;entities</text>
</g>
<!-- jback&#45;main&#45;&gt;jback&#45;security&#45;entities -->
<g id="edge7" class="edge">
<title>jback&#45;main&#45;&gt;jback&#45;security&#45;entities</title>
<path fill="none" stroke="#000000" d="M528.9404,-514.105C618.9042,-496.7741 819.9154,-452.4084 856.3882,-396 917.6579,-301.2412 734.8866,-259.8589 618.6816,-243.4922"/>
<polygon fill="#000000" stroke="#000000" points="619.0809,-240.0143 608.6983,-242.1242 618.1305,-246.9495 619.0809,-240.0143"/>
</g>
<!-- jback&#45;security&#45;spring -->
<g id="node9" class="node">
<title>jback&#45;security&#45;spring</title>
<polygon fill="none" stroke="#000000" points="697.3882,-396 547.3882,-396 547.3882,-360 697.3882,-360 697.3882,-396"/>
<text text-anchor="middle" x="622.3882" y="-374.3" font-family="Helvetica,sans-Serif" font-size="14.00" fill="#000000">jback&#45;security&#45;spring</text>
</g>
<!-- jback&#45;main&#45;&gt;jback&#45;security&#45;spring -->
<g id="edge8" class="edge">
<title>jback&#45;main&#45;&gt;jback&#45;security&#45;spring</title>
<path fill="none" stroke="#000000" d="M529.2628,-512.2236C569.1717,-502.3367 623.7221,-485.9813 636.3882,-468 649.1058,-449.9458 643.7812,-424.8054 636.3148,-405.6833"/>
<polygon fill="#000000" stroke="#000000" points="639.4519,-404.1178 632.2993,-396.3017 633.0166,-406.8723 639.4519,-404.1178"/>
</g>
<!-- jback&#45;api&#45;&gt;jback&#45;presentation -->
<g id="edge17" class="edge">
<title>jback&#45;api&#45;&gt;jback&#45;presentation</title>
<path fill="none" stroke="#000000" d="M332.9017,-431.8314C320.2224,-422.7927 304.7286,-411.7476 291.0827,-402.0198"/>
<polygon fill="#000000" stroke="#000000" points="293.0411,-399.1176 282.8667,-396.1628 288.9778,-404.8176 293.0411,-399.1176"/>
</g>
<!-- jback&#45;api&#45;&gt;jback&#45;security -->
<g id="edge18" class="edge">
<title>jback&#45;api&#45;&gt;jback&#45;security</title>
<path fill="none" stroke="#000000" d="M365.4807,-431.7623C375.1164,-406.9846 392.4272,-362.4714 403.6573,-333.5939"/>
<polygon fill="#000000" stroke="#000000" points="406.9909,-334.6783 407.3534,-324.0896 400.4669,-332.1411 406.9909,-334.6783"/>
</g>
<!-- jback&#45;api&#45;&gt;jback&#45;security&#45;entities -->
<g id="edge19" class="edge">
<title>jback&#45;api&#45;&gt;jback&#45;security&#45;entities</title>
<path fill="none" stroke="#000000" d="M377.7071,-431.9046C402.2467,-408.3768 445.1543,-365.3842 476.3882,-324 491.4379,-304.0595 505.8559,-279.6639 516.0023,-261.3043"/>
<polygon fill="#000000" stroke="#000000" points="519.1919,-262.7655 520.8996,-252.3092 513.044,-259.4183 519.1919,-262.7655"/>
</g>
<!-- jback&#45;core&#45;entities -->
<g id="node10" class="node">
<title>jback&#45;core&#45;entities</title>
<polygon fill="none" stroke="#000000" points="358.3882,-180 224.3882,-180 224.3882,-144 358.3882,-144 358.3882,-180"/>
<text text-anchor="middle" x="291.3882" y="-158.3" font-family="Helvetica,sans-Serif" font-size="14.00" fill="#000000">jback&#45;core&#45;entities</text>
</g>
<!-- jback&#45;api&#45;&gt;jback&#45;core&#45;entities -->
<g id="edge16" class="edge">
<title>jback&#45;api&#45;&gt;jback&#45;core&#45;entities</title>
<path fill="none" stroke="#000000" d="M354.1971,-431.9843C342.8698,-383.2939 311.5804,-248.7961 297.9155,-190.0573"/>
<polygon fill="#000000" stroke="#000000" points="301.2527,-188.9557 295.5778,-180.0089 294.4348,-190.5419 301.2527,-188.9557"/>
</g>
<!-- jback&#45;core -->
<g id="node12" class="node">
<title>jback&#45;core</title>
<polygon fill="none" stroke="#000000" points="229.3882,-252 145.3882,-252 145.3882,-216 229.3882,-216 229.3882,-252"/>
<text text-anchor="middle" x="187.3882" y="-230.3" font-family="Helvetica,sans-Serif" font-size="14.00" fill="#000000">jback&#45;core</text>
</g>
<!-- jback&#45;api&#45;&gt;jback&#45;core -->
<g id="edge15" class="edge">
<title>jback&#45;api&#45;&gt;jback&#45;core</title>
<path fill="none" stroke="#000000" d="M320.8562,-443.9469C273.7799,-435.5001 197.1725,-418.6314 180.3882,-396 151.3889,-356.898 164.7622,-296.7013 176.4948,-261.7516"/>
<polygon fill="#000000" stroke="#000000" points="179.8439,-262.7791 179.879,-252.1843 173.2445,-260.4447 179.8439,-262.7791"/>
</g>
<!-- jback&#45;core&#45;spring&#45;&gt;jback&#45;core&#45;entities -->
<g id="edge36" class="edge">
<title>jback&#45;core&#45;spring&#45;&gt;jback&#45;core&#45;entities</title>
<path fill="none" stroke="#000000" d="M94.4023,-287.9069C100.8967,-267.6786 114.1097,-235.2416 136.3882,-216 158.3805,-197.0057 187.447,-184.5753 214.4621,-176.4934"/>
<polygon fill="#000000" stroke="#000000" points="215.6358,-179.7988 224.3053,-173.7086 213.7301,-173.0632 215.6358,-179.7988"/>
</g>
<!-- jback&#45;core&#45;spring&#45;&gt;jback&#45;core -->
<g id="edge35" class="edge">
<title>jback&#45;core&#45;spring&#45;&gt;jback&#45;core</title>
<path fill="none" stroke="#000000" d="M114.1178,-287.8314C126.3044,-278.8779 141.1706,-267.9558 154.3194,-258.2955"/>
<polygon fill="#000000" stroke="#000000" points="156.6801,-260.9042 162.6666,-252.1628 152.5355,-255.263 156.6801,-260.9042"/>
</g>
<!-- jback&#45;sec&#45;base -->
<g id="node13" class="node">
<title>jback&#45;sec&#45;base</title>
<polygon fill="none" stroke="#000000" points="295.3882,-108 179.3882,-108 179.3882,-72 295.3882,-72 295.3882,-108"/>
<text text-anchor="middle" x="237.3882" y="-86.3" font-family="Helvetica,sans-Serif" font-size="14.00" fill="#000000">jback&#45;sec&#45;base</text>
</g>
<!-- jback&#45;core&#45;spring&#45;&gt;jback&#45;sec&#45;base -->
<g id="edge37" class="edge">
<title>jback&#45;core&#45;spring&#45;&gt;jback&#45;sec&#45;base</title>
<path fill="none" stroke="#000000" d="M89.6246,-287.673C90.5813,-268.6806 94.1339,-238.6587 106.3882,-216 129.3714,-173.5033 171.7204,-136.7701 202.0503,-114.1069"/>
<polygon fill="#000000" stroke="#000000" points="204.26,-116.8268 210.2601,-108.0947 200.1242,-111.1793 204.26,-116.8268"/>
</g>
<!-- jback&#45;jpa&#45;entities -->
<g id="node11" class="node">
<title>jback&#45;jpa&#45;entities</title>
<polygon fill="none" stroke="#000000" points="648.8882,-324 523.8882,-324 523.8882,-288 648.8882,-288 648.8882,-324"/>
<text text-anchor="middle" x="586.3882" y="-302.3" font-family="Helvetica,sans-Serif" font-size="14.00" fill="#000000">jback&#45;jpa&#45;entities</text>
</g>
<!-- jback&#45;jpa&#45;entities&#45;spring&#45;&gt;jback&#45;jpa&#45;entities -->
<g id="edge12" class="edge">
<title>jback&#45;jpa&#45;entities&#45;spring&#45;&gt;jback&#45;jpa&#45;entities</title>
<path fill="none" stroke="#000000" d="M537.4475,-431.7408C533.3286,-413.0662 529.4394,-383.5373 538.3882,-360 542.4155,-349.4076 549.5782,-339.5662 557.1619,-331.2649"/>
<polygon fill="#000000" stroke="#000000" points="559.6808,-333.695 564.167,-324.0968 554.6745,-328.8025 559.6808,-333.695"/>
</g>
<!-- jback&#45;jpa&#45;wrapper&#45;&gt;jback&#45;security&#45;entities -->
<g id="edge11" class="edge">
<title>jback&#45;jpa&#45;wrapper&#45;&gt;jback&#45;security&#45;entities</title>
<path fill="none" stroke="#000000" d="M763.9108,-359.9911C743.8376,-340.1419 709.1743,-308.3371 674.3882,-288 652.0024,-274.9125 625.8768,-263.9832 602.0708,-255.4582"/>
<polygon fill="#000000" stroke="#000000" points="602.9737,-252.0663 592.3789,-252.0721 600.6649,-258.6746 602.9737,-252.0663"/>
</g>
<!-- jback&#45;jpa&#45;wrapper&#45;&gt;jback&#45;core&#45;entities -->
<g id="edge9" class="edge">
<title>jback&#45;jpa&#45;wrapper&#45;&gt;jback&#45;core&#45;entities</title>
<path fill="none" stroke="#000000" d="M769.921,-359.7707C746.4109,-324.296 688.8907,-246.7669 617.3882,-216 573.8201,-197.253 450.5267,-180.1949 368.6755,-170.4653"/>
<polygon fill="#000000" stroke="#000000" points="368.9993,-166.9793 358.6588,-169.2865 368.1812,-173.9313 368.9993,-166.9793"/>
</g>
<!-- jback&#45;jpa&#45;wrapper&#45;&gt;jback&#45;jpa&#45;entities -->
<g id="edge10" class="edge">
<title>jback&#45;jpa&#45;wrapper&#45;&gt;jback&#45;jpa&#45;entities</title>
<path fill="none" stroke="#000000" d="M732.4332,-359.9243C705.8915,-350.1243 672.906,-337.945 645.0024,-327.6422"/>
<polygon fill="#000000" stroke="#000000" points="645.9567,-324.2636 635.3634,-324.0831 643.5321,-330.8303 645.9567,-324.2636"/>
</g>
<!-- jback&#45;presentation&#45;&gt;jback&#45;security -->
<g id="edge23" class="edge">
<title>jback&#45;presentation&#45;&gt;jback&#45;security</title>
<path fill="none" stroke="#000000" d="M297.006,-359.8314C317.9105,-350.2446 343.7366,-338.4008 365.8371,-328.2655"/>
<polygon fill="#000000" stroke="#000000" points="367.4247,-331.388 375.0554,-324.038 364.5067,-325.0252 367.4247,-331.388"/>
</g>
<!-- jback&#45;presentation&#45;&gt;jback&#45;security&#45;entities -->
<g id="edge24" class="edge">
<title>jback&#45;presentation&#45;&gt;jback&#45;security&#45;entities</title>
<path fill="none" stroke="#000000" d="M271.9567,-359.8427C289.1521,-339.5555 319.5848,-307.0645 352.3882,-288 379.8563,-272.0363 412.5,-260.3673 442.2849,-252.0497"/>
<polygon fill="#000000" stroke="#000000" points="443.5222,-255.341 452.2647,-249.356 441.6981,-248.5829 443.5222,-255.341"/>
</g>
<!-- jback&#45;presentation&#45;&gt;jback&#45;core&#45;entities -->
<g id="edge21" class="edge">
<title>jback&#45;presentation&#45;&gt;jback&#45;core&#45;entities</title>
<path fill="none" stroke="#000000" d="M259.8408,-359.9874C263.9658,-330.0461 272.6971,-268.1644 281.3882,-216 282.7765,-207.668 284.4015,-198.6356 285.9331,-190.3855"/>
<polygon fill="#000000" stroke="#000000" points="289.3901,-190.9399 287.7985,-180.4654 282.5107,-189.6463 289.3901,-190.9399"/>
</g>
<!-- jback&#45;presentation&#45;&gt;jback&#45;core -->
<g id="edge20" class="edge">
<title>jback&#45;presentation&#45;&gt;jback&#45;core</title>
<path fill="none" stroke="#000000" d="M248.5227,-359.7623C236.4254,-334.8764 214.6505,-290.0822 200.6185,-261.2165"/>
<polygon fill="#000000" stroke="#000000" points="203.7016,-259.5531 196.1818,-252.0896 197.406,-262.6135 203.7016,-259.5531"/>
</g>
<!-- jback&#45;presentation&#45;&gt;jback&#45;sec&#45;base -->
<g id="edge22" class="edge">
<title>jback&#45;presentation&#45;&gt;jback&#45;sec&#45;base</title>
<path fill="none" stroke="#000000" d="M189.2839,-372.1108C125.7783,-365.0405 37.7281,-350.6505 16.3882,-324 -49.8475,-241.2807 103.326,-152.7055 187.1864,-112.3435"/>
<polygon fill="#000000" stroke="#000000" points="188.7785,-115.4621 196.3101,-108.0104 185.7755,-109.139 188.7785,-115.4621"/>
</g>
<!-- jback&#45;security&#45;&gt;jback&#45;security&#45;entities -->
<g id="edge27" class="edge">
<title>jback&#45;security&#45;&gt;jback&#45;security&#45;entities</title>
<path fill="none" stroke="#000000" d="M443.6599,-287.8314C458.4971,-278.6221 476.6898,-267.3301 492.5745,-257.4706"/>
<polygon fill="#000000" stroke="#000000" points="494.4753,-260.4102 501.1259,-252.1628 490.7837,-254.4628 494.4753,-260.4102"/>
</g>
<!-- jback&#45;security&#45;&gt;jback&#45;core&#45;entities -->
<g id="edge25" class="edge">
<title>jback&#45;security&#45;&gt;jback&#45;core&#45;entities</title>
<path fill="none" stroke="#000000" d="M398.8102,-287.7623C377.1839,-262.4436 337.9558,-216.5182 313.3617,-187.7251"/>
<polygon fill="#000000" stroke="#000000" points="315.996,-185.4202 306.8398,-180.0896 310.6734,-189.9666 315.996,-185.4202"/>
</g>
<!-- jback&#45;security&#45;&gt;jback&#45;sec&#45;base -->
<g id="edge26" class="edge">
<title>jback&#45;security&#45;&gt;jback&#45;sec&#45;base</title>
<path fill="none" stroke="#000000" d="M414.0365,-287.7776C412.4461,-254.9846 404.5802,-185.5812 367.3882,-144 351.0648,-125.7501 327.6071,-113.514 305.0993,-105.3798"/>
<polygon fill="#000000" stroke="#000000" points="306.1292,-102.0333 295.5348,-102.1392 303.8829,-108.6631 306.1292,-102.0333"/>
</g>
<!-- jback&#45;security&#45;entities&#45;&gt;jback&#45;core&#45;entities -->
<g id="edge28" class="edge">
<title>jback&#45;security&#45;entities&#45;&gt;jback&#45;core&#45;entities</title>
<path fill="none" stroke="#000000" d="M470.387,-215.9243C437.146,-205.9103 395.6587,-193.412 360.9971,-182.97"/>
<polygon fill="#000000" stroke="#000000" points="361.9988,-179.6165 351.4142,-180.0831 359.9796,-186.3189 361.9988,-179.6165"/>
</g>
<!-- jback&#45;security&#45;entities&#45;&gt;jback&#45;sec&#45;base -->
<g id="edge29" class="edge">
<title>jback&#45;security&#45;entities&#45;&gt;jback&#45;sec&#45;base</title>
<path fill="none" stroke="#000000" d="M508.6023,-215.9925C483.7198,-196.1446 441.1638,-164.3409 400.3882,-144 370.4297,-129.0552 335.387,-116.8304 305.4864,-107.8153"/>
<polygon fill="#000000" stroke="#000000" points="306.14,-104.3589 295.5581,-104.8817 304.1564,-111.072 306.14,-104.3589"/>
</g>
<!-- jback&#45;security&#45;spring&#45;&gt;jback&#45;security -->
<g id="edge30" class="edge">
<title>jback&#45;security&#45;spring&#45;&gt;jback&#45;security</title>
<path fill="none" stroke="#000000" d="M570.1695,-359.9243C541.6111,-350.0387 506.0587,-337.7321 476.1314,-327.3726"/>
<polygon fill="#000000" stroke="#000000" points="477.2232,-324.0469 466.6284,-324.0831 474.9334,-330.6618 477.2232,-324.0469"/>
</g>
<!-- jback&#45;security&#45;spring&#45;&gt;jback&#45;security&#45;entities -->
<g id="edge31" class="edge">
<title>jback&#45;security&#45;spring&#45;&gt;jback&#45;security&#45;entities</title>
<path fill="none" stroke="#000000" d="M639.4814,-359.6966C655.0406,-340.7235 673.4604,-310.7171 658.3882,-288 648.635,-273.2997 634.0057,-262.5913 618.0829,-254.7939"/>
<polygon fill="#000000" stroke="#000000" points="619.1419,-251.4329 608.5855,-250.5311 616.2755,-257.8191 619.1419,-251.4329"/>
</g>
<!-- jback&#45;core&#45;entities&#45;&gt;jback&#45;sec&#45;base -->
<g id="edge34" class="edge">
<title>jback&#45;core&#45;entities&#45;&gt;jback&#45;sec&#45;base</title>
<path fill="none" stroke="#000000" d="M277.7618,-143.8314C271.5422,-135.5386 264.056,-125.557 257.2283,-116.4533"/>
<polygon fill="#000000" stroke="#000000" points="259.9982,-114.3133 251.1982,-108.4133 254.3982,-118.5133 259.9982,-114.3133"/>
</g>
<!-- jback&#45;jpa&#45;entities&#45;&gt;jback&#45;security&#45;entities -->
<g id="edge14" class="edge">
<title>jback&#45;jpa&#45;entities&#45;&gt;jback&#45;security&#45;entities</title>
<path fill="none" stroke="#000000" d="M572.2571,-287.8314C565.8072,-279.5386 558.0437,-269.557 550.9631,-260.4533"/>
<polygon fill="#000000" stroke="#000000" points="553.6119,-258.158 544.7097,-252.4133 548.0864,-262.4556 553.6119,-258.158"/>
</g>
<!-- jback&#45;jpa&#45;entities&#45;&gt;jback&#45;core&#45;entities -->
<g id="edge13" class="edge">
<title>jback&#45;jpa&#45;entities&#45;&gt;jback&#45;core&#45;entities</title>
<path fill="none" stroke="#000000" d="M531.8166,-287.9057C504.7547,-278.3041 471.8538,-265.6744 443.3882,-252 402.1259,-232.1783 357.3058,-204.8742 327.1047,-185.5519"/>
<polygon fill="#000000" stroke="#000000" points="328.9082,-182.5504 318.6059,-180.0781 325.1178,-188.4355 328.9082,-182.5504"/>
</g>
<!-- jback&#45;core&#45;&gt;jback&#45;core&#45;entities -->
<g id="edge32" class="edge">
<title>jback&#45;core&#45;&gt;jback&#45;core&#45;entities</title>
<path fill="none" stroke="#000000" d="M213.6318,-215.8314C226.6877,-206.7927 242.6417,-195.7476 256.693,-186.0198"/>
<polygon fill="#000000" stroke="#000000" points="258.9234,-188.7326 265.1531,-180.1628 254.9389,-182.9773 258.9234,-188.7326"/>
</g>
<!-- jback&#45;core&#45;&gt;jback&#45;sec&#45;base -->
<g id="edge33" class="edge">
<title>jback&#45;core&#45;&gt;jback&#45;sec&#45;base</title>
<path fill="none" stroke="#000000" d="M192.5199,-215.9209C197.8237,-197.6406 206.5522,-168.6458 215.3882,-144 218.4823,-135.3701 222.1404,-126.0881 225.5764,-117.6954"/>
<polygon fill="#000000" stroke="#000000" points="228.8569,-118.9216 229.4607,-108.344 222.3924,-116.2364 228.8569,-118.9216"/>
</g>
<!-- jback&#45;sec&#45;model -->
<g id="node14" class="node">
<title>jback&#45;sec&#45;model</title>
<polygon fill="none" stroke="#000000" points="298.8882,-36 175.8882,-36 175.8882,0 298.8882,0 298.8882,-36"/>
<text text-anchor="middle" x="237.3882" y="-14.3" font-family="Helvetica,sans-Serif" font-size="14.00" fill="#000000">jback&#45;sec&#45;model</text>
</g>
<!-- jback&#45;sec&#45;base&#45;&gt;jback&#45;sec&#45;model -->
<g id="edge38" class="edge">
<title>jback&#45;sec&#45;base&#45;&gt;jback&#45;sec&#45;model</title>
<path fill="none" stroke="#000000" d="M237.3882,-71.8314C237.3882,-64.131 237.3882,-54.9743 237.3882,-46.4166"/>
<polygon fill="#000000" stroke="#000000" points="240.8883,-46.4132 237.3882,-36.4133 233.8883,-46.4133 240.8883,-46.4132"/>
</g>
</g>
</svg>
