<?xml version="1.0" encoding="UTF-8" standalone="no"?>
<!DOCTYPE svg PUBLIC "-//W3C//DTD SVG 1.1//EN"
 "http://www.w3.org/Graphics/SVG/1.1/DTD/svg11.dtd">
<!-- Generated by graphviz version 2.40.1 (20161225.0304)
 -->
<!-- Title: G Pages: 1 -->
<svg width="260pt" height="404pt"
 viewBox="0.00 0.00 260.35 404.00" xmlns="http://www.w3.org/2000/svg" xmlns:xlink="http://www.w3.org/1999/xlink">
<g id="graph0" class="graph" transform="scale(1 1) rotate(0) translate(4 400)">
<title>G</title>
<polygon fill="#ffffff" stroke="transparent" points="-4,4 -4,-400 256.354,-400 256.354,4 -4,4"/>
<!-- jback&#45;main -->
<g id="node1" class="node">
<title>jback&#45;main</title>
<polygon fill="none" stroke="#000000" points="120.1984,-396 33.1984,-396 33.1984,-360 120.1984,-360 120.1984,-396"/>
<text text-anchor="middle" x="76.6984" y="-374.3" font-family="Helvetica,sans-Serif" font-size="14.00" fill="#000000">jback&#45;main</text>
</g>
<!-- jback&#45;api -->
<g id="node2" class="node">
<title>jback&#45;api</title>
<polygon fill="none" stroke="#000000" points="246.1984,-324 171.1984,-324 171.1984,-288 246.1984,-288 246.1984,-324"/>
<text text-anchor="middle" x="208.6984" y="-302.3" font-family="Helvetica,sans-Serif" font-size="14.00" fill="#000000">jback&#45;api</text>
</g>
<!-- jback&#45;main&#45;&gt;jback&#45;api -->
<g id="edge1" class="edge">
<title>jback&#45;main&#45;&gt;jback&#45;api</title>
<path fill="none" stroke="#000000" d="M110.0076,-359.8314C127.1257,-350.4942 148.169,-339.016 166.4206,-329.0606"/>
<polygon fill="#000000" stroke="#000000" points="168.2969,-332.024 175.3999,-324.1628 164.9449,-325.8788 168.2969,-332.024"/>
</g>
<!-- jback&#45;core -->
<g id="node3" class="node">
<title>jback&#45;core</title>
<polygon fill="none" stroke="#000000" points="126.6984,-180 42.6984,-180 42.6984,-144 126.6984,-144 126.6984,-180"/>
<text text-anchor="middle" x="84.6984" y="-158.3" font-family="Helvetica,sans-Serif" font-size="14.00" fill="#000000">jback&#45;core</text>
</g>
<!-- jback&#45;main&#45;&gt;jback&#45;core -->
<g id="edge2" class="edge">
<title>jback&#45;main&#45;&gt;jback&#45;core</title>
<path fill="none" stroke="#000000" d="M55.3857,-359.7308C45.885,-350.1756 35.7194,-337.6372 30.6984,-324 25.1702,-308.9854 27.4814,-303.6732 30.6984,-288 38.0815,-252.0302 56.1799,-213.6499 69.3958,-188.8303"/>
<polygon fill="#000000" stroke="#000000" points="72.4869,-190.4723 74.1893,-180.0151 66.3373,-187.1282 72.4869,-190.4723"/>
</g>
<!-- jback&#45;jpa -->
<g id="node4" class="node">
<title>jback&#45;jpa</title>
<polygon fill="none" stroke="#000000" points="114.1984,-324 39.1984,-324 39.1984,-288 114.1984,-288 114.1984,-324"/>
<text text-anchor="middle" x="76.6984" y="-302.3" font-family="Helvetica,sans-Serif" font-size="14.00" fill="#000000">jback&#45;jpa</text>
</g>
<!-- jback&#45;main&#45;&gt;jback&#45;jpa -->
<g id="edge3" class="edge">
<title>jback&#45;main&#45;&gt;jback&#45;jpa</title>
<path fill="none" stroke="#000000" d="M76.6984,-359.8314C76.6984,-352.131 76.6984,-342.9743 76.6984,-334.4166"/>
<polygon fill="#000000" stroke="#000000" points="80.1985,-334.4132 76.6984,-324.4133 73.1985,-334.4133 80.1985,-334.4132"/>
</g>
<!-- jback&#45;sec&#45;base -->
<g id="node5" class="node">
<title>jback&#45;sec&#45;base</title>
<polygon fill="none" stroke="#000000" points="141.6984,-108 25.6984,-108 25.6984,-72 141.6984,-72 141.6984,-108"/>
<text text-anchor="middle" x="83.6984" y="-86.3" font-family="Helvetica,sans-Serif" font-size="14.00" fill="#000000">jback&#45;sec&#45;base</text>
</g>
<!-- jback&#45;main&#45;&gt;jback&#45;sec&#45;base -->
<g id="edge4" class="edge">
<title>jback&#45;main&#45;&gt;jback&#45;sec&#45;base</title>
<path fill="none" stroke="#000000" d="M51.6556,-359.8695C40.8864,-350.5148 29.4638,-338.105 23.6984,-324 -6.5706,-249.9474 -8.8487,-217.08 23.6984,-144 28.7318,-132.6983 37.4289,-122.7696 46.6643,-114.611"/>
<polygon fill="#000000" stroke="#000000" points="48.9799,-117.2382 54.48,-108.1828 44.5334,-111.8319 48.9799,-117.2382"/>
</g>
<!-- jback&#45;security -->
<g id="node6" class="node">
<title>jback&#45;security</title>
<polygon fill="none" stroke="#000000" points="220.6984,-252 114.6984,-252 114.6984,-216 220.6984,-216 220.6984,-252"/>
<text text-anchor="middle" x="167.6984" y="-230.3" font-family="Helvetica,sans-Serif" font-size="14.00" fill="#000000">jback&#45;security</text>
</g>
<!-- jback&#45;main&#45;&gt;jback&#45;security -->
<g id="edge5" class="edge">
<title>jback&#45;main&#45;&gt;jback&#45;security</title>
<path fill="none" stroke="#000000" d="M94.5071,-359.9799C103.889,-349.9157 115.1822,-336.8449 123.6984,-324 136.8144,-304.2172 148.4507,-279.9495 156.4574,-261.6006"/>
<polygon fill="#000000" stroke="#000000" points="159.7028,-262.9127 160.4102,-252.3415 153.2649,-260.1642 159.7028,-262.9127"/>
</g>
<!-- jback&#45;api&#45;&gt;jback&#45;core -->
<g id="edge9" class="edge">
<title>jback&#45;api&#45;&gt;jback&#45;core</title>
<path fill="none" stroke="#000000" d="M171.0919,-295.1009C148.8837,-286.7759 122.0088,-273.0776 105.6984,-252 92.0915,-234.4161 87.0623,-209.4976 85.3115,-190.3374"/>
<polygon fill="#000000" stroke="#000000" points="88.7863,-189.8409 84.6308,-180.095 81.8018,-190.3051 88.7863,-189.8409"/>
</g>
<!-- jback&#45;api&#45;&gt;jback&#45;sec&#45;base -->
<g id="edge10" class="edge">
<title>jback&#45;api&#45;&gt;jback&#45;sec&#45;base</title>
<path fill="none" stroke="#000000" d="M219.3118,-287.8764C228.7293,-269.3099 239.5839,-239.8656 229.6984,-216 210.5043,-169.6614 163.7793,-134.409 128.3168,-113.1359"/>
<polygon fill="#000000" stroke="#000000" points="129.9683,-110.0473 119.5672,-108.0304 126.4404,-116.0933 129.9683,-110.0473"/>
</g>
<!-- jback&#45;api&#45;&gt;jback&#45;security -->
<g id="edge11" class="edge">
<title>jback&#45;api&#45;&gt;jback&#45;security</title>
<path fill="none" stroke="#000000" d="M198.3524,-287.8314C193.7747,-279.7925 188.2933,-270.1666 183.2396,-261.2918"/>
<polygon fill="#000000" stroke="#000000" points="186.1736,-259.3712 178.1837,-252.4133 180.0907,-262.8351 186.1736,-259.3712"/>
</g>
<!-- jback&#45;util -->
<g id="node7" class="node">
<title>jback&#45;util</title>
<polygon fill="none" stroke="#000000" points="240.6984,-36 166.6984,-36 166.6984,0 240.6984,0 240.6984,-36"/>
<text text-anchor="middle" x="203.6984" y="-14.3" font-family="Helvetica,sans-Serif" font-size="14.00" fill="#000000">jback&#45;util</text>
</g>
<!-- jback&#45;api&#45;&gt;jback&#45;util -->
<g id="edge12" class="edge">
<title>jback&#45;api&#45;&gt;jback&#45;util</title>
<path fill="none" stroke="#000000" d="M224.6889,-287.9169C232.3522,-278.0371 240.715,-265.1563 244.6984,-252 266.7547,-179.1532 235.7056,-89.7334 216.6538,-45.4898"/>
<polygon fill="#000000" stroke="#000000" points="219.8134,-43.9807 212.5651,-36.2533 213.4125,-46.8142 219.8134,-43.9807"/>
</g>
<!-- jback&#45;core&#45;&gt;jback&#45;sec&#45;base -->
<g id="edge16" class="edge">
<title>jback&#45;core&#45;&gt;jback&#45;sec&#45;base</title>
<path fill="none" stroke="#000000" d="M84.4461,-143.8314C84.3391,-136.131 84.2119,-126.9743 84.0931,-118.4166"/>
<polygon fill="#000000" stroke="#000000" points="87.5928,-118.3637 83.9541,-108.4133 80.5935,-118.4609 87.5928,-118.3637"/>
</g>
<!-- jback&#45;core&#45;&gt;jback&#45;util -->
<g id="edge17" class="edge">
<title>jback&#45;core&#45;&gt;jback&#45;util</title>
<path fill="none" stroke="#000000" d="M110.9988,-143.8926C123.9118,-134.197 139.1364,-121.4887 150.6984,-108 167.0787,-88.8901 181.2773,-64.0444 190.8445,-45.3009"/>
<polygon fill="#000000" stroke="#000000" points="194.0922,-46.6304 195.4124,-36.1181 187.8248,-43.5127 194.0922,-46.6304"/>
</g>
<!-- jback&#45;jpa&#45;&gt;jback&#45;core -->
<g id="edge6" class="edge">
<title>jback&#45;jpa&#45;&gt;jback&#45;core</title>
<path fill="none" stroke="#000000" d="M74.242,-287.6751C72.1851,-269.4511 69.9849,-240.7198 72.6984,-216 73.6268,-207.5425 75.3498,-198.4715 77.2062,-190.2246"/>
<polygon fill="#000000" stroke="#000000" points="80.6511,-190.8678 79.5793,-180.3273 73.844,-189.2356 80.6511,-190.8678"/>
</g>
<!-- jback&#45;jpa&#45;&gt;jback&#45;sec&#45;base -->
<g id="edge7" class="edge">
<title>jback&#45;jpa&#45;&gt;jback&#45;sec&#45;base</title>
<path fill="none" stroke="#000000" d="M64.3821,-287.59C45.5984,-257.0773 13.951,-194.3929 33.6984,-144 37.8742,-133.3439 45.2497,-123.5335 53.0743,-115.2816"/>
<polygon fill="#000000" stroke="#000000" points="55.6359,-117.6713 60.3075,-108.162 50.7255,-112.6825 55.6359,-117.6713"/>
</g>
<!-- jback&#45;jpa&#45;&gt;jback&#45;security -->
<g id="edge8" class="edge">
<title>jback&#45;jpa&#45;&gt;jback&#45;security</title>
<path fill="none" stroke="#000000" d="M99.6615,-287.8314C110.8699,-278.9632 124.5193,-268.1637 136.6423,-258.5718"/>
<polygon fill="#000000" stroke="#000000" points="139.0721,-261.1125 144.7426,-252.1628 134.7287,-255.6229 139.0721,-261.1125"/>
</g>
<!-- jback&#45;sec&#45;base&#45;&gt;jback&#45;util -->
<g id="edge19" class="edge">
<title>jback&#45;sec&#45;base&#45;&gt;jback&#45;util</title>
<path fill="none" stroke="#000000" d="M113.9795,-71.8314C129.3282,-62.6221 148.1482,-51.3301 164.5807,-41.4706"/>
<polygon fill="#000000" stroke="#000000" points="166.6528,-44.3091 173.427,-36.1628 163.0513,-38.3066 166.6528,-44.3091"/>
</g>
<!-- jback&#45;sec&#45;model -->
<g id="node8" class="node">
<title>jback&#45;sec&#45;model</title>
<polygon fill="none" stroke="#000000" points="145.1984,-36 22.1984,-36 22.1984,0 145.1984,0 145.1984,-36"/>
<text text-anchor="middle" x="83.6984" y="-14.3" font-family="Helvetica,sans-Serif" font-size="14.00" fill="#000000">jback&#45;sec&#45;model</text>
</g>
<!-- jback&#45;sec&#45;base&#45;&gt;jback&#45;sec&#45;model -->
<g id="edge18" class="edge">
<title>jback&#45;sec&#45;base&#45;&gt;jback&#45;sec&#45;model</title>
<path fill="none" stroke="#000000" d="M83.6984,-71.8314C83.6984,-64.131 83.6984,-54.9743 83.6984,-46.4166"/>
<polygon fill="#000000" stroke="#000000" points="87.1985,-46.4132 83.6984,-36.4133 80.1985,-46.4133 87.1985,-46.4132"/>
</g>
<!-- jback&#45;security&#45;&gt;jback&#45;core -->
<g id="edge13" class="edge">
<title>jback&#45;security&#45;&gt;jback&#45;core</title>
<path fill="none" stroke="#000000" d="M146.754,-215.8314C136.6293,-207.0485 124.3208,-196.3712 113.3436,-186.8489"/>
<polygon fill="#000000" stroke="#000000" points="115.4835,-184.0718 105.6361,-180.1628 110.8965,-189.3595 115.4835,-184.0718"/>
</g>
<!-- jback&#45;security&#45;&gt;jback&#45;sec&#45;base -->
<g id="edge14" class="edge">
<title>jback&#45;security&#45;&gt;jback&#45;sec&#45;base</title>
<path fill="none" stroke="#000000" d="M163.6408,-215.7486C158.8933,-196.8179 149.8335,-166.8456 135.6984,-144 129.2897,-133.6421 120.6173,-123.6406 112.1927,-115.1192"/>
<polygon fill="#000000" stroke="#000000" points="114.5245,-112.5046 104.9163,-108.04 109.6432,-117.5219 114.5245,-112.5046"/>
</g>
<!-- jback&#45;security&#45;&gt;jback&#45;util -->
<g id="edge15" class="edge">
<title>jback&#45;security&#45;&gt;jback&#45;util</title>
<path fill="none" stroke="#000000" d="M170.7058,-215.9555C176.9793,-178.3144 191.5006,-91.1867 199.011,-46.1246"/>
<polygon fill="#000000" stroke="#000000" points="202.4825,-46.5844 200.6742,-36.1451 195.5778,-45.4336 202.4825,-46.5844"/>
</g>
</g>
</svg>
