<?xml version="1.0" encoding="UTF-8" standalone="no"?>
<!DOCTYPE svg PUBLIC "-//W3C//DTD SVG 1.1//EN"
 "http://www.w3.org/Graphics/SVG/1.1/DTD/svg11.dtd">
<!-- Generated by graphviz version 2.40.1 (20161225.0304)
 -->
<!-- Title: G Pages: 1 -->
<svg width="323pt" height="404pt"
 viewBox="0.00 0.00 322.54 404.00" xmlns="http://www.w3.org/2000/svg" xmlns:xlink="http://www.w3.org/1999/xlink">
<g id="graph0" class="graph" transform="scale(1 1) rotate(0) translate(4 400)">
<title>G</title>
<polygon fill="#ffffff" stroke="transparent" points="-4,4 -4,-400 318.5433,-400 318.5433,4 -4,4"/>
<!-- jback&#45;main -->
<g id="node1" class="node">
<title>jback&#45;main</title>
<polygon fill="none" stroke="#000000" points="193.5433,-396 106.5433,-396 106.5433,-360 193.5433,-360 193.5433,-396"/>
<text text-anchor="middle" x="150.0433" y="-374.3" font-family="Helvetica,sans-Serif" font-size="14.00" fill="#000000">jback&#45;main</text>
</g>
<!-- jback&#45;api -->
<g id="node2" class="node">
<title>jback&#45;api</title>
<polygon fill="none" stroke="#000000" points="94.5433,-324 19.5433,-324 19.5433,-288 94.5433,-288 94.5433,-324"/>
<text text-anchor="middle" x="57.0433" y="-302.3" font-family="Helvetica,sans-Serif" font-size="14.00" fill="#000000">jback&#45;api</text>
</g>
<!-- jback&#45;main&#45;&gt;jback&#45;api -->
<g id="edge1" class="edge">
<title>jback&#45;main&#45;&gt;jback&#45;api</title>
<path fill="none" stroke="#000000" d="M126.5755,-359.8314C115.0106,-350.8779 100.9029,-339.9558 88.425,-330.2955"/>
<polygon fill="#000000" stroke="#000000" points="90.5535,-327.5171 80.5036,-324.1628 86.2683,-333.0521 90.5535,-327.5171"/>
</g>
<!-- jback&#45;core -->
<g id="node3" class="node">
<title>jback&#45;core</title>
<polygon fill="none" stroke="#000000" points="139.0433,-180 55.0433,-180 55.0433,-144 139.0433,-144 139.0433,-180"/>
<text text-anchor="middle" x="97.0433" y="-158.3" font-family="Helvetica,sans-Serif" font-size="14.00" fill="#000000">jback&#45;core</text>
</g>
<!-- jback&#45;main&#45;&gt;jback&#45;core -->
<g id="edge2" class="edge">
<title>jback&#45;main&#45;&gt;jback&#45;core</title>
<path fill="none" stroke="#000000" d="M106.4828,-366.9909C69.7493,-356.7221 21.3916,-340.5405 10.0433,-324 -21.3557,-278.2352 30.0152,-219.9165 66.2174,-187.201"/>
<polygon fill="#000000" stroke="#000000" points="68.9371,-189.4696 74.1287,-180.234 64.3108,-184.2163 68.9371,-189.4696"/>
</g>
<!-- jback&#45;jpa -->
<g id="node4" class="node">
<title>jback&#45;jpa</title>
<polygon fill="none" stroke="#000000" points="187.5433,-324 112.5433,-324 112.5433,-288 187.5433,-288 187.5433,-324"/>
<text text-anchor="middle" x="150.0433" y="-302.3" font-family="Helvetica,sans-Serif" font-size="14.00" fill="#000000">jback&#45;jpa</text>
</g>
<!-- jback&#45;main&#45;&gt;jback&#45;jpa -->
<g id="edge3" class="edge">
<title>jback&#45;main&#45;&gt;jback&#45;jpa</title>
<path fill="none" stroke="#000000" d="M150.0433,-359.8314C150.0433,-352.131 150.0433,-342.9743 150.0433,-334.4166"/>
<polygon fill="#000000" stroke="#000000" points="153.5434,-334.4132 150.0433,-324.4133 146.5434,-334.4133 153.5434,-334.4132"/>
</g>
<!-- jback&#45;sec&#45;base -->
<g id="node5" class="node">
<title>jback&#45;sec&#45;base</title>
<polygon fill="none" stroke="#000000" points="311.0433,-108 195.0433,-108 195.0433,-72 311.0433,-72 311.0433,-108"/>
<text text-anchor="middle" x="253.0433" y="-86.3" font-family="Helvetica,sans-Serif" font-size="14.00" fill="#000000">jback&#45;sec&#45;base</text>
</g>
<!-- jback&#45;main&#45;&gt;jback&#45;sec&#45;base -->
<g id="edge4" class="edge">
<title>jback&#45;main&#45;&gt;jback&#45;sec&#45;base</title>
<path fill="none" stroke="#000000" d="M175.7045,-359.946C187.9293,-350.3543 202.0303,-337.7213 212.0433,-324 257.4923,-261.7192 258.4276,-165.6202 255.6246,-118.3032"/>
<polygon fill="#000000" stroke="#000000" points="259.1055,-117.9063 254.9208,-108.173 252.1224,-118.3915 259.1055,-117.9063"/>
</g>
<!-- jback&#45;security -->
<g id="node6" class="node">
<title>jback&#45;security</title>
<polygon fill="none" stroke="#000000" points="234.0433,-252 128.0433,-252 128.0433,-216 234.0433,-216 234.0433,-252"/>
<text text-anchor="middle" x="181.0433" y="-230.3" font-family="Helvetica,sans-Serif" font-size="14.00" fill="#000000">jback&#45;security</text>
</g>
<!-- jback&#45;main&#45;&gt;jback&#45;security -->
<g id="edge5" class="edge">
<title>jback&#45;main&#45;&gt;jback&#45;security</title>
<path fill="none" stroke="#000000" d="M171.356,-359.7308C180.8567,-350.1756 191.0223,-337.6372 196.0433,-324 203.4782,-303.8069 198.7989,-279.7022 192.7684,-261.5232"/>
<polygon fill="#000000" stroke="#000000" points="196.0488,-260.3023 189.3476,-252.0959 189.4686,-262.69 196.0488,-260.3023"/>
</g>
<!-- jback&#45;api&#45;&gt;jback&#45;core -->
<g id="edge8" class="edge">
<title>jback&#45;api&#45;&gt;jback&#45;core</title>
<path fill="none" stroke="#000000" d="M62.1093,-287.7623C68.962,-263.0928 81.2489,-218.8598 89.273,-189.9731"/>
<polygon fill="#000000" stroke="#000000" points="92.7142,-190.6616 92.0184,-180.0896 85.9696,-188.788 92.7142,-190.6616"/>
</g>
<!-- jback&#45;api&#45;&gt;jback&#45;security -->
<g id="edge9" class="edge">
<title>jback&#45;api&#45;&gt;jback&#45;security</title>
<path fill="none" stroke="#000000" d="M88.3337,-287.8314C104.341,-278.5368 124.0019,-267.1208 141.0927,-257.1971"/>
<polygon fill="#000000" stroke="#000000" points="142.8725,-260.211 149.7629,-252.1628 139.3575,-254.1575 142.8725,-260.211"/>
</g>
<!-- jback&#45;util -->
<g id="node7" class="node">
<title>jback&#45;util</title>
<polygon fill="none" stroke="#000000" points="162.0433,-36 88.0433,-36 88.0433,0 162.0433,0 162.0433,-36"/>
<text text-anchor="middle" x="125.0433" y="-14.3" font-family="Helvetica,sans-Serif" font-size="14.00" fill="#000000">jback&#45;util</text>
</g>
<!-- jback&#45;api&#45;&gt;jback&#45;util -->
<g id="edge10" class="edge">
<title>jback&#45;api&#45;&gt;jback&#45;util</title>
<path fill="none" stroke="#000000" d="M51.7754,-287.5896C43.9255,-257.0761 31.5525,-194.3908 46.0433,-144 57.022,-105.8221 83.3402,-68.0218 102.5936,-43.9356"/>
<polygon fill="#000000" stroke="#000000" points="105.4533,-45.9674 109.0725,-36.0098 100.0337,-41.5371 105.4533,-45.9674"/>
</g>
<!-- jback&#45;core&#45;&gt;jback&#45;sec&#45;base -->
<g id="edge14" class="edge">
<title>jback&#45;core&#45;&gt;jback&#45;sec&#45;base</title>
<path fill="none" stroke="#000000" d="M136.4087,-143.8314C157.18,-134.2446 182.8416,-122.4008 204.8014,-112.2655"/>
<polygon fill="#000000" stroke="#000000" points="206.3481,-115.4065 213.961,-108.038 203.4147,-109.0508 206.3481,-115.4065"/>
</g>
<!-- jback&#45;core&#45;&gt;jback&#45;util -->
<g id="edge15" class="edge">
<title>jback&#45;core&#45;&gt;jback&#45;util</title>
<path fill="none" stroke="#000000" d="M100.5895,-143.7623C105.3864,-119.0928 113.9872,-74.8598 119.6041,-45.9731"/>
<polygon fill="#000000" stroke="#000000" points="123.0528,-46.5738 121.5259,-36.0896 116.1814,-45.2377 123.0528,-46.5738"/>
</g>
<!-- jback&#45;jpa&#45;&gt;jback&#45;core -->
<g id="edge6" class="edge">
<title>jback&#45;jpa&#45;&gt;jback&#45;core</title>
<path fill="none" stroke="#000000" d="M137.787,-287.6618C131.4495,-277.5044 124.0207,-264.446 119.0433,-252 111.0047,-231.8996 105.3377,-208.0589 101.7706,-189.9661"/>
<polygon fill="#000000" stroke="#000000" points="105.1942,-189.2329 99.9108,-180.0493 98.3141,-190.5231 105.1942,-189.2329"/>
</g>
<!-- jback&#45;jpa&#45;&gt;jback&#45;security -->
<g id="edge7" class="edge">
<title>jback&#45;jpa&#45;&gt;jback&#45;security</title>
<path fill="none" stroke="#000000" d="M157.8659,-287.8314C161.2542,-279.9617 165.2974,-270.5712 169.0509,-261.8533"/>
<polygon fill="#000000" stroke="#000000" points="172.3754,-262.9822 173.1154,-252.4133 165.946,-260.214 172.3754,-262.9822"/>
</g>
<!-- jback&#45;sec&#45;base&#45;&gt;jback&#45;util -->
<g id="edge17" class="edge">
<title>jback&#45;sec&#45;base&#45;&gt;jback&#45;util</title>
<path fill="none" stroke="#000000" d="M220.7435,-71.8314C204.2199,-62.5368 183.9247,-51.1208 166.2826,-41.1971"/>
<polygon fill="#000000" stroke="#000000" points="167.7645,-38.015 157.3328,-36.1628 164.3326,-44.116 167.7645,-38.015"/>
</g>
<!-- jback&#45;sec&#45;model -->
<g id="node8" class="node">
<title>jback&#45;sec&#45;model</title>
<polygon fill="none" stroke="#000000" points="314.5433,-36 191.5433,-36 191.5433,0 314.5433,0 314.5433,-36"/>
<text text-anchor="middle" x="253.0433" y="-14.3" font-family="Helvetica,sans-Serif" font-size="14.00" fill="#000000">jback&#45;sec&#45;model</text>
</g>
<!-- jback&#45;sec&#45;base&#45;&gt;jback&#45;sec&#45;model -->
<g id="edge16" class="edge">
<title>jback&#45;sec&#45;base&#45;&gt;jback&#45;sec&#45;model</title>
<path fill="none" stroke="#000000" d="M253.0433,-71.8314C253.0433,-64.131 253.0433,-54.9743 253.0433,-46.4166"/>
<polygon fill="#000000" stroke="#000000" points="256.5434,-46.4132 253.0433,-36.4133 249.5434,-46.4133 256.5434,-46.4132"/>
</g>
<!-- jback&#45;security&#45;&gt;jback&#45;core -->
<g id="edge11" class="edge">
<title>jback&#45;security&#45;&gt;jback&#45;core</title>
<path fill="none" stroke="#000000" d="M159.8466,-215.8314C149.5999,-207.0485 137.143,-196.3712 126.0336,-186.8489"/>
<polygon fill="#000000" stroke="#000000" points="128.1036,-184.0134 118.2333,-180.1628 123.5481,-189.3282 128.1036,-184.0134"/>
</g>
<!-- jback&#45;security&#45;&gt;jback&#45;sec&#45;base -->
<g id="edge12" class="edge">
<title>jback&#45;security&#45;&gt;jback&#45;sec&#45;base</title>
<path fill="none" stroke="#000000" d="M190.1622,-215.7623C202.6051,-190.8764 225.0022,-146.0822 239.4351,-117.2165"/>
<polygon fill="#000000" stroke="#000000" points="242.6568,-118.5992 243.9985,-108.0896 236.3958,-115.4686 242.6568,-118.5992"/>
</g>
<!-- jback&#45;security&#45;&gt;jback&#45;util -->
<g id="edge13" class="edge">
<title>jback&#45;security&#45;&gt;jback&#45;util</title>
<path fill="none" stroke="#000000" d="M176.3651,-215.9555C166.5857,-178.235 143.9223,-90.8188 132.2611,-45.8399"/>
<polygon fill="#000000" stroke="#000000" points="135.6453,-44.9466 129.7476,-36.1451 128.8693,-46.7034 135.6453,-44.9466"/>
</g>
</g>
</svg>
