<?xml version="1.0" encoding="UTF-8" standalone="no"?>
<!DOCTYPE svg PUBLIC "-//W3C//DTD SVG 1.1//EN"
 "http://www.w3.org/Graphics/SVG/1.1/DTD/svg11.dtd">
<!-- Generated by graphviz version 2.40.1 (20161225.0304)
 -->
<!-- Title: G Pages: 1 -->
<svg width="347pt" height="404pt"
 viewBox="0.00 0.00 347.23 404.00" xmlns="http://www.w3.org/2000/svg" xmlns:xlink="http://www.w3.org/1999/xlink">
<g id="graph0" class="graph" transform="scale(1 1) rotate(0) translate(4 400)">
<title>G</title>
<polygon fill="#ffffff" stroke="transparent" points="-4,4 -4,-400 343.2341,-400 343.2341,4 -4,4"/>
<!-- jback&#45;main -->
<g id="node1" class="node">
<title>jback&#45;main</title>
<polygon fill="none" stroke="#000000" points="193.2341,-396 106.2341,-396 106.2341,-360 193.2341,-360 193.2341,-396"/>
<text text-anchor="middle" x="149.7341" y="-374.3" font-family="Helvetica,sans-Serif" font-size="14.00" fill="#000000">jback&#45;main</text>
</g>
<!-- jback&#45;api -->
<g id="node2" class="node">
<title>jback&#45;api</title>
<polygon fill="none" stroke="#000000" points="187.2341,-324 112.2341,-324 112.2341,-288 187.2341,-288 187.2341,-324"/>
<text text-anchor="middle" x="149.7341" y="-302.3" font-family="Helvetica,sans-Serif" font-size="14.00" fill="#000000">jback&#45;api</text>
</g>
<!-- jback&#45;main&#45;&gt;jback&#45;api -->
<g id="edge1" class="edge">
<title>jback&#45;main&#45;&gt;jback&#45;api</title>
<path fill="none" stroke="#000000" d="M149.7341,-359.8314C149.7341,-352.131 149.7341,-342.9743 149.7341,-334.4166"/>
<polygon fill="#000000" stroke="#000000" points="153.2342,-334.4132 149.7341,-324.4133 146.2342,-334.4133 153.2342,-334.4132"/>
</g>
<!-- jback&#45;core -->
<g id="node3" class="node">
<title>jback&#45;core</title>
<polygon fill="none" stroke="#000000" points="167.7341,-180 83.7341,-180 83.7341,-144 167.7341,-144 167.7341,-180"/>
<text text-anchor="middle" x="125.7341" y="-158.3" font-family="Helvetica,sans-Serif" font-size="14.00" fill="#000000">jback&#45;core</text>
</g>
<!-- jback&#45;main&#45;&gt;jback&#45;core -->
<g id="edge2" class="edge">
<title>jback&#45;main&#45;&gt;jback&#45;core</title>
<path fill="none" stroke="#000000" d="M106.1736,-366.9909C69.4401,-356.7221 21.0824,-340.5405 9.7341,-324 -24.3703,-274.2921 41.7121,-217.189 87.3838,-185.7938"/>
<polygon fill="#000000" stroke="#000000" points="89.5795,-188.5353 95.9277,-180.0529 85.6754,-182.7251 89.5795,-188.5353"/>
</g>
<!-- jback&#45;jpa -->
<g id="node4" class="node">
<title>jback&#45;jpa</title>
<polygon fill="none" stroke="#000000" points="94.2341,-324 19.2341,-324 19.2341,-288 94.2341,-288 94.2341,-324"/>
<text text-anchor="middle" x="56.7341" y="-302.3" font-family="Helvetica,sans-Serif" font-size="14.00" fill="#000000">jback&#45;jpa</text>
</g>
<!-- jback&#45;main&#45;&gt;jback&#45;jpa -->
<g id="edge3" class="edge">
<title>jback&#45;main&#45;&gt;jback&#45;jpa</title>
<path fill="none" stroke="#000000" d="M126.2662,-359.8314C114.7014,-350.8779 100.5937,-339.9558 88.1157,-330.2955"/>
<polygon fill="#000000" stroke="#000000" points="90.2442,-327.5171 80.1944,-324.1628 85.959,-333.0521 90.2442,-327.5171"/>
</g>
<!-- jback&#45;sec&#45;base -->
<g id="node5" class="node">
<title>jback&#45;sec&#45;base</title>
<polygon fill="none" stroke="#000000" points="335.7341,-108 219.7341,-108 219.7341,-72 335.7341,-72 335.7341,-108"/>
<text text-anchor="middle" x="277.7341" y="-86.3" font-family="Helvetica,sans-Serif" font-size="14.00" fill="#000000">jback&#45;sec&#45;base</text>
</g>
<!-- jback&#45;main&#45;&gt;jback&#45;sec&#45;base -->
<g id="edge4" class="edge">
<title>jback&#45;main&#45;&gt;jback&#45;sec&#45;base</title>
<path fill="none" stroke="#000000" d="M176.3505,-359.8196C206.1613,-337.9208 253.4713,-298.2531 277.7341,-252 300.3061,-208.9699 302.1153,-192.0271 294.7341,-144 293.3966,-135.2979 290.9137,-126.074 288.2507,-117.759"/>
<polygon fill="#000000" stroke="#000000" points="291.5187,-116.4982 284.9779,-108.1634 284.8934,-118.7579 291.5187,-116.4982"/>
</g>
<!-- jback&#45;security -->
<g id="node6" class="node">
<title>jback&#45;security</title>
<polygon fill="none" stroke="#000000" points="246.7341,-252 140.7341,-252 140.7341,-216 246.7341,-216 246.7341,-252"/>
<text text-anchor="middle" x="193.7341" y="-230.3" font-family="Helvetica,sans-Serif" font-size="14.00" fill="#000000">jback&#45;security</text>
</g>
<!-- jback&#45;main&#45;&gt;jback&#45;security -->
<g id="edge5" class="edge">
<title>jback&#45;main&#45;&gt;jback&#45;security</title>
<path fill="none" stroke="#000000" d="M171.0467,-359.7308C180.5474,-350.1756 190.713,-337.6372 195.7341,-324 203.0016,-304.2612 202.0749,-280.4018 199.5612,-262.2101"/>
<polygon fill="#000000" stroke="#000000" points="202.9986,-261.5414 197.9476,-252.228 196.0883,-262.6584 202.9986,-261.5414"/>
</g>
<!-- jback&#45;api&#45;&gt;jback&#45;core -->
<g id="edge8" class="edge">
<title>jback&#45;api&#45;&gt;jback&#45;core</title>
<path fill="none" stroke="#000000" d="M142.3817,-287.819C138.5345,-277.4898 134.1365,-264.2175 131.7341,-252 127.7118,-231.5448 126.2503,-208.0259 125.774,-190.1613"/>
<polygon fill="#000000" stroke="#000000" points="129.2725,-190.0403 125.593,-180.1049 122.2736,-190.1663 129.2725,-190.0403"/>
</g>
<!-- jback&#45;api&#45;&gt;jback&#45;sec&#45;base -->
<g id="edge9" class="edge">
<title>jback&#45;api&#45;&gt;jback&#45;sec&#45;base</title>
<path fill="none" stroke="#000000" d="M187.3141,-296.5385C210.7879,-288.6114 239.5352,-274.8202 255.7341,-252 283.8271,-212.4237 284.2062,-153.4405 281.3605,-118.6329"/>
<polygon fill="#000000" stroke="#000000" points="284.8014,-117.8528 280.3542,-108.2365 277.834,-118.5272 284.8014,-117.8528"/>
</g>
<!-- jback&#45;api&#45;&gt;jback&#45;security -->
<g id="edge10" class="edge">
<title>jback&#45;api&#45;&gt;jback&#45;security</title>
<path fill="none" stroke="#000000" d="M160.8371,-287.8314C165.8015,-279.7079 171.7562,-269.9637 177.2268,-261.0118"/>
<polygon fill="#000000" stroke="#000000" points="180.2534,-262.7712 182.4815,-252.4133 174.2805,-259.121 180.2534,-262.7712"/>
</g>
<!-- jback&#45;util -->
<g id="node7" class="node">
<title>jback&#45;util</title>
<polygon fill="none" stroke="#000000" points="188.7341,-36 114.7341,-36 114.7341,0 188.7341,0 188.7341,-36"/>
<text text-anchor="middle" x="151.7341" y="-14.3" font-family="Helvetica,sans-Serif" font-size="14.00" fill="#000000">jback&#45;util</text>
</g>
<!-- jback&#45;api&#45;&gt;jback&#45;util -->
<g id="edge11" class="edge">
<title>jback&#45;api&#45;&gt;jback&#45;util</title>
<path fill="none" stroke="#000000" d="M131.608,-287.7917C104.791,-258.5681 59.2884,-198.8953 74.7341,-144 85.4174,-106.0305 111.0728,-68.188 129.8444,-44.0351"/>
<polygon fill="#000000" stroke="#000000" points="132.6805,-46.0918 136.1612,-36.0851 127.1999,-41.7371 132.6805,-46.0918"/>
</g>
<!-- jback&#45;core&#45;&gt;jback&#45;sec&#45;base -->
<g id="edge15" class="edge">
<title>jback&#45;core&#45;&gt;jback&#45;sec&#45;base</title>
<path fill="none" stroke="#000000" d="M164.0901,-143.8314C184.2385,-134.2874 209.1093,-122.5065 230.4423,-112.4013"/>
<polygon fill="#000000" stroke="#000000" points="232.1148,-115.482 239.6538,-108.038 229.1181,-109.1558 232.1148,-115.482"/>
</g>
<!-- jback&#45;core&#45;&gt;jback&#45;util -->
<g id="edge16" class="edge">
<title>jback&#45;core&#45;&gt;jback&#45;util</title>
<path fill="none" stroke="#000000" d="M129.027,-143.7623C133.4812,-119.0928 141.4677,-74.8598 146.6834,-45.9731"/>
<polygon fill="#000000" stroke="#000000" points="150.1353,-46.5524 148.4679,-36.0896 143.2467,-45.3086 150.1353,-46.5524"/>
</g>
<!-- jback&#45;jpa&#45;&gt;jback&#45;core -->
<g id="edge6" class="edge">
<title>jback&#45;jpa&#45;&gt;jback&#45;core</title>
<path fill="none" stroke="#000000" d="M65.4729,-287.7623C77.3974,-262.8764 98.8613,-218.0822 112.6928,-189.2165"/>
<polygon fill="#000000" stroke="#000000" points="115.9012,-190.6202 117.0661,-180.0896 109.5885,-187.5953 115.9012,-190.6202"/>
</g>
<!-- jback&#45;jpa&#45;&gt;jback&#45;security -->
<g id="edge7" class="edge">
<title>jback&#45;jpa&#45;&gt;jback&#45;security</title>
<path fill="none" stroke="#000000" d="M91.3049,-287.8314C109.1526,-278.4516 131.1114,-266.9112 150.1141,-256.9244"/>
<polygon fill="#000000" stroke="#000000" points="151.9505,-259.9132 159.1742,-252.1628 148.694,-253.7168 151.9505,-259.9132"/>
</g>
<!-- jback&#45;sec&#45;base&#45;&gt;jback&#45;util -->
<g id="edge18" class="edge">
<title>jback&#45;sec&#45;base&#45;&gt;jback&#45;util</title>
<path fill="none" stroke="#000000" d="M245.9389,-71.8314C229.6735,-62.5368 209.6955,-51.1208 192.329,-41.1971"/>
<polygon fill="#000000" stroke="#000000" points="193.9379,-38.0854 183.519,-36.1628 190.4649,-44.1631 193.9379,-38.0854"/>
</g>
<!-- jback&#45;sec&#45;model -->
<g id="node8" class="node">
<title>jback&#45;sec&#45;model</title>
<polygon fill="none" stroke="#000000" points="339.2341,-36 216.2341,-36 216.2341,0 339.2341,0 339.2341,-36"/>
<text text-anchor="middle" x="277.7341" y="-14.3" font-family="Helvetica,sans-Serif" font-size="14.00" fill="#000000">jback&#45;sec&#45;model</text>
</g>
<!-- jback&#45;sec&#45;base&#45;&gt;jback&#45;sec&#45;model -->
<g id="edge17" class="edge">
<title>jback&#45;sec&#45;base&#45;&gt;jback&#45;sec&#45;model</title>
<path fill="none" stroke="#000000" d="M277.7341,-71.8314C277.7341,-64.131 277.7341,-54.9743 277.7341,-46.4166"/>
<polygon fill="#000000" stroke="#000000" points="281.2342,-46.4132 277.7341,-36.4133 274.2342,-46.4133 281.2342,-46.4132"/>
</g>
<!-- jback&#45;security&#45;&gt;jback&#45;core -->
<g id="edge12" class="edge">
<title>jback&#45;security&#45;&gt;jback&#45;core</title>
<path fill="none" stroke="#000000" d="M176.5748,-215.8314C168.5829,-207.3694 158.9302,-197.1489 150.1924,-187.8971"/>
<polygon fill="#000000" stroke="#000000" points="152.5352,-185.2802 143.1244,-180.4133 147.4461,-190.0866 152.5352,-185.2802"/>
</g>
<!-- jback&#45;security&#45;&gt;jback&#45;sec&#45;base -->
<g id="edge13" class="edge">
<title>jback&#45;security&#45;&gt;jback&#45;sec&#45;base</title>
<path fill="none" stroke="#000000" d="M204.3727,-215.7623C218.9526,-190.7682 245.2468,-145.6924 262.0769,-116.8409"/>
<polygon fill="#000000" stroke="#000000" points="265.1662,-118.491 267.1818,-108.0896 259.1198,-114.9639 265.1662,-118.491"/>
</g>
<!-- jback&#45;security&#45;&gt;jback&#45;util -->
<g id="edge14" class="edge">
<title>jback&#45;security&#45;&gt;jback&#45;util</title>
<path fill="none" stroke="#000000" d="M190.3319,-215.7191C186.9345,-197.5286 181.5407,-168.822 176.7341,-144 170.2418,-110.4738 162.5717,-71.9747 157.4556,-46.4467"/>
<polygon fill="#000000" stroke="#000000" points="160.8292,-45.4686 155.4303,-36.3525 153.966,-46.8457 160.8292,-45.4686"/>
</g>
</g>
</svg>
