<?xml version="1.0" encoding="UTF-8" standalone="no"?>
<!DOCTYPE svg PUBLIC "-//W3C//DTD SVG 1.1//EN"
 "http://www.w3.org/Graphics/SVG/1.1/DTD/svg11.dtd">
<!-- Generated by graphviz version 2.40.1 (20161225.0304)
 -->
<!-- Title: G Pages: 1 -->
<svg width="315pt" height="404pt"
 viewBox="0.00 0.00 314.78 404.00" xmlns="http://www.w3.org/2000/svg" xmlns:xlink="http://www.w3.org/1999/xlink">
<g id="graph0" class="graph" transform="scale(1 1) rotate(0) translate(4 400)">
<title>G</title>
<polygon fill="#ffffff" stroke="transparent" points="-4,4 -4,-400 310.7771,-400 310.7771,4 -4,4"/>
<!-- jback&#45;main -->
<g id="node1" class="node">
<title>jback&#45;main</title>
<polygon fill="none" stroke="#000000" points="144.7771,-396 57.7771,-396 57.7771,-360 144.7771,-360 144.7771,-396"/>
<text text-anchor="middle" x="101.2771" y="-374.3" font-family="Helvetica,sans-Serif" font-size="14.00" fill="#000000">jback&#45;main</text>
</g>
<!-- jback&#45;api -->
<g id="node2" class="node">
<title>jback&#45;api</title>
<polygon fill="none" stroke="#000000" points="92.7771,-324 17.7771,-324 17.7771,-288 92.7771,-288 92.7771,-324"/>
<text text-anchor="middle" x="55.2771" y="-302.3" font-family="Helvetica,sans-Serif" font-size="14.00" fill="#000000">jback&#45;api</text>
</g>
<!-- jback&#45;main&#45;&gt;jback&#45;api -->
<g id="edge1" class="edge">
<title>jback&#45;main&#45;&gt;jback&#45;api</title>
<path fill="none" stroke="#000000" d="M89.6693,-359.8314C84.4793,-351.7079 78.2539,-341.9637 72.5346,-333.0118"/>
<polygon fill="#000000" stroke="#000000" points="75.3745,-330.9559 67.0411,-324.4133 69.4756,-334.7246 75.3745,-330.9559"/>
</g>
<!-- jback&#45;core -->
<g id="node3" class="node">
<title>jback&#45;core</title>
<polygon fill="none" stroke="#000000" points="139.2771,-180 55.2771,-180 55.2771,-144 139.2771,-144 139.2771,-180"/>
<text text-anchor="middle" x="97.2771" y="-158.3" font-family="Helvetica,sans-Serif" font-size="14.00" fill="#000000">jback&#45;core</text>
</g>
<!-- jback&#45;main&#45;&gt;jback&#45;core -->
<g id="edge2" class="edge">
<title>jback&#45;main&#45;&gt;jback&#45;core</title>
<path fill="none" stroke="#000000" d="M57.4666,-363.8352C38.8447,-355.3944 18.9895,-342.6075 8.2771,-324 -19.4088,-275.9097 30.9154,-218.8717 66.4941,-186.916"/>
<polygon fill="#000000" stroke="#000000" points="69.0513,-189.3291 74.2734,-180.1106 64.4424,-184.0606 69.0513,-189.3291"/>
</g>
<!-- jback&#45;jpa -->
<g id="node4" class="node">
<title>jback&#45;jpa</title>
<polygon fill="none" stroke="#000000" points="185.7771,-324 110.7771,-324 110.7771,-288 185.7771,-288 185.7771,-324"/>
<text text-anchor="middle" x="148.2771" y="-302.3" font-family="Helvetica,sans-Serif" font-size="14.00" fill="#000000">jback&#45;jpa</text>
</g>
<!-- jback&#45;main&#45;&gt;jback&#45;jpa -->
<g id="edge3" class="edge">
<title>jback&#45;main&#45;&gt;jback&#45;jpa</title>
<path fill="none" stroke="#000000" d="M113.1372,-359.8314C118.44,-351.7079 124.8008,-341.9637 130.6444,-333.0118"/>
<polygon fill="#000000" stroke="#000000" points="133.7219,-334.7003 136.2573,-324.4133 127.8602,-330.8739 133.7219,-334.7003"/>
</g>
<!-- jback&#45;security -->
<g id="node5" class="node">
<title>jback&#45;security</title>
<polygon fill="none" stroke="#000000" points="237.2771,-252 131.2771,-252 131.2771,-216 237.2771,-216 237.2771,-252"/>
<text text-anchor="middle" x="184.2771" y="-230.3" font-family="Helvetica,sans-Serif" font-size="14.00" fill="#000000">jback&#45;security</text>
</g>
<!-- jback&#45;main&#45;&gt;jback&#45;security -->
<g id="edge4" class="edge">
<title>jback&#45;main&#45;&gt;jback&#45;security</title>
<path fill="none" stroke="#000000" d="M145.0548,-364.1673C164.0151,-355.754 184.3407,-342.8952 195.2771,-324 206.1721,-305.1762 202.1024,-280.4549 196.0478,-261.6853"/>
<polygon fill="#000000" stroke="#000000" points="199.3241,-260.4525 192.6663,-252.2108 192.7314,-262.8055 199.3241,-260.4525"/>
</g>
<!-- jback&#45;api&#45;&gt;jback&#45;core -->
<g id="edge7" class="edge">
<title>jback&#45;api&#45;&gt;jback&#45;core</title>
<path fill="none" stroke="#000000" d="M60.5964,-287.7623C67.7917,-263.0928 80.693,-218.8598 89.1183,-189.9731"/>
<polygon fill="#000000" stroke="#000000" points="92.5609,-190.6696 92.0009,-180.0896 85.8409,-188.7096 92.5609,-190.6696"/>
</g>
<!-- jback&#45;api&#45;&gt;jback&#45;security -->
<g id="edge8" class="edge">
<title>jback&#45;api&#45;&gt;jback&#45;security</title>
<path fill="none" stroke="#000000" d="M87.8292,-287.8314C104.4819,-278.5368 124.9356,-267.1208 142.7156,-257.1971"/>
<polygon fill="#000000" stroke="#000000" points="144.7092,-260.0927 151.7353,-252.1628 141.2976,-253.9803 144.7092,-260.0927"/>
</g>
<!-- jback&#45;util -->
<g id="node6" class="node">
<title>jback&#45;util</title>
<polygon fill="none" stroke="#000000" points="154.2771,-36 80.2771,-36 80.2771,0 154.2771,0 154.2771,-36"/>
<text text-anchor="middle" x="117.2771" y="-14.3" font-family="Helvetica,sans-Serif" font-size="14.00" fill="#000000">jback&#45;util</text>
</g>
<!-- jback&#45;api&#45;&gt;jback&#45;util -->
<g id="edge9" class="edge">
<title>jback&#45;api&#45;&gt;jback&#45;util</title>
<path fill="none" stroke="#000000" d="M50.6441,-287.654C43.7571,-257.2333 32.9815,-194.6781 46.2771,-144 56.0378,-106.7954 79.54,-68.9997 96.8432,-44.6422"/>
<polygon fill="#000000" stroke="#000000" points="99.8558,-46.4502 102.9007,-36.3023 94.1921,-42.3365 99.8558,-46.4502"/>
</g>
<!-- jback&#45;core&#45;&gt;jback&#45;util -->
<g id="edge14" class="edge">
<title>jback&#45;core&#45;&gt;jback&#45;util</title>
<path fill="none" stroke="#000000" d="M99.8101,-143.7623C103.2214,-119.201 109.326,-75.2474 113.339,-46.3541"/>
<polygon fill="#000000" stroke="#000000" points="116.8556,-46.4761 114.7646,-36.0896 109.9221,-45.513 116.8556,-46.4761"/>
</g>
<!-- jback&#45;sec&#45;base -->
<g id="node7" class="node">
<title>jback&#45;sec&#45;base</title>
<polygon fill="none" stroke="#000000" points="303.2771,-108 187.2771,-108 187.2771,-72 303.2771,-72 303.2771,-108"/>
<text text-anchor="middle" x="245.2771" y="-86.3" font-family="Helvetica,sans-Serif" font-size="14.00" fill="#000000">jback&#45;sec&#45;base</text>
</g>
<!-- jback&#45;core&#45;&gt;jback&#45;sec&#45;base -->
<g id="edge13" class="edge">
<title>jback&#45;core&#45;&gt;jback&#45;sec&#45;base</title>
<path fill="none" stroke="#000000" d="M134.6237,-143.8314C154.1539,-134.3302 178.2411,-122.6121 198.9502,-112.5374"/>
<polygon fill="#000000" stroke="#000000" points="200.7378,-115.56 208.199,-108.038 197.6755,-109.2654 200.7378,-115.56"/>
</g>
<!-- jback&#45;jpa&#45;&gt;jback&#45;core -->
<g id="edge5" class="edge">
<title>jback&#45;jpa&#45;&gt;jback&#45;core</title>
<path fill="none" stroke="#000000" d="M138.5438,-287.8601C133.2641,-277.5439 126.8935,-264.2708 122.2771,-252 114.6397,-231.6994 108.1586,-208.0444 103.7104,-190.0815"/>
<polygon fill="#000000" stroke="#000000" points="107.0815,-189.131 101.3328,-180.2314 100.277,-190.7735 107.0815,-189.131"/>
</g>
<!-- jback&#45;jpa&#45;&gt;jback&#45;security -->
<g id="edge6" class="edge">
<title>jback&#45;jpa&#45;&gt;jback&#45;security</title>
<path fill="none" stroke="#000000" d="M157.3614,-287.8314C161.3385,-279.8771 166.0926,-270.369 170.4909,-261.5723"/>
<polygon fill="#000000" stroke="#000000" points="173.7287,-262.9228 175.0704,-252.4133 167.4678,-259.7923 173.7287,-262.9228"/>
</g>
<!-- jback&#45;security&#45;&gt;jback&#45;core -->
<g id="edge10" class="edge">
<title>jback&#45;security&#45;&gt;jback&#45;core</title>
<path fill="none" stroke="#000000" d="M162.3233,-215.8314C151.6076,-206.9632 138.5582,-196.1637 126.968,-186.5718"/>
<polygon fill="#000000" stroke="#000000" points="129.1593,-183.8422 119.2238,-180.1628 124.6963,-189.2349 129.1593,-183.8422"/>
</g>
<!-- jback&#45;security&#45;&gt;jback&#45;util -->
<g id="edge12" class="edge">
<title>jback&#45;security&#45;&gt;jback&#45;util</title>
<path fill="none" stroke="#000000" d="M178.6799,-215.9555C166.9796,-178.235 139.8644,-90.8188 125.9126,-45.8399"/>
<polygon fill="#000000" stroke="#000000" points="129.211,-44.6592 122.9054,-36.1451 122.5252,-46.7331 129.211,-44.6592"/>
</g>
<!-- jback&#45;security&#45;&gt;jback&#45;sec&#45;base -->
<g id="edge11" class="edge">
<title>jback&#45;security&#45;&gt;jback&#45;sec&#45;base</title>
<path fill="none" stroke="#000000" d="M192.0028,-215.7623C202.4989,-190.9846 221.3552,-146.4714 233.588,-117.5939"/>
<polygon fill="#000000" stroke="#000000" points="236.9363,-118.6628 237.6141,-108.0896 230.4907,-115.9323 236.9363,-118.6628"/>
</g>
<!-- jback&#45;sec&#45;base&#45;&gt;jback&#45;util -->
<g id="edge16" class="edge">
<title>jback&#45;sec&#45;base&#45;&gt;jback&#45;util</title>
<path fill="none" stroke="#000000" d="M212.9773,-71.8314C196.4537,-62.5368 176.1585,-51.1208 158.5164,-41.1971"/>
<polygon fill="#000000" stroke="#000000" points="159.9982,-38.015 149.5665,-36.1628 156.5664,-44.116 159.9982,-38.015"/>
</g>
<!-- jback&#45;sec&#45;model -->
<g id="node8" class="node">
<title>jback&#45;sec&#45;model</title>
<polygon fill="none" stroke="#000000" points="306.7771,-36 183.7771,-36 183.7771,0 306.7771,0 306.7771,-36"/>
<text text-anchor="middle" x="245.2771" y="-14.3" font-family="Helvetica,sans-Serif" font-size="14.00" fill="#000000">jback&#45;sec&#45;model</text>
</g>
<!-- jback&#45;sec&#45;base&#45;&gt;jback&#45;sec&#45;model -->
<g id="edge15" class="edge">
<title>jback&#45;sec&#45;base&#45;&gt;jback&#45;sec&#45;model</title>
<path fill="none" stroke="#000000" d="M245.2771,-71.8314C245.2771,-64.131 245.2771,-54.9743 245.2771,-46.4166"/>
<polygon fill="#000000" stroke="#000000" points="248.7772,-46.4132 245.2771,-36.4133 241.7772,-46.4133 248.7772,-46.4132"/>
</g>
</g>
</svg>
