<?xml version="1.0" encoding="UTF-8" standalone="no"?>
<!DOCTYPE svg PUBLIC "-//W3C//DTD SVG 1.1//EN"
 "http://www.w3.org/Graphics/SVG/1.1/DTD/svg11.dtd">
<!-- Generated by graphviz version 2.40.1 (20161225.0304)
 -->
<!-- Title: G Pages: 1 -->
<svg width="279pt" height="188pt"
 viewBox="0.00 0.00 279.00 188.00" xmlns="http://www.w3.org/2000/svg" xmlns:xlink="http://www.w3.org/1999/xlink">
<g id="graph0" class="graph" transform="scale(1 1) rotate(0) translate(4 184)">
<title>G</title>
<polygon fill="#ffffff" stroke="transparent" points="-4,4 -4,-184 275,-184 275,4 -4,4"/>
<!-- User -->
<g id="node1" class="node">
<title>User</title>
<polygon fill="none" stroke="#000000" points="103.5,-180 49.5,-180 49.5,-144 103.5,-144 103.5,-180"/>
<text text-anchor="middle" x="76.5" y="-158.3" font-family="Helvetica,sans-Serif" font-size="14.00" fill="#000000">User</text>
</g>
<!-- Principal -->
<g id="node2" class="node">
<title>Principal</title>
<polygon fill="none" stroke="#000000" points="72.5,-108 .5,-108 .5,-72 72.5,-72 72.5,-108"/>
<text text-anchor="middle" x="36.5" y="-86.3" font-family="Helvetica,sans-Serif" font-size="14.00" fill="#000000">Principal</text>
</g>
<!-- User&#45;&gt;Principal -->
<g id="edge1" class="edge">
<title>User&#45;&gt;Principal</title>
<path fill="none" stroke="#000000" d="M66.4063,-143.8314C61.9403,-135.7925 56.5925,-126.1666 51.6621,-117.2918"/>
<polygon fill="#000000" stroke="#000000" points="54.6456,-115.4551 46.7296,-108.4133 48.5265,-118.8546 54.6456,-115.4551"/>
</g>
<!-- Role -->
<g id="node3" class="node">
<title>Role</title>
<polygon fill="none" stroke="#000000" points="144.5,-108 90.5,-108 90.5,-72 144.5,-72 144.5,-108"/>
<text text-anchor="middle" x="117.5" y="-86.3" font-family="Helvetica,sans-Serif" font-size="14.00" fill="#000000">Role</text>
</g>
<!-- User&#45;&gt;Role -->
<g id="edge2" class="edge">
<title>User&#45;&gt;Role</title>
<path fill="none" stroke="#000000" d="M86.846,-143.8314C91.4237,-135.7925 96.9052,-126.1666 101.9588,-117.2918"/>
<polygon fill="#000000" stroke="#000000" points="105.1077,-118.8351 107.0147,-108.4133 99.0248,-115.3712 105.1077,-118.8351"/>
</g>
<!-- Privilege -->
<g id="node4" class="node">
<title>Privilege</title>
<polygon fill="none" stroke="#000000" points="153.5,-36 81.5,-36 81.5,0 153.5,0 153.5,-36"/>
<text text-anchor="middle" x="117.5" y="-14.3" font-family="Helvetica,sans-Serif" font-size="14.00" fill="#000000">Privilege</text>
</g>
<!-- Principal&#45;&gt;Privilege -->
<g id="edge3" class="edge">
<title>Principal&#45;&gt;Privilege</title>
<path fill="none" stroke="#000000" d="M56.9397,-71.8314C66.8205,-63.0485 78.8324,-52.3712 89.545,-42.8489"/>
<polygon fill="#000000" stroke="#000000" points="91.918,-45.4224 97.0668,-36.1628 87.2674,-40.1906 91.918,-45.4224"/>
</g>
<!-- Person -->
<g id="node5" class="node">
<title>Person</title>
<polygon fill="none" stroke="#000000" points="63,-36 0,-36 0,0 63,0 63,-36"/>
<text text-anchor="middle" x="31.5" y="-14.3" font-family="Helvetica,sans-Serif" font-size="14.00" fill="#000000">Person</text>
</g>
<!-- Principal&#45;&gt;Person -->
<g id="edge4" class="edge">
<title>Principal&#45;&gt;Person</title>
<path fill="none" stroke="#000000" d="M35.2383,-71.8314C34.7035,-64.131 34.0677,-54.9743 33.4734,-46.4166"/>
<polygon fill="#000000" stroke="#000000" points="36.9632,-46.1467 32.7787,-36.4133 29.98,-46.6317 36.9632,-46.1467"/>
</g>
<!-- Role&#45;&gt;Privilege -->
<g id="edge7" class="edge">
<title>Role&#45;&gt;Privilege</title>
<path fill="none" stroke="#000000" d="M117.5,-71.8314C117.5,-64.131 117.5,-54.9743 117.5,-46.4166"/>
<polygon fill="#000000" stroke="#000000" points="121.0001,-46.4132 117.5,-36.4133 114.0001,-46.4133 121.0001,-46.4132"/>
</g>
<!-- Role&#45;&gt;Person -->
<g id="edge5" class="edge">
<title>Role&#45;&gt;Person</title>
<path fill="none" stroke="#000000" d="M95.7986,-71.8314C85.3079,-63.0485 72.5545,-52.3712 61.1806,-42.8489"/>
<polygon fill="#000000" stroke="#000000" points="63.1089,-39.8986 53.1945,-36.1628 58.6153,-45.2659 63.1089,-39.8986"/>
</g>
<!-- Organisation -->
<g id="node6" class="node">
<title>Organisation</title>
<polygon fill="none" stroke="#000000" points="271,-36 172,-36 172,0 271,0 271,-36"/>
<text text-anchor="middle" x="221.5" y="-14.3" font-family="Helvetica,sans-Serif" font-size="14.00" fill="#000000">Organisation</text>
</g>
<!-- Role&#45;&gt;Organisation -->
<g id="edge6" class="edge">
<title>Role&#45;&gt;Organisation</title>
<path fill="none" stroke="#000000" d="M143.7436,-71.8314C156.7995,-62.7927 172.7535,-51.7476 186.8047,-42.0198"/>
<polygon fill="#000000" stroke="#000000" points="189.0351,-44.7326 195.2648,-36.1628 185.0506,-38.9773 189.0351,-44.7326"/>
</g>
</g>
</svg>
