<?xml version="1.0" encoding="UTF-8" standalone="no"?>
<!DOCTYPE svg PUBLIC "-//W3C//DTD SVG 1.1//EN"
 "http://www.w3.org/Graphics/SVG/1.1/DTD/svg11.dtd">
<!-- Generated by graphviz version 2.40.1 (20161225.0304)
 -->
<!-- Title: G Pages: 1 -->
<svg width="253pt" height="332pt"
 viewBox="0.00 0.00 252.50 332.00" xmlns="http://www.w3.org/2000/svg" xmlns:xlink="http://www.w3.org/1999/xlink">
<g id="graph0" class="graph" transform="scale(1 1) rotate(0) translate(4 328)">
<title>G</title>
<polygon fill="#ffffff" stroke="transparent" points="-4,4 -4,-328 248.5,-328 248.5,4 -4,4"/>
<!-- User -->
<g id="node1" class="node">
<title>User</title>
<polygon fill="none" stroke="#000000" points="54,-324 0,-324 0,-288 54,-288 54,-324"/>
<text text-anchor="middle" x="27" y="-302.3" font-family="Helvetica,sans-Serif" font-size="14.00" fill="#000000">User</text>
</g>
<!-- Principal -->
<g id="node2" class="node">
<title>Principal</title>
<polygon fill="none" stroke="#000000" points="89,-108 17,-108 17,-72 89,-72 89,-108"/>
<text text-anchor="middle" x="53" y="-86.3" font-family="Helvetica,sans-Serif" font-size="14.00" fill="#000000">Principal</text>
</g>
<!-- User&#45;&gt;Principal -->
<g id="edge1" class="edge">
<title>User&#45;&gt;Principal</title>
<path fill="none" stroke="#000000" d="M21.5028,-287.5211C13.3232,-256.9092 .4871,-194.0856 16,-144 19.0445,-134.1704 24.5641,-124.5387 30.4271,-116.1946"/>
<polygon fill="#000000" stroke="#000000" points="33.3663,-118.1092 36.5719,-108.011 27.7686,-113.9061 33.3663,-118.1092"/>
</g>
<!-- Role -->
<g id="node3" class="node">
<title>Role</title>
<polygon fill="none" stroke="#000000" points="114,-252 60,-252 60,-216 114,-216 114,-252"/>
<text text-anchor="middle" x="87" y="-230.3" font-family="Helvetica,sans-Serif" font-size="14.00" fill="#000000">Role</text>
</g>
<!-- User&#45;&gt;Role -->
<g id="edge2" class="edge">
<title>User&#45;&gt;Role</title>
<path fill="none" stroke="#000000" d="M42.1405,-287.8314C49.1217,-279.454 57.5391,-269.3531 65.1876,-260.1749"/>
<polygon fill="#000000" stroke="#000000" points="67.9425,-262.3362 71.6556,-252.4133 62.5649,-257.8548 67.9425,-262.3362"/>
</g>
<!-- Privilege -->
<g id="node4" class="node">
<title>Privilege</title>
<polygon fill="none" stroke="#000000" points="121,-36 49,-36 49,0 121,0 121,-36"/>
<text text-anchor="middle" x="85" y="-14.3" font-family="Helvetica,sans-Serif" font-size="14.00" fill="#000000">Privilege</text>
</g>
<!-- Principal&#45;&gt;Privilege -->
<g id="edge3" class="edge">
<title>Principal&#45;&gt;Privilege</title>
<path fill="none" stroke="#000000" d="M61.075,-71.8314C64.6102,-63.8771 68.836,-54.369 72.7456,-45.5723"/>
<polygon fill="#000000" stroke="#000000" points="75.9532,-46.9729 76.8163,-36.4133 69.5565,-44.1299 75.9532,-46.9729"/>
</g>
<!-- Role&#45;&gt;Privilege -->
<g id="edge6" class="edge">
<title>Role&#45;&gt;Privilege</title>
<path fill="none" stroke="#000000" d="M91.2032,-215.616C93.3777,-205.2233 95.8186,-191.9551 97,-180 101.7205,-132.2306 103.657,-119.6676 98,-72 96.9932,-63.5166 95.1264,-54.4376 93.1153,-46.1913"/>
<polygon fill="#000000" stroke="#000000" points="96.4472,-45.0971 90.5446,-36.2988 89.6722,-46.8576 96.4472,-45.0971"/>
</g>
<!-- Person -->
<g id="node5" class="node">
<title>Person</title>
<polygon fill="none" stroke="#000000" points="88.5,-180 25.5,-180 25.5,-144 88.5,-144 88.5,-180"/>
<text text-anchor="middle" x="57" y="-158.3" font-family="Helvetica,sans-Serif" font-size="14.00" fill="#000000">Person</text>
</g>
<!-- Role&#45;&gt;Person -->
<g id="edge4" class="edge">
<title>Role&#45;&gt;Person</title>
<path fill="none" stroke="#000000" d="M79.4297,-215.8314C76.1507,-207.9617 72.238,-198.5712 68.6055,-189.8533"/>
<polygon fill="#000000" stroke="#000000" points="71.7492,-188.2979 64.6722,-180.4133 65.2876,-190.9902 71.7492,-188.2979"/>
</g>
<!-- Organisation -->
<g id="node6" class="node">
<title>Organisation</title>
<polygon fill="none" stroke="#000000" points="244.5,-180 145.5,-180 145.5,-144 244.5,-144 244.5,-180"/>
<text text-anchor="middle" x="195" y="-158.3" font-family="Helvetica,sans-Serif" font-size="14.00" fill="#000000">Organisation</text>
</g>
<!-- Role&#45;&gt;Organisation -->
<g id="edge5" class="edge">
<title>Role&#45;&gt;Organisation</title>
<path fill="none" stroke="#000000" d="M114.253,-215.8314C127.9389,-206.7074 144.6915,-195.539 159.3827,-185.7449"/>
<polygon fill="#000000" stroke="#000000" points="161.3767,-188.6221 167.7558,-180.1628 157.4938,-182.7977 161.3767,-188.6221"/>
</g>
<!-- Person&#45;&gt;Principal -->
<g id="edge7" class="edge">
<title>Person&#45;&gt;Principal</title>
<path fill="none" stroke="#000000" d="M55.9906,-143.8314C55.5628,-136.131 55.0541,-126.9743 54.5787,-118.4166"/>
<polygon fill="#000000" stroke="#000000" points="58.0724,-118.2037 54.023,-108.4133 51.0831,-118.592 58.0724,-118.2037"/>
</g>
</g>
</svg>
