<?xml version="1.0" encoding="UTF-8" standalone="no"?>
<!DOCTYPE svg PUBLIC "-//W3C//DTD SVG 1.1//EN"
 "http://www.w3.org/Graphics/SVG/1.1/DTD/svg11.dtd">
<!-- Generated by graphviz version 2.40.1 (20161225.0304)
 -->
<!-- Title: G Pages: 1 -->
<svg width="283pt" height="332pt"
 viewBox="0.00 0.00 282.50 332.00" xmlns="http://www.w3.org/2000/svg" xmlns:xlink="http://www.w3.org/1999/xlink">
<g id="graph0" class="graph" transform="scale(1 1) rotate(0) translate(4 328)">
<title>G</title>
<polygon fill="#ffffff" stroke="transparent" points="-4,4 -4,-328 278.5,-328 278.5,4 -4,4"/>
<!-- Person -->
<g id="node1" class="node">
<title>Person</title>
<polygon fill="none" stroke="#000000" points="118.5,-180 55.5,-180 55.5,-144 118.5,-144 118.5,-180"/>
<text text-anchor="middle" x="87" y="-158.3" font-family="Helvetica,sans-Serif" font-size="14.00" fill="#000000">Person</text>
</g>
<!-- Principal -->
<g id="node2" class="node">
<title>Principal</title>
<polygon fill="none" stroke="#000000" points="72,-108 0,-108 0,-72 72,-72 72,-108"/>
<text text-anchor="middle" x="36" y="-86.3" font-family="Helvetica,sans-Serif" font-size="14.00" fill="#000000">Principal</text>
</g>
<!-- Person&#45;&gt;Principal -->
<g id="edge1" class="edge">
<title>Person&#45;&gt;Principal</title>
<path fill="none" stroke="#000000" d="M74.1305,-143.8314C68.3165,-135.6232 61.3304,-125.7606 54.9354,-116.7323"/>
<polygon fill="#000000" stroke="#000000" points="57.679,-114.5505 49.0427,-108.4133 51.9669,-118.5966 57.679,-114.5505"/>
</g>
<!-- Privilege -->
<g id="node3" class="node">
<title>Privilege</title>
<polygon fill="none" stroke="#000000" points="136,-36 64,-36 64,0 136,0 136,-36"/>
<text text-anchor="middle" x="100" y="-14.3" font-family="Helvetica,sans-Serif" font-size="14.00" fill="#000000">Privilege</text>
</g>
<!-- Person&#45;&gt;Privilege -->
<g id="edge2" class="edge">
<title>Person&#45;&gt;Privilege</title>
<path fill="none" stroke="#000000" d="M88.6465,-143.7623C90.8638,-119.201 94.8318,-75.2474 97.4403,-46.3541"/>
<polygon fill="#000000" stroke="#000000" points="100.9535,-46.3638 98.3669,-36.0896 93.9819,-45.7344 100.9535,-46.3638"/>
</g>
<!-- Principal&#45;&gt;Privilege -->
<g id="edge3" class="edge">
<title>Principal&#45;&gt;Privilege</title>
<path fill="none" stroke="#000000" d="M52.1499,-71.8314C59.6717,-63.3694 68.7565,-53.1489 76.9804,-43.8971"/>
<polygon fill="#000000" stroke="#000000" points="79.6049,-46.2127 83.6327,-36.4133 74.373,-41.5621 79.6049,-46.2127"/>
</g>
<!-- Role -->
<g id="node4" class="node">
<title>Role</title>
<polygon fill="none" stroke="#000000" points="144,-252 90,-252 90,-216 144,-216 144,-252"/>
<text text-anchor="middle" x="117" y="-230.3" font-family="Helvetica,sans-Serif" font-size="14.00" fill="#000000">Role</text>
</g>
<!-- Role&#45;&gt;Person -->
<g id="edge4" class="edge">
<title>Role&#45;&gt;Person</title>
<path fill="none" stroke="#000000" d="M109.4297,-215.8314C106.1507,-207.9617 102.238,-198.5712 98.6055,-189.8533"/>
<polygon fill="#000000" stroke="#000000" points="101.7492,-188.2979 94.6722,-180.4133 95.2876,-190.9902 101.7492,-188.2979"/>
</g>
<!-- Role&#45;&gt;Privilege -->
<g id="edge6" class="edge">
<title>Role&#45;&gt;Privilege</title>
<path fill="none" stroke="#000000" d="M121.6934,-215.6463C124.1071,-205.2631 126.7908,-191.9943 128,-180 132.7793,-132.5941 119.4196,-78.1288 109.545,-45.9684"/>
<polygon fill="#000000" stroke="#000000" points="112.8522,-44.8187 106.4888,-36.3477 106.1807,-46.9381 112.8522,-44.8187"/>
</g>
<!-- Organisation -->
<g id="node5" class="node">
<title>Organisation</title>
<polygon fill="none" stroke="#000000" points="274.5,-180 175.5,-180 175.5,-144 274.5,-144 274.5,-180"/>
<text text-anchor="middle" x="225" y="-158.3" font-family="Helvetica,sans-Serif" font-size="14.00" fill="#000000">Organisation</text>
</g>
<!-- Role&#45;&gt;Organisation -->
<g id="edge5" class="edge">
<title>Role&#45;&gt;Organisation</title>
<path fill="none" stroke="#000000" d="M144.253,-215.8314C157.9389,-206.7074 174.6915,-195.539 189.3827,-185.7449"/>
<polygon fill="#000000" stroke="#000000" points="191.3767,-188.6221 197.7558,-180.1628 187.4938,-182.7977 191.3767,-188.6221"/>
</g>
<!-- User -->
<g id="node6" class="node">
<title>User</title>
<polygon fill="none" stroke="#000000" points="84,-324 30,-324 30,-288 84,-288 84,-324"/>
<text text-anchor="middle" x="57" y="-302.3" font-family="Helvetica,sans-Serif" font-size="14.00" fill="#000000">User</text>
</g>
<!-- User&#45;&gt;Principal -->
<g id="edge7" class="edge">
<title>User&#45;&gt;Principal</title>
<path fill="none" stroke="#000000" d="M55.2457,-287.9555C51.5861,-250.3144 43.1154,-163.1867 38.7343,-118.1246"/>
<polygon fill="#000000" stroke="#000000" points="42.2154,-117.7594 37.7641,-108.1451 35.2483,-118.4369 42.2154,-117.7594"/>
</g>
<!-- User&#45;&gt;Role -->
<g id="edge8" class="edge">
<title>User&#45;&gt;Role</title>
<path fill="none" stroke="#000000" d="M72.1405,-287.8314C79.1217,-279.454 87.5391,-269.3531 95.1876,-260.1749"/>
<polygon fill="#000000" stroke="#000000" points="97.9425,-262.3362 101.6556,-252.4133 92.5649,-257.8548 97.9425,-262.3362"/>
</g>
</g>
</svg>
